PlaypenSans.glyphspackage
{
glyphname = exclam;
kernLeft = exclam;
kernRight = exclam;
layers = (
{
background = {
shapes = (
{
closed = 1;
nodes = (
(163,-11,o),
(178,8,o),
(178,28,cs),
(178,46,o),
(170,61,o),
(147,61,cs),
(128,61,o),
(116,39,o),
(116,23,cs),
(116,0,o),
(130,-11,o),
(145,-11,cs)
);
}
);
};
layerId = m01;
shapes = (
{
closed = 1;
nodes = (
(163,199,o),
(167,205,o),
(168,219,cs),
(173,477,o),
(175,509,o),
(184,758,cs),
(185,772,o),
(180,778,o),
(168,778,cs),
(156,778,o),
(151,772,o),
(151,758,cs),
(147,614,o),
(136,268,o),
(134,230,cs),
(133,212,o),
(136,199,o),
(152,199,cs)
);
},
{
closed = 1;
nodes = (
(165,-11,o),
(178,7,o),
(178,32,cs),
(178,49,o),
(166,61,o),
(150,61,cs),
(130,61,o),
(116,45,o),
(116,24,cs),
(116,4,o),
(129,-11,o),
(147,-11,cs)
);
}
);
userData = {
com.hugojourdan.ColorFlow = {
"0" = 0;
"1" = 0;
"10" = 0;
"11" = 0;
"2" = 0;
"3" = 0;
"4" = 0;
"5" = 0;
"6" = 0;
"7" = 0;
"8" = 0;
"9" = 0;
};
};
width = 311;
},
{
background = {
shapes = (
{
closed = 1;
nodes = (
(28,13,o),
(75,-20,o),
(135,-20,c),
(198,-20,o),
(248,29,o),
(248,89,c),
(248,143,o),
(213,183,o),
(144,183,c),
(67,183,o),
(28,128,o),
(28,64,c)
);
}
);
};
layerId = m003;
shapes = (
{
closed = 1;
nodes = (
(192,239,o),
(218,258,o),
(220,299,cs),
(224,508,o),
(226,533,o),
(234,718,cs),
(236,759,o),
(211,778,o),
(158,778,cs),
(105,778,o),
(80,759,o),
(79,718,cs),
(76,620,o),
(65,345,o),
(63,320,cs),
(59,265,o),
(85,239,o),
(142,239,cs)
);
},
{
closed = 1;
nodes = (
(198,-18,o),
(238,22,o),
(238,78,cs),
(238,137,o),
(197,177,o),
(140,177,cs),
(82,177,o),
(37,138,o),
(37,84,cs),
(37,27,o),
(79,-18,o),
(137,-18,cs)
);
}
);
userData = {
com.hugojourdan.ColorFlow = {
"0" = 0;
"1" = 0;
"10" = 0;
"11" = 0;
"2" = 0;
"3" = 0;
"4" = 0;
"5" = 0;
"6" = 0;
"7" = 0;
"8" = 0;
"9" = 0;
};
};
width = 291;
},
{
layerId = "5FC9277C-B92C-4C3C-88AB-70E16AEC7C11";
shapes = (
{
closed = 1;
nodes = (
(171,203,o),
(190,220,o),
(191,245,cs),
(196,481,o),
(196,510,o),
(206,736,cs),
(207,764,o),
(186,778,o),
(163,778,cs),
(138,778,o),
(118,764,o),
(118,736,cs),
(114,607,o),
(103,292,o),
(101,266,cs),
(99,232,o),
(110,203,o),
(147,203,cs)
);
},
{
closed = 1;
nodes = (
(175,-18,o),
(198,9,o),
(198,42,cs),
(198,75,o),
(177,106,o),
(145,105,cs),
(105,105,o),
(87,78,o),
(87,48,cs),
(87,16,o),
(110,-17,o),
(142,-18,cs)
);
}
);
userData = {
com.hugojourdan.ColorFlow = {
"0" = 0;
"1" = 0;
"10" = 0;
"11" = 0;
"2" = 0;
"3" = 0;
"4" = 0;
"5" = 0;
"6" = 0;
"7" = 0;
"8" = 0;
"9" = 0;
};
};
width = 300;
}
);
unicode = 33;
}
{
glyphname = dollar;
kernLeft = S;
kernRight = S;
layers = (
{
layerId = m01;
shapes = (
{
closed = 1;
nodes = (
(452,726,o),
(398,757,o),
(327,757,cs),
(212,757,o),
(122,678,o),
(122,573,cs),
(122,497,o),
(171,442,o),
(301,396,cs),
(437,348,o),
(479,303,o),
(479,232,cs),
(479,135,o),
(407,74,o),
(285,74,cs),
(219,74,o),
(148,113,o),
(114,150,cs),
(107,158,o),
(102,159,o),
(97,159,cs),
(92,159,o),
(84,152,o),
(84,145,cs),
(84,141,o),
(86,136,o),
(91,130,cs),
(126,87,o),
(207,44,o),
(288,44,cs),
(429,44,o),
(511,120,o),
(511,238,cs),
(511,317,o),
(456,375,o),
(314,426,cs),
(189,471,o),
(155,515,o),
(155,578,cs),
(155,660,o),
(223,727,o),
(325,727,cs),
(374,727,o),
(421,714,o),
(480,650,cs),
(485,645,o),
(489,643,o),
(494,643,cs),
(501,643,o),
(508,652,o),
(508,659,cs),
(508,662,o),
(506,665,o),
(504,668,cs)
);
},
{
closed = 1;
nodes = (
(309,601,o),
(272,189,o),
(272,-47,cs),
(272,-59,o),
(274,-69,o),
(288,-69,cs),
(297,-69,o),
(302,-59,o),
(302,-47,cs),
(302,189,o),
(339,601,o),
(342,836,cs),
(342,854,o),
(339,862,o),
(329,862,cs),
(319,862,o),
(312,854,o),
(312,836,cs)
);
}
);
userData = {
com.hugojourdan.ColorFlow = {
"0" = 0;
"1" = 0;
"10" = 0;
"11" = 0;
"2" = 0;
"3" = 0;
"4" = 0;
"5" = 0;
"6" = 0;
"7" = 0;
"8" = 0;
"9" = 0;
};
};
width = 599;
},
{
layerId = m003;
shapes = (
{
closed = 1;
nodes = (
(523,724,o),
(417,777,o),
(326,777,cs),
(133,777,o),
(42,669,o),
(42,549,cs),
(42,449,o),
(110,384,o),
(309,318,cs),
(434,276,o),
(442,259,o),
(442,231,cs),
(442,191,o),
(402,183,o),
(326,183,cs),
(281,183,o),
(211,212,o),
(169,233,cs),
(144,246,o),
(123,265,o),
(97,265,cs),
(71,265,o),
(21,211,o),
(21,167,cs),
(21,138,o),
(54,114,o),
(90,91,cs),
(147,56,o),
(234,24,o),
(326,24,cs),
(519,24,o),
(623,122,o),
(623,242,cs),
(623,347,o),
(558,412,o),
(335,488,cs),
(232,523,o),
(223,541,o),
(223,568,cs),
(223,600,o),
(249,618,o),
(322,618,cs),
(395,618,o),
(445,588,o),
(472,569,cs),
(496,552,o),
(521,536,o),
(543,536,cs),
(566,536,o),
(614,566,o),
(616,625,cs),
(617,648,o),
(598,675,o),
(564,697,cs)
);
},
{
closed = 1;
nodes = (
(301,577,o),
(253,217,o),
(243,1,cs),
(241,-45,o),
(246,-68,o),
(297,-68,cs),
(342,-68,o),
(347,-45,o),
(349,1,cs),
(359,217,o),
(407,577,o),
(415,792,cs),
(417,839,o),
(405,862,o),
(359,862,cs),
(309,862,o),
(311,839,o),
(309,792,cs)
);
}
);
userData = {
com.hugojourdan.ColorFlow = {
"0" = 0;
"1" = 0;
"10" = 0;
"11" = 0;
"2" = 0;
"3" = 0;
"4" = 0;
"5" = 0;
"6" = 0;
"7" = 0;
"8" = 0;
"9" = 0;
};
};
width = 654;
},
{
layerId = "5FC9277C-B92C-4C3C-88AB-70E16AEC7C11";
shapes = (
{
closed = 1;
nodes = (
(483,730,o),
(410,759,o),
(331,759,cs),
(192,759,o),
(93,677,o),
(93,571,cs),
(93,483,o),
(158,423,o),
(286,375,cs),
(416,326,o),
(454,291,o),
(454,231,cs),
(454,164,o),
(388,125,o),
(289,125,cs),
(233,125,o),
(163,145,o),
(138,168,cs),
(123,182,o),
(113,188,o),
(99,188,cs),
(77,188,o),
(57,166,o),
(57,145,cs),
(57,134,o),
(64,122,o),
(74,113,cs),
(123,68,o),
(197,42,o),
(293,42,cs),
(442,42,o),
(541,120,o),
(541,238,cs),
(541,329,o),
(475,401,o),
(340,448,cs),
(221,490,o),
(181,526,o),
(181,577,cs),
(181,634,o),
(242,677,o),
(329,677,cs),
(388,677,o),
(429,658,o),
(466,621,cs),
(474,613,o),
(485,608,o),
(495,608,cs),
(515,608,o),
(537,630,o),
(537,654,cs),
(537,662,o),
(532,672,o),
(523,683,cs)
);
},
{
closed = 1;
nodes = (
(288,631,o),
(247,189,o),
(246,-27,cs),
(246,-55,o),
(264,-69,o),
(288,-69,cs),
(311,-69,o),
(329,-55,o),
(329,-27,cs),
(330,189,o),
(372,631,o),
(375,819,cs),
(375,848,o),
(356,862,o),
(332,862,cs),
(309,862,o),
(291,848,o),
(291,819,cs)
);
}
);
userData = {
com.hugojourdan.ColorFlow = {
"0" = 0;
"1" = 0;
"10" = 0;
"11" = 0;
"2" = 0;
"3" = 0;
"4" = 0;
"5" = 0;
"6" = 0;
"7" = 0;
"8" = 0;
"9" = 0;
};
};
width = 603.6;
}
);
unicode = 36;
}
{
glyphname = percent;
kernLeft = percent;
kernRight = percent;
layers = (
{
background = {
shapes = (
{
closed = 1;
nodes = (
(869,-14,o),
(949,93,o),
(945,245,cs),
(941,388,o),
(873,517,o),
(753,517,cs),
(736,517,o),
(719,514,o),
(703,508,cs),
(696,506,o),
(693,501,o),
(693,494,cs),
(693,483,o),
(700,479,o),
(715,483,cs),
(729,486,o),
(742,488,o),
(753,488,cs),
(855,488,o),
(913,360,o),
(913,246,cs),
(913,97,o),
(845,16,o),
(764,16,cs),
(684,16,o),
(626,113,o),
(626,244,cs),
(626,357,o),
(649,437,o),
(714,476,cs),
(720,479,o),
(727,492,o),
(727,496,cs),
(727,504,o),
(724,508,o),
(720,508,cs),
(715,508,o),
(710,506,o),
(701,500,cs),
(632,457,o),
(595,384,o),
(595,241,cs),
(595,110,o),
(659,-14,o),
(763,-14,cs)
);
},
{
closed = 1;
nodes = (
(160,267,o),
(236,396,o),
(230,551,cs),
(225,693,o),
(155,792,o),
(49,792,cs),
(-72,792,o),
(-123,652,o),
(-123,519,cs),
(-123,361,o),
(-62,267,o),
(51,267,cs)
);
},
{
closed = 1;
nodes = (
(-91,671,o),
(-35,762,o),
(50,762,cs),
(134,762,o),
(198,675,o),
(198,544,cs),
(198,393,o),
(134,297,o),
(43,297,cs),
(-38,297,o),
(-91,377,o),
(-91,517,cs)
);
},
{
closed = 1;
nodes = (
(542,616,o),
(273,199,o),
(146,-6,cs),
(135,-23,o),
(132,-32,o),
(140,-37,cs),
(149,-42,o),
(158,-41,o),
(170,-23,cs),
(296,181,o),
(564,599,o),
(710,794,cs),
(722,810,o),
(721,817,o),
(714,822,cs),
(704,829,o),
(698,827,o),
(687,812,cs)
);
}
);
};
layerId = m01;
shapes = (
{
closed = 1;
nodes = (
(735,-14,o),
(791,93,o),
(791,185,cs),
(791,268,o),
(739,397,o),
(619,397,cs),
(602,397,o),
(585,394,o),
(569,388,cs),
(562,386,o),
(559,381,o),
(559,374,cs),
(559,363,o),
(566,359,o),
(581,363,cs),
(595,366,o),
(608,370,o),
(619,370,cs),
(724,370,o),
(764,250,o),
(764,186,cs),
(764,97,o),
(711,12,o),
(630,12,cs),
(540,12,o),
(508,113,o),
(508,184,cs),
(508,237,o),
(512,309,o),
(577,357,cs),
(583,361,o),
(593,372,o),
(593,376,cs),
(593,384,o),
(590,388,o),
(586,388,cs),
(581,388,o),
(576,387,o),
(567,380,cs),
(498,328,o),
(481,264,o),
(481,181,cs),
(481,110,o),
(515,-14,o),
(629,-14,cs)
);
},
{
closed = 1;
nodes = (
(299,377,o),
(359,485,o),
(359,604,cs),
(359,706,o),
(294,792,o),
(198,792,cs),
(87,792,o),
(46,672,o),
(46,579,cs),
(46,461,o),
(97,377,o),
(200,377,cs)
);
},
{
closed = 1;
nodes = (
(73,691,o),
(124,766,o),
(199,766,cs),
(273,766,o),
(332,695,o),
(332,604,cs),
(332,489,o),
(276,403,o),
(192,403,cs),
(118,403,o),
(73,473,o),
(73,577,cs)
);
},
{
closed = 1;
nodes = (
(530,622,o),
(283,191,o),
(167,-20,cs),
(157,-39,o),
(155,-47,o),
(163,-51,cs),
(172,-56,o),
(182,-54,o),
(192,-36,cs),
(307,174,o),
(553,606,o),
(689,808,cs),
(700,825,o),
(698,832,o),
(691,836,cs),
(681,843,o),
(675,841,o),
(665,825,cs)
);
}
);
userData = {
com.hugojourdan.ColorFlow = {
"0" = 0;
"1" = 0;
"10" = 0;
"11" = 0;
"2" = 0;
"3" = 0;
"4" = 0;
"5" = 0;
"6" = 0;
"7" = 0;
"8" = 0;
"9" = 0;
};
};
width = 829;
},
{
layerId = m003;
shapes = (
{
closed = 1;
nodes = (
(807,-14,o),
(871,88,o),
(868,187,cs),
(865,299,o),
(812,399,o),
(675,399,cs),
(664,399,o),
(648,397,o),
(635,392,cs),
(618,386,o),
(608,373,o),
(608,358,cs),
(608,323,o),
(623,285,o),
(646,290,cs),
(656,293,o),
(667,294,o),
(675,294,cs),
(741,294,o),
(753,242,o),
(753,188,cs),
(753,136,o),
(731,92,o),
(684,92,cs),
(636,92,o),
(623,138,o),
(623,187,cs),
(623,225,o),
(630,256,o),
(653,280,cs),
(660,287,o),
(669,306,o),
(669,337,cs),
(669,366,o),
(647,376,o),
(632,376,cs),
(616,376,o),
(611,372,o),
(599,364,cs),
(537,325,o),
(508,261,o),
(508,184,cs),
(508,81,o),
(566,-14,o),
(683,-14,cs)
);
},
{
closed = 1;
nodes = (
(322,377,o),
(388,487,o),
(385,602,cs),
(381,706,o),
(318,792,o),
(197,792,cs),
(64,792,o),
(16,673,o),
(16,576,cs),
(16,459,o),
(72,377,o),
(198,377,cs)
);
},
{
closed = 1;
nodes = (
(128,646,o),
(151,687,o),
(198,687,cs),
(244,687,o),
(272,649,o),
(272,596,cs),
(272,541,o),
(251,482,o),
(192,482,cs),
(142,482,o),
(128,526,o),
(128,575,cs)
);
},
{
closed = 1;
nodes = (
(562,711,o),
(414,451,o),
(183,33,cs),
(160,-7,o),
(164,-35,o),
(196,-51,cs),
(235,-72,o),
(266,-63,o),
(287,-23,cs),
(473,326,o),
(618,584,o),
(727,754,cs),
(752,791,o),
(749,820,o),
(719,839,cs),
(683,865,o),
(652,857,o),
(627,817,cs)
);
}
);
userData = {
com.hugojourdan.ColorFlow = {
"0" = 0;
"1" = 0;
"10" = 0;
"11" = 0;
"2" = 0;
"3" = 0;
"4" = 0;
"5" = 0;
"6" = 0;
"7" = 0;
"8" = 0;
"9" = 0;
};
};
width = 876;
},
{
layerId = "5FC9277C-B92C-4C3C-88AB-70E16AEC7C11";
shapes = (
{
closed = 1;
nodes = (
(777,-14,o),
(842,96,o),
(842,186,cs),
(842,297,o),
(774,397,o),
(661,397,cs),
(646,397,o),
(635,395,o),
(620,390,cs),
(604,385,o),
(594,371,o),
(594,356,cs),
(594,334,o),
(608,317,o),
(631,322,cs),
(641,325,o),
(651,326,o),
(661,326,cs),
(720,326,o),
(767,275,o),
(767,187,cs),
(767,105,o),
(720,57,o),
(669,57,cs),
(616,57,o),
(579,107,o),
(579,186,cs),
(579,239,o),
(587,262,o),
(628,307,cs),
(636,315,o),
(641,329,o),
(641,343,cs),
(641,362,o),
(625,371,o),
(610,371,cs),
(605,371,o),
(597,368,o),
(588,362,cs),
(527,314,o),
(504,259,o),
(504,182,cs),
(504,89,o),
(564,-14,o),
(668,-14,cs)
);
},
{
closed = 1;
nodes = (
(312,378,o),
(369,497,o),
(369,602,cs),
(368,706,o),
(302,792,o),
(198,792,cs),
(84,792,o),
(34,674,o),
(34,577,cs),
(34,469,o),
(85,378,o),
(200,378,cs)
);
},
{
closed = 1;
nodes = (
(108,662,o),
(147,721,o),
(199,721,cs),
(252,721,o),
(295,672,o),
(295,596,cs),
(295,538,o),
(266,449,o),
(194,449,cs),
(142,449,o),
(108,495,o),
(108,575,cs)
);
},
{
closed = 1;
nodes = (
(535,628,o),
(294,231,o),
(170,1,cs),
(157,-24,o),
(162,-39,o),
(183,-51,cs),
(203,-61,o),
(223,-58,o),
(236,-32,cs),
(354,190,o),
(596,589,o),
(723,784,cs),
(737,809,o),
(732,825,o),
(711,836,cs),
(694,847,o),
(672,842,o),
(658,816,cs)
);
}
);
userData = {
com.hugojourdan.ColorFlow = {
"0" = 0;
"1" = 0;
"10" = 0;
"11" = 0;
"2" = 0;
"3" = 0;
"4" = 0;
"5" = 0;
"6" = 0;
"7" = 0;
"8" = 0;
"9" = 0;
};
};
width = 867.9;
}
);
unicode = 37;
}
{
glyphname = quotesingle;
kernLeft = quotesingle;
kernRight = quotesingle;
layers = (
{
layerId = m01;
shapes = (
{
closed = 1;
nodes = (
(85,689,o),
(83,628,o),
(83,584,cs),
(83,563,o),
(82,553,o),
(98,553,cs),
(107,553,o),
(111,561,o),
(112,582,cs),
(114,617,o),
(118,671,o),
(127,747,cs),
(130,773,o),
(125,783,o),
(111,783,cs),
(94,783,o),
(89,773,o),
(88,747,cs)
);
}
);
userData = {
com.hugojourdan.ColorFlow = {
"0" = 0;
"1" = 0;
"10" = 0;
"11" = 0;
"2" = 0;
"3" = 0;
"4" = 0;
"5" = 0;
"6" = 0;
"7" = 0;
"8" = 0;
"9" = 0;
};
};
width = 205;
},
{
layerId = m003;
shapes = (
{
closed = 1;
nodes = (
(57,683,o),
(61,610,o),
(63,561,cs),
(64,528,o),
(76,502,o),
(138,502,cs),
(183,502,o),
(195,528,o),
(199,561,cs),
(204,601,o),
(220,698,o),
(224,741,cs),
(226,767,o),
(204,800,o),
(144,800,cs),
(83,800,o),
(66,767,o),
(63,741,cs)
);
}
);
userData = {
com.hugojourdan.ColorFlow = {
"0" = 0;
"1" = 0;
"10" = 0;
"11" = 0;
"2" = 0;
"3" = 0;
"4" = 0;
"5" = 0;
"6" = 0;
"7" = 0;
"8" = 0;
"9" = 0;
};
};
width = 263;
},
{
layerId = "5FC9277C-B92C-4C3C-88AB-70E16AEC7C11";
shapes = (
{
closed = 1;
nodes = (
(87,686,o),
(87,620,o),
(87,571,cs),
(87,544,o),
(101,530,o),
(126,530,cs),
(149,530,o),
(162,544,o),
(163,571,cs),
(165,611,o),
(178,701,o),
(182,744,cs),
(184,770,o),
(162,785,o),
(138,785,cs),
(113,785,o),
(96,770,o),
(93,744,cs)
);
}
);
userData = {
com.hugojourdan.ColorFlow = {
"0" = 0;
"1" = 0;
"10" = 0;
"11" = 0;
"2" = 0;
"3" = 0;
"4" = 0;
"5" = 0;
"6" = 0;
"7" = 0;
"8" = 0;
"9" = 0;
};
};
width = 250.4;
}
);
unicode = 39;
}
{
glyphname = parenleft;
kernLeft = parenleft;
kernRight = parenleft;
layers = (
{
layerId = m01;
shapes = (
{
closed = 1;
nodes = (
(187,695,o),
(128,502,o),
(128,297,cs),
(128,136,o),
(169,-11,o),
(232,-141,cs),
(235,-147,o),
(239,-149,o),
(244,-149,cs),
(253,-149,o),
(262,-143,o),
(262,-134,cs),
(262,-131,o),
(261,-128,o),
(260,-126,cs),
(197,10,o),
(161,157,o),
(161,312,cs),
(161,485,o),
(215,675,o),
(311,835,cs),
(313,839,o),
(315,843,o),
(315,846,cs),
(315,855,o),
(305,862,o),
(296,862,cs),
(291,862,o),
(287,859,o),
(283,852,cs)
);
}
);
userData = {
com.hugojourdan.ColorFlow = {
"0" = 0;
"1" = 0;
"10" = 0;
"11" = 0;
"2" = 0;
"3" = 0;
"4" = 0;
"5" = 0;
"6" = 0;
"7" = 0;
"8" = 0;
"9" = 0;
};
};
width = 439;
},
{
layerId = m003;
shapes = (
{
closed = 1;
nodes = (
(118,698,o),
(63,520,o),
(63,297,cs),
(63,117,o),
(106,-12,o),
(167,-141,cs),
(181,-168,o),
(196,-180,o),
(224,-180,cs),
(262,-180,o),
(310,-149,o),
(310,-111,cs),
(310,-98,o),
(307,-82,o),
(298,-63,cs),
(247,42,o),
(217,154,o),
(217,312,cs),
(217,467,o),
(251,636,o),
(338,780,cs),
(345,791,o),
(353,808,o),
(353,821,cs),
(353,861,o),
(309,889,o),
(269,889,cs),
(240,889,o),
(226,877,o),
(212,852,cs)
);
}
);
userData = {
com.hugojourdan.ColorFlow = {
"0" = 0;
"1" = 0;
"10" = 0;
"11" = 0;
"2" = 0;
"3" = 0;
"4" = 0;
"5" = 0;
"6" = 0;
"7" = 0;
"8" = 0;
"9" = 0;
};
};
width = 379;
},
{
layerId = "5FC9277C-B92C-4C3C-88AB-70E16AEC7C11";
shapes = (
{
closed = 1;
nodes = (
(136,699,o),
(77,504,o),
(77,297,cs),
(77,133,o),
(119,-16,o),
(181,-146,cs),
(188,-162,o),
(206,-168,o),
(220,-168,cs),
(241,-168,o),
(261,-151,o),
(261,-124,cs),
(261,-114,o),
(259,-104,o),
(252,-88,cs),
(200,24,o),
(163,161,o),
(163,312,cs),
(163,477,o),
(214,657,o),
(307,811,cs),
(311,818,o),
(313,826,o),
(313,834,cs),
(313,857,o),
(290,876,o),
(266,876,cs),
(253,876,o),
(240,870,o),
(231,855,cs)
);
}
);
userData = {
com.hugojourdan.ColorFlow = {
"0" = 0;
"1" = 0;
"10" = 0;
"11" = 0;
"2" = 0;
"3" = 0;
"4" = 0;
"5" = 0;
"6" = 0;
"7" = 0;
"8" = 0;
"9" = 0;
};
};
width = 397;
}
);
unicode = 40;
}
{
glyphname = parenright;
kernLeft = parenright;
kernRight = parenright;
layers = (
{
layerId = m01;
shapes = (
{
closed = 1;
nodes = (
(232,687,o),
(267,542,o),
(267,396,cs),
(267,185,o),
(223,23,o),
(147,-122,cs),
(145,-126,o),
(143,-130,o),
(143,-134,cs),
(143,-143,o),
(151,-148,o),
(159,-148,cs),
(164,-148,o),
(168,-145,o),
(173,-136,cs),
(262,38,o),
(299,232,o),
(299,400,cs),
(299,543,o),
(250,735,o),
(190,840,cs),
(187,845,o),
(183,847,o),
(179,847,cs),
(173,847,o),
(162,842,o),
(162,835,cs),
(162,832,o),
(163,829,o),
(164,827,cs)
);
}
);
userData = {
com.hugojourdan.ColorFlow = {
"0" = 0;
"1" = 0;
"10" = 0;
"11" = 0;
"2" = 0;
"3" = 0;
"4" = 0;
"5" = 0;
"6" = 0;
"7" = 0;
"8" = 0;
"9" = 0;
};
};
width = 432;
},
{
layerId = m003;
shapes = (
{
closed = 1;
nodes = (
(127,656,o),
(150,498,o),
(150,396,cs),
(150,231,o),
(121,57,o),
(58,-65,cs),
(47,-87,o),
(42,-104,o),
(42,-116,cs),
(42,-145,o),
(83,-183,o),
(121,-183,cs),
(162,-183,o),
(174,-160,o),
(199,-111,cs),
(273,33,o),
(306,213,o),
(306,400,cs),
(306,564,o),
(263,736,o),
(208,834,cs),
(189,868,o),
(173,881,o),
(146,881,cs),
(112,881,o),
(66,857,o),
(66,816,cs),
(66,809,o),
(71,791,o),
(76,779,cs)
);
}
);
userData = {
com.hugojourdan.ColorFlow = {
"0" = 0;
"1" = 0;
"10" = 0;
"11" = 0;
"2" = 0;
"3" = 0;
"4" = 0;
"5" = 0;
"6" = 0;
"7" = 0;
"8" = 0;
"9" = 0;
};
};
width = 372;
},
{
layerId = "5FC9277C-B92C-4C3C-88AB-70E16AEC7C11";
shapes = (
{
closed = 1;
nodes = (
(186,674,o),
(220,535,o),
(220,396,cs),
(220,193,o),
(179,35,o),
(108,-97,cs),
(99,-113,o),
(98,-124,o),
(98,-134,cs),
(98,-148,o),
(112,-169,o),
(141,-171,cs),
(164,-172,o),
(178,-149,o),
(195,-115,cs),
(270,30,o),
(308,228,o),
(308,400,cs),
(308,548,o),
(258,743,o),
(204,838,cs),
(193,859,o),
(180,869,o),
(166,869,cs),
(148,869,o),
(124,856,o),
(124,831,cs),
(124,827,o),
(124,817,o),
(129,806,cs)
);
}
);
userData = {
com.hugojourdan.ColorFlow = {
"0" = 0;
"1" = 0;
"10" = 0;
"11" = 0;
"2" = 0;
"3" = 0;
"4" = 0;
"5" = 0;
"6" = 0;
"7" = 0;
"8" = 0;
"9" = 0;
};
};
width = 390;
}
);
unicode = 41;
}
{
glyphname = hyphen;
kernLeft = hyphen;
kernRight = hyphen;
layers = (
{
background = {
shapes = (
{
closed = 1;
nodes = (
(162,310,o),
(215,311,o),
(262,311,cs),
(295,311,o),
(332,312,o),
(375,310,cs),
(391,309,o),
(399,311,o),
(399,326,cs),
(399,336,o),
(391,339,o),
(375,340,cs),
(332,342,o),
(295,341,o),
(262,341,cs),
(215,341,o),
(162,340,o),
(104,337,cs),
(93,336,o),
(80,333,o),
(80,323,cs),
(80,308,o),
(90,306,o),
(104,307,cs)
);
}
);
};
layerId = m01;
shapes = (
{
closed = 1;
nodes = (
(175,310,o),
(320,313,o),
(383,310,cs),
(399,309,o),
(407,311,o),
(407,326,cs),
(407,336,o),
(399,339,o),
(383,340,cs),
(320,343,o),
(175,340,o),
(112,337,cs),
(101,336,o),
(88,333,o),
(88,323,cs),
(88,308,o),
(98,306,o),
(112,307,cs)
);
}
);
userData = {
com.hugojourdan.ColorFlow = {
"0" = 0;
"1" = 0;
"10" = 0;
"11" = 0;
"2" = 0;
"3" = 0;
"4" = 0;
"5" = 0;
"6" = 0;
"7" = 0;
"8" = 0;
"9" = 0;
};
};
width = 495;
},
{
background = {
shapes = (
{
closed = 1;
nodes = (
(158,285,o),
(205,286,o),
(252,286,cs),
(285,286,o),
(317,285,o),
(350,285,cs),
(376,285,o),
(389,305,o),
(389,326,cs),
(389,346,o),
(376,366,o),
(350,366,cs),
(317,366,o),
(285,367,o),
(252,367,cs),
(205,367,o),
(158,366,o),
(111,363,cs),
(90,363,o),
(70,345,o),
(70,324,cs),
(70,301,o),
(87,282,o),
(111,282,cs)
);
}
);
};
layerId = m003;
shapes = (
{
closed = 1;
nodes = (
(158,244,o),
(308,246,o),
(335,244,cs),
(369,242,o),
(390,283,o),
(390,332,cs),
(390,370,o),
(368,397,o),
(335,399,cs),
(308,401,o),
(158,399,o),
(122,397,cs),
(83,395,o),
(60,370,o),
(60,311,cs),
(60,270,o),
(80,240,o),
(122,242,cs)
);
}
);
userData = {
com.hugojourdan.ColorFlow = {
"0" = 0;
"1" = 0;
"10" = 0;
"11" = 0;
"2" = 0;
"3" = 0;
"4" = 0;
"5" = 0;
"6" = 0;
"7" = 0;
"8" = 0;
"9" = 0;
};
};
width = 459;
},
{
layerId = "5FC9277C-B92C-4C3C-88AB-70E16AEC7C11";
shapes = (
{
closed = 1;
nodes = (
(170,282,o),
(328,283,o),
(360,281,cs),
(387,279,o),
(401,306,o),
(401,330,cs),
(401,352,o),
(387,367,o),
(360,369,cs),
(328,371,o),
(170,369,o),
(124,366,cs),
(101,366,o),
(81,346,o),
(81,321,cs),
(81,293,o),
(98,276,o),
(124,278,cs)
);
}
);
userData = {
com.hugojourdan.ColorFlow = {
"0" = 0;
"1" = 0;
"10" = 0;
"11" = 0;
"2" = 0;
"3" = 0;
"4" = 0;
"5" = 0;
"6" = 0;
"7" = 0;
"8" = 0;
"9" = 0;
};
};
width = 482.4;
}
);
unicode = 45;
}
{
color = 4;
glyphname = period;
kernLeft = period;
kernRight = period;
layers = (
{
layerId = m01;
shapes = (
{
closed = 1;
nodes = (
(103,-11,o),
(118,8,o),
(118,28,cs),
(118,46,o),
(110,61,o),
(87,61,cs),
(68,61,o),
(56,39,o),
(56,23,cs),
(56,0,o),
(70,-11,o),
(85,-11,cs)
);
}
);
userData = {
com.hugojourdan.ColorFlow = {
"0" = 0;
"1" = 0;
"10" = 0;
"11" = 0;
"2" = 0;
"3" = 0;
"4" = 0;
"5" = 0;
"6" = 0;
"7" = 0;
"8" = 0;
"9" = 0;
};
};
width = 204;
},
{
layerId = m003;
shapes = (
{
closed = 1;
nodes = (
(193,-20,o),
(243,29,o),
(243,89,cs),
(243,143,o),
(208,183,o),
(139,183,cs),
(62,183,o),
(23,128,o),
(23,64,cs),
(23,13,o),
(70,-20,o),
(130,-20,cs)
);
}
);
userData = {
com.hugojourdan.ColorFlow = {
"0" = 0;
"1" = 0;
"10" = 0;
"11" = 0;
"2" = 0;
"3" = 0;
"4" = 0;
"5" = 0;
"6" = 0;
"7" = 0;
"8" = 0;
"9" = 0;
};
};
width = 279;
},
{
layerId = "5FC9277C-B92C-4C3C-88AB-70E16AEC7C11";
shapes = (
{
closed = 1;
nodes = (
(156,-20,o),
(183,10,o),
(183,45,cs),
(183,69,o),
(170,103,o),
(132,103,cs),
(85,103,o),
(65,61,o),
(65,36,cs),
(65,1,o),
(93,-19,o),
(123,-20,cs)
);
}
);
userData = {
com.hugojourdan.ColorFlow = {
"0" = 0;
"1" = 0;
"10" = 0;
"11" = 0;
"2" = 0;
"3" = 0;
"4" = 0;
"5" = 0;
"6" = 0;
"7" = 0;
"8" = 0;
"9" = 0;
};
};
width = 263.7;
}
);
unicode = 46;
}
{
glyphname = slash;
kernLeft = slash;
kernRight = slash;
layers = (
{
layerId = m01;
shapes = (
{
closed = 1;
nodes = (
(224,591,o),
(81,132,o),
(15,-100,cs),
(9,-120,o),
(10,-129,o),
(19,-131,cs),
(29,-134,o),
(38,-130,o),
(44,-110,cs),
(110,122,o),
(253,581,o),
(339,809,cs),
(346,827,o),
(343,835,o),
(334,837,cs),
(323,840,o),
(317,837,o),
(310,819,cs)
);
}
);
userData = {
com.hugojourdan.ColorFlow = {
"0" = 0;
"1" = 0;
"10" = 0;
"11" = 0;
"2" = 0;
"3" = 0;
"4" = 0;
"5" = 0;
"6" = 0;
"7" = 0;
"8" = 0;
"9" = 0;
};
};
width = 350;
},
{
layerId = m003;
shapes = (
{
closed = 1;
nodes = (
(202,603,o),
(59,144,o),
(3,-53,cs),
(-13,-108,o),
(8,-136,o),
(48,-147,cs),
(89,-158,o),
(135,-147,o),
(149,-94,cs),
(204,112,o),
(345,563,o),
(415,739,cs),
(436,792,o),
(422,828,o),
(384,842,cs),
(332,862,o),
(295,849,o),
(275,795,cs)
);
}
);
userData = {
com.hugojourdan.ColorFlow = {
"0" = 0;
"1" = 0;
"10" = 0;
"11" = 0;
"2" = 0;
"3" = 0;
"4" = 0;
"5" = 0;
"6" = 0;
"7" = 0;
"8" = 0;
"9" = 0;
};
};
width = 416;
},
{
layerId = "5FC9277C-B92C-4C3C-88AB-70E16AEC7C11";
shapes = (
{
closed = 1;
nodes = (
(227,597,o),
(84,138,o),
(20,-86,cs),
(12,-114,o),
(28,-133,o),
(51,-140,cs),
(72,-145,o),
(97,-138,o),
(105,-110,cs),
(169,115,o),
(312,573,o),
(395,789,cs),
(405,817,o),
(390,837,o),
(367,843,cs),
(345,850,o),
(320,843,o),
(311,814,cs)
);
}
);
userData = {
com.hugojourdan.ColorFlow = {
"0" = 0;
"1" = 0;
"10" = 0;
"11" = 0;
"2" = 0;
"3" = 0;
"4" = 0;
"5" = 0;
"6" = 0;
"7" = 0;
"8" = 0;
"9" = 0;
};
};
width = 409.7;
}
);
unicode = 47;
}
{
color = 4;
glyphname = one;
kernLeft = one;
kernRight = one;
layers = (
{
layerId = m01;
shapes = (
{
closed = 1;
nodes = (
(181,581,o),
(255,630,o),
(343,730,c),
(323,724,l),
(258,458,o),
(252,290,o),
(252,58,cs),
(252,8,o),
(259,-11,o),
(276,-11,cs),
(287,-11,o),
(292,-6,o),
(290,12,cs),
(285,70,o),
(284,111,o),
(284,182,cs),
(284,370,o),
(314,565,o),
(358,736,cs),
(360,745,o),
(362,754,o),
(362,759,cs),
(362,767,o),
(356,773,o),
(347,773,cs),
(340,773,o),
(334,771,o),
(327,761,cs),
(266,677,o),
(158,599,o),
(93,568,cs),
(82,563,o),
(78,557,o),
(78,551,cs),
(78,544,o),
(83,536,o),
(91,536,cs),
(95,536,o),
(99,537,o),
(106,541,cs)
);
}
);
userData = {
com.hugojourdan.ColorFlow = {
"0" = 0;
"1" = 0;
"10" = 0;
"11" = 0;
"2" = 0;
"3" = 0;
"4" = 0;
"5" = 0;
"6" = 0;
"7" = 0;
"8" = 0;
"9" = 0;
};
};
width = 455;
},
{
background = {
shapes = (
{
closed = 1;
nodes = (
(215,537,o),
(308,612,o),
(380,704,c),
(357,717,o),
(334,730,o),
(312,744,c),
(262,575,o),
(236,400,o),
(234,225,c),
(236,205,o),
(233,169,o),
(233,133,cs),
(233,85,o),
(239,38,o),
(278,38,cs),
(299,39,o),
(320,56,o),
(318,79,cs),
(316,120,o),
(314,161,o),
(314,202,cs),
(314,273,o),
(338,466,o),
(335,466,cs),
(334,466,o),
(333,461,o),
(331,450,cs),
(329,439,l),
(326,420,l),
(326,420,o),
(367,642,o),
(390,722,cs),
(391,726,o),
(392,730,o),
(392,734,cs),
(392,756,o),
(370,773,o),
(349,773,cs),
(340,773,o),
(330,770,o),
(322,761,c),
(292,719,o),
(213,645,o),
(192,631,cs),
(154,602,o),
(113,576,o),
(70,554,cs),
(56,546,o),
(50,534,o),
(50,522,cs),
(50,500,o),
(68,478,o),
(91,478,cs),
(97,478,o),
(104,480,o),
(111,484,cs)
);
}
);
};
layerId = m003;
shapes = (
{
closed = 1;
nodes = (
(210,472,o),
(259,503,o),
(319,563,c),
(272,649,l),
(221,458,o),
(209,306,o),
(209,83,cs),
(209,35,o),
(219,-11,o),
(302,-11,cs),
(385,-11,o),
(397,22,o),
(396,45,cs),
(393,86,o),
(391,127,o),
(391,198,cs),
(391,386,o),
(415,508,o),
(456,655,cs),
(462,676,o),
(471,693,o),
(471,713,cs),
(471,758,o),
(412,775,o),
(357,775,cs),
(330,775,o),
(320,770,o),
(304,753,cs),
(240,687,o),
(153,631,o),
(60,584,cs),
(46,576,o),
(29,565,o),
(29,536,cs),
(29,497,o),
(51,424,o),
(92,424,cs),
(109,424,o),
(122,428,o),
(136,435,cs)
);
}
);
userData = {
com.hugojourdan.ColorFlow = {
"0" = 0;
"1" = 0;
"10" = 0;
"11" = 0;
"2" = 0;
"3" = 0;
"4" = 0;
"5" = 0;
"6" = 0;
"7" = 0;
"8" = 0;
"9" = 0;
};
};
width = 486;
},
{
layerId = "5FC9277C-B92C-4C3C-88AB-70E16AEC7C11";
shapes = (
{
closed = 1;
nodes = (
(179,517,o),
(247,565,o),
(307,625,c),
(281,649,l),
(230,458,o),
(221,306,o),
(221,83,cs),
(221,35,o),
(228,-12,o),
(271,-11,cs),
(299,-11,o),
(319,8,o),
(318,31,cs),
(315,72,o),
(313,113,o),
(313,184,cs),
(313,372,o),
(341,549,o),
(385,707,cs),
(388,717,o),
(391,726,o),
(391,732,cs),
(391,756,o),
(365,773,o),
(341,773,cs),
(330,773,o),
(319,771,o),
(311,760,cs),
(250,680,o),
(153,604,o),
(60,557,cs),
(46,549,o),
(39,537,o),
(39,523,cs),
(39,500,o),
(57,473,o),
(82,473,cs),
(89,473,o),
(97,475,o),
(105,479,cs)
);
}
);
userData = {
com.hugojourdan.ColorFlow = {
"0" = 0;
"1" = 0;
"10" = 0;
"11" = 0;
"2" = 0;
"3" = 0;
"4" = 0;
"5" = 0;
"6" = 0;
"7" = 0;
"8" = 0;
"9" = 0;
};
};
width = 449.1;
}
);
unicode = 49;
}
{
color = 4;
glyphname = two;
kernLeft = two;
kernRight = two;
layers = (
{
layerId = m01;
shapes = (
{
closed = 1;
nodes = (
(69,543,o),
(71,536,o),
(83,536,cs),
(92,536,o),
(98,539,o),
(99,550,cs),
(114,661,o),
(212,739,o),
(315,739,cs),
(454,739,o),
(540,649,o),
(540,513,cs),
(540,356,o),
(319,159,o),
(106,29,cs),
(91,20,o),
(88,14,o),
(88,6,cs),
(88,-3,o),
(94,-12,o),
(104,-12,cs),
(114,-12,o),
(122,-9,o),
(138,5,c),
(157,10,o),
(250,19,o),
(303,19,cs),
(410,19,o),
(512,2,o),
(582,-10,cs),
(594,-12,o),
(603,-8,o),
(603,3,cs),
(603,13,o),
(598,18,o),
(587,20,cs),
(502,36,o),
(323,59,o),
(184,43,c),
(422,207,o),
(573,364,o),
(573,519,cs),
(573,666,o),
(470,769,o),
(313,769,cs),
(202,769,o),
(80,675,o),
(69,556,c)
);
}
);
userData = {
com.hugojourdan.ColorFlow = {
"0" = 0;
"1" = 0;
"10" = 0;
"11" = 0;
"2" = 0;
"3" = 0;
"4" = 0;
"5" = 0;
"6" = 0;
"7" = 0;
"8" = 0;
"9" = 0;
};
};
width = 669;
},
{
background = {
shapes = (
{
closed = 1;
nodes = (
(141,558,ls),
(141,562,o),
(140,551,o),
(140,547,c),
(142,561,o),
(145,574,o),
(151,587,cs),
(149,583,o),
(148,580,o),
(146,577,c),
(152,590,o),
(160,602,o),
(168,614,cs),
(178,626,o),
(212,659,o),
(254,675,cs),
(251,674,o),
(248,673,o),
(244,671,c),
(262,678,o),
(280,684,o),
(298,687,c),
(295,686,o),
(291,686,o),
(287,685,c),
(302,687,o),
(317,688,o),
(332,688,cs),
(342,688,o),
(353,687,o),
(363,686,c),
(359,686,o),
(356,687,o),
(352,687,c),
(374,684,o),
(395,679,o),
(415,670,cs),
(411,672,o),
(408,673,o),
(405,674,cs),
(420,668,o),
(435,660,o),
(449,650,cs),
(455,645,o),
(447,650,o),
(446,652,c),
(478,624,o),
(484,616,o),
(502,578,cs),
(501,581,o),
(500,584,o),
(498,587,c),
(506,570,o),
(511,551,o),
(513,532,c),
(513,536,o),
(512,540,o),
(512,543,cs),
(513,533,o),
(514,523,o),
(514,513,cs),
(514,503,o),
(513,494,o),
(512,484,c),
(513,494,l),
(510,473,o),
(504,451,o),
(496,431,cs),
(497,434,o),
(499,437,o),
(500,441,c),
(455,346,o),
(351,243,o),
(271,178,cs),
(232,148,o),
(155,98,o),
(101,64,c),
(87,52,o),
(81,39,o),
(81,28,cs),
(81,7,o),
(100,-10,o),
(124,-10,cs),
(137,-10,o),
(151,-5,o),
(164,6,c),
(161,4,o),
(158,3,o),
(154,1,cs),
(178,11,o),
(204,17,o),
(229,20,cs),
(226,20,o),
(222,19,o),
(218,19,c),
(247,23,o),
(275,24,o),
(304,24,cs),
(369,24,o),
(562,3,o),
(498,9,cs),
(487,10,l),
(517,10,o),
(551,-5,o),
(583,-5,cs),
(597,-5,o),
(610,-2,o),
(622,7,c),
(630,15,o),
(634,25,o),
(634,34,cs),
(634,58,o),
(611,80,o),
(583,77,cs),
(587,77,o),
(590,76,o),
(594,76,cs),
(501,86,o),
(401,106,o),
(304,106,cs),
(234,106,o),
(165,96,o),
(101,64,c),
(115,41,o),
(129,18,o),
(142,-6,c),
(307,93,o),
(594,301,o),
(594,516,cs),
(594,523,o),
(594,531,o),
(593,539,cs),
(584,682,o),
(454,769,o),
(323,769,cs),
(266,769,o),
(208,752,o),
(161,716,cs),
(108,678,o),
(66,622,o),
(60,556,c),
(60,530,o),
(80,516,o),
(100,516,cs),
(120,516,o),
(141,530,o),
(141,556,cs)
);
}
);
};
layerId = m003;
shapes = (
{
closed = 1;
nodes = (
(45,510,o),
(70,488,o),
(125,488,cs),
(186,488,o),
(201,508,o),
(207,530,cs),
(223,584,o),
(262,621,o),
(320,621,cs),
(391,621,o),
(426,584,o),
(426,499,cs),
(426,371,o),
(256,244,o),
(99,142,cs),
(61,118,o),
(50,84,o),
(65,38,cs),
(77,2,o),
(104,-15,o),
(133,-15,cs),
(173,-15,o),
(203,3,o),
(222,19,c),
(248,24,o),
(302,24,o),
(341,23,cs),
(434,20,o),
(511,4,o),
(572,-9,cs),
(622,-19,o),
(660,-2,o),
(674,61,cs),
(687,120,o),
(661,145,o),
(608,159,cs),
(555,173,o),
(502,182,o),
(391,181,c),
(486,261,o),
(614,364,o),
(614,524,cs),
(614,676,o),
(482,769,o),
(332,769,cs),
(166,769,o),
(56,655,o),
(45,545,c)
);
}
);
userData = {
com.hugojourdan.ColorFlow = {
"0" = 0;
"1" = 0;
"10" = 0;
"11" = 0;
"2" = 0;
"3" = 0;
"4" = 0;
"5" = 0;
"6" = 0;
"7" = 0;
"8" = 0;
"9" = 0;
};
};
width = 699;
},
{
layerId = "5FC9277C-B92C-4C3C-88AB-70E16AEC7C11";
shapes = (
{
closed = 1;
nodes = (
(67,528,o),
(87,513,o),
(111,513,cs),
(134,513,o),
(151,526,o),
(155,548,cs),
(173,632,o),
(257,684,o),
(333,684,cs),
(443,684,o),
(513,607,o),
(513,512,cs),
(513,368,o),
(304,181,o),
(111,66,cs),
(93,56,o),
(86,39,o),
(88,25,cs),
(89,2,o),
(109,-15,o),
(133,-15,cs),
(148,-15,o),
(163,-10,o),
(182,6,c),
(201,11,o),
(264,20,o),
(316,19,cs),
(421,19,o),
(521,1,o),
(590,-10,cs),
(617,-14,o),
(645,3,o),
(646,32,cs),
(647,58,o),
(629,74,o),
(598,79,cs),
(513,93,o),
(418,107,o),
(307,105,c),
(462,213,o),
(604,364,o),
(604,524,cs),
(604,676,o),
(472,769,o),
(332,769,cs),
(202,769,o),
(78,673,o),
(67,555,c)
);
}
);
userData = {
com.hugojourdan.ColorFlow = {
"0" = 0;
"1" = 0;
"10" = 0;
"11" = 0;
"2" = 0;
"3" = 0;
"4" = 0;
"5" = 0;
"6" = 0;
"7" = 0;
"8" = 0;
"9" = 0;
};
};
width = 708;
}
);
unicode = 50;
}
{
color = 4;
glyphname = six;
kernLeft = six;
kernRight = six;
layers = (
{
layerId = m01;
shapes = (
{
closed = 1;
nodes = (
(267,707,o),
(110,496,o),
(110,283,cs),
(110,113,o),
(220,-10,o),
(371,-10,cs),
(508,-10,o),
(625,100,o),
(625,251,cs),
(625,377,o),
(524,468,o),
(384,468,cs),
(294,468,o),
(176,417,o),
(104,346,cs),
(96,339,o),
(93,334,o),
(92,328,cs),
(92,320,o),
(98,314,o),
(105,314,cs),
(109,314,o),
(113,315,o),
(117,319,cs),
(181,388,o),
(293,438,o),
(384,438,cs),
(511,438,o),
(593,357,o),
(593,246,cs),
(593,115,o),
(489,20,o),
(370,20,cs),
(238,20,o),
(142,134,o),
(142,292,cs),
(142,485,o),
(289,680,o),
(492,756,cs),
(509,762,o),
(510,767,o),
(510,773,cs),
(510,780,o),
(506,787,o),
(495,787,cs),
(492,787,o),
(488,787,o),
(483,785,cs)
);
}
);
userData = {
com.hugojourdan.ColorFlow = {
"0" = 0;
"1" = 0;
"10" = 0;
"11" = 0;
"2" = 0;
"3" = 0;
"4" = 0;
"5" = 0;
"6" = 0;
"7" = 0;
"8" = 0;
"9" = 0;
};
};
width = 698;
},
{
layerId = m003;
shapes = (
{
closed = 1;
nodes = (
(264,699,o),
(100,512,o),
(100,283,cs),
(100,134,o),
(222,-10,o),
(381,-10,cs),
(556,-10,o),
(674,117,o),
(674,251,cs),
(674,364,o),
(597,495,o),
(421,495,cs),
(310,495,o),
(182,427,o),
(100,369,cs),
(71,349,o),
(20,313,o),
(20,270,cs),
(20,217,o),
(49,179,o),
(83,179,cs),
(110,179,o),
(136,215,o),
(147,229,cs),
(216,312,o),
(301,356,o),
(390,356,cs),
(454,356,o),
(494,317,o),
(494,261,cs),
(494,195,o),
(452,146,o),
(381,146,cs),
(308,146,o),
(277,230,o),
(277,292,cs),
(277,497,o),
(433,593,o),
(577,650,cs),
(597,658,o),
(621,670,o),
(621,707,cs),
(621,778,o),
(586,800,o),
(546,800,cs),
(522,800,o),
(498,792,o),
(487,788,cs)
);
}
);
userData = {
com.hugojourdan.ColorFlow = {
"0" = 0;
"1" = 0;
"10" = 0;
"11" = 0;
"2" = 0;
"3" = 0;
"4" = 0;
"5" = 0;
"6" = 0;
"7" = 0;
"8" = 0;
"9" = 0;
};
};
width = 705;
},
{
layerId = "5FC9277C-B92C-4C3C-88AB-70E16AEC7C11";
shapes = (
{
closed = 1;
nodes = (
(289,712,o),
(106,512,o),
(106,283,cs),
(106,134,o),
(228,-10,o),
(378,-10,cs),
(533,-10,o),
(645,117,o),
(645,251,cs),
(645,364,o),
(558,492,o),
(394,492,cs),
(285,492,o),
(169,425,o),
(96,357,cs),
(69,333,o),
(55,312,o),
(55,292,cs),
(55,266,o),
(72,248,o),
(94,248,cs),
(108,248,o),
(121,256,o),
(131,271,cs),
(186,354,o),
(293,408,o),
(391,408,cs),
(498,408,o),
(554,323,o),
(554,248,cs),
(554,166,o),
(481,76,o),
(377,76,cs),
(264,76,o),
(196,191,o),
(196,292,cs),
(196,497,o),
(379,647,o),
(523,704,cs),
(543,712,o),
(562,723,o),
(562,744,cs),
(562,771,o),
(542,791,o),
(517,791,cs),
(509,791,o),
(501,789,o),
(490,785,cs)
);
}
);
userData = {
com.hugojourdan.ColorFlow = {
"0" = 0;
"1" = 0;
"10" = 0;
"11" = 0;
"2" = 0;
"3" = 0;
"4" = 0;
"5" = 0;
"6" = 0;
"7" = 0;
"8" = 0;
"9" = 0;
};
};
width = 700.5;
}
);
unicode = 54;
}
{
color = 4;
glyphname = seven;
kernLeft = seven;
kernRight = seven;
layers = (
{
layerId = m01;
shapes = (
{
closed = 1;
nodes = (
(240,715,o),
(379,723,o),
(516,745,c),
(508,755,l),
(361,492,o),
(246,253,o),
(141,-1,cs),
(139,-6,o),
(137,-10,o),
(137,-13,cs),
(137,-22,o),
(146,-27,o),
(153,-27,cs),
(160,-27,o),
(166,-21,o),
(172,-8,cs),
(270,228,o),
(374,450,o),
(537,745,cs),
(540,750,o),
(542,754,o),
(542,758,cs),
(542,769,o),
(535,777,o),
(525,776,cs),
(379,753,o),
(270,745,o),
(89,745,cs),
(80,745,o),
(75,738,o),
(74,730,cs),
(74,723,o),
(79,715,o),
(91,715,cs)
);
}
);
userData = {
com.hugojourdan.ColorFlow = {
"0" = 0;
"1" = 0;
"10" = 0;
"11" = 0;
"2" = 0;
"3" = 0;
"4" = 0;
"5" = 0;
"6" = 0;
"7" = 0;
"8" = 0;
"9" = 0;
};
};
width = 578;
},
{
layerId = m003;
shapes = (
{
closed = 1;
nodes = (
(219,565,o),
(316,571,o),
(453,593,c),
(409,720,l),
(265,478,o),
(171,296,o),
(86,65,cs),
(83,58,o),
(80,41,o),
(80,33,cs),
(80,12,o),
(93,-27,o),
(167,-27,cs),
(211,-27,o),
(252,-17,o),
(266,22,cs),
(343,234,o),
(435,426,o),
(568,667,cs),
(580,689,o),
(582,706,o),
(582,722,cs),
(582,747,o),
(567,783,o),
(507,775,cs),
(374,757,o),
(213,748,o),
(86,748,cs),
(51,748,o),
(24,725,o),
(24,662,cs),
(24,588,o),
(44,567,o),
(89,566,cs)
);
}
);
userData = {
com.hugojourdan.ColorFlow = {
"0" = 0;
"1" = 0;
"10" = 0;
"11" = 0;
"2" = 0;
"3" = 0;
"4" = 0;
"5" = 0;
"6" = 0;
"7" = 0;
"8" = 0;
"9" = 0;
};
};
width = 576;
},
{
layerId = "5FC9277C-B92C-4C3C-88AB-70E16AEC7C11";
shapes = (
{
closed = 1;
nodes = (
(233,655,o),
(368,665,o),
(505,687,c),
(465,750,l),
(321,494,o),
(211,268,o),
(116,37,cs),
(113,30,o),
(110,22,o),
(110,14,cs),
(110,-7,o),
(127,-27,o),
(156,-27,cs),
(173,-27,o),
(189,-21,o),
(196,-4,cs),
(298,239,o),
(397,452,o),
(538,708,cs),
(542,715,o),
(544,723,o),
(544,731,cs),
(544,756,o),
(529,778,o),
(496,772,cs),
(370,753,o),
(211,744,o),
(84,745,cs),
(58,745,o),
(45,725,o),
(45,701,cs),
(45,675,o),
(58,657,o),
(86,657,cs)
);
}
);
userData = {
com.hugojourdan.ColorFlow = {
"0" = 0;
"1" = 0;
"10" = 0;
"11" = 0;
"2" = 0;
"3" = 0;
"4" = 0;
"5" = 0;
"6" = 0;
"7" = 0;
"8" = 0;
"9" = 0;
};
};
width = 568.8;
}
);
unicode = 55;
}
{
color = 4;
glyphname = nine;
kernLeft = nine;
kernRight = nine;
layers = (
{
background = {
shapes = (
{
closed = 1;
nodes = (
(420,394,o),
(346,362,o),
(280,362,cs),
(204,362,o),
(145,429,o),
(145,513,cs),
(145,612,o),
(207,694,o),
(285,694,cs),
(391,694,o),
(439,571,o),
(439,482,cs),
(439,301,o),
(289,101,o),
(134,66,cs),
(115,62,o),
(105,45,o),
(105,29,cs),
(105,4,o),
(123,-17,o),
(165,-7,cs),
(357,40,o),
(520,257,o),
(520,490,cs),
(520,622,o),
(431,772,o),
(289,772,cs),
(152,772,o),
(65,649,o),
(65,512,cs),
(65,394,o),
(146,284,o),
(278,284,cs),
(348,284,o),
(420,325,o),
(472,377,c),
(453,457,l)
);
}
);
};
layerId = m01;
shapes = (
{
closed = 1;
nodes = (
(452,364,o),
(369,314,o),
(288,314,cs),
(191,314,o),
(115,402,o),
(115,513,cs),
(115,646,o),
(190,742,o),
(293,742,cs),
(410,742,o),
(487,633,o),
(487,482,cs),
(487,254,o),
(343,63,o),
(148,20,cs),
(139,18,o),
(135,13,o),
(135,6,cs),
(135,-6,o),
(144,-12,o),
(155,-9,cs),
(368,43,o),
(518,249,o),
(518,490,cs),
(518,654,o),
(425,772,o),
(297,772,cs),
(173,772,o),
(83,663,o),
(83,512,cs),
(83,394,o),
(160,284,o),
(286,284,cs),
(359,284,o),
(448,327,o),
(492,396,c),
(485,434,l)
);
}
);
userData = {
com.hugojourdan.ColorFlow = {
"0" = 0;
"1" = 0;
"10" = 0;
"11" = 0;
"2" = 0;
"3" = 0;
"4" = 0;
"5" = 0;
"6" = 0;
"7" = 0;
"8" = 0;
"9" = 0;
};
};
width = 593;
},
{
background = {
shapes = (
{
closed = 1;
nodes = (
(419,397,o),
(347,362,o),
(288,362,cs),
(212,362,o),
(158,429,o),
(158,513,cs),
(158,602,o),
(218,694,o),
(293,694,cs),
(399,694,o),
(447,571,o),
(447,482,cs),
(447,301,o),
(288,89,o),
(142,69,cs),
(123,66,o),
(113,48,o),
(113,32,cs),
(113,11,o),
(128,-11,o),
(152,-11,cs),
(155,-11,o),
(164,-10,o),
(173,-7,cs),
(368,46,o),
(528,257,o),
(528,490,cs),
(528,622,o),
(439,765,o),
(297,772,c),
(163,772,o),
(78,639,o),
(78,512,cs),
(78,394,o),
(154,284,o),
(286,284,cs),
(378,284,o),
(473,342,o),
(523,425,cs),
(527,432,o),
(529,439,o),
(529,446,cs),
(529,468,o),
(515,476,o),
(493,476,cs),
(481,476,o),
(471,471,o),
(461,457,cs)
);
}
);
};
layerId = m003;
shapes = (
{
closed = 1;
nodes = (
(443,455,o),
(369,423,o),
(303,423,cs),
(242,423,o),
(210,470,o),
(210,541,cs),
(210,587,o),
(243,626,o),
(287,626,cs),
(353,626,o),
(389,571,o),
(389,482,cs),
(389,301,o),
(275,182,o),
(120,135,cs),
(101,129,o),
(85,114,o),
(85,83,cs),
(85,17,o),
(135,-27,o),
(195,-17,cs),
(388,15,o),
(567,257,o),
(567,490,cs),
(567,635,o),
(469,772,o),
(297,772,cs),
(128,772,o),
(29,662,o),
(29,512,cs),
(29,394,o),
(120,284,o),
(286,284,cs),
(356,284,o),
(428,325,o),
(480,377,c),
(476,518,l)
);
}
);
userData = {
com.hugojourdan.ColorFlow = {
"0" = 0;
"1" = 0;
"10" = 0;
"11" = 0;
"2" = 0;
"3" = 0;
"4" = 0;
"5" = 0;
"6" = 0;
"7" = 0;
"8" = 0;
"9" = 0;
};
};
width = 600;
},
{
layerId = "5FC9277C-B92C-4C3C-88AB-70E16AEC7C11";
shapes = (
{
closed = 1;
nodes = (
(425,400,o),
(351,368,o),
(285,368,cs),
(211,368,o),
(154,433,o),
(154,516,cs),
(154,610,o),
(213,687,o),
(288,687,cs),
(390,687,o),
(437,571,o),
(437,482,cs),
(437,301,o),
(290,109,o),
(135,73,cs),
(116,69,o),
(106,52,o),
(106,34,cs),
(106,5,o),
(127,-18,o),
(171,-8,cs),
(363,38,o),
(527,257,o),
(527,490,cs),
(527,623,o),
(438,772,o),
(293,772,cs),
(152,772,o),
(64,650,o),
(64,512,cs),
(64,394,o),
(146,284,o),
(282,284,cs),
(352,284,o),
(424,325,o),
(476,377,c),
(458,463,l)
);
}
);
userData = {
com.hugojourdan.ColorFlow = {
"0" = 0;
"1" = 0;
"10" = 0;
"11" = 0;
"2" = 0;
"3" = 0;
"4" = 0;
"5" = 0;
"6" = 0;
"7" = 0;
"8" = 0;
"9" = 0;
};
};
width = 584.7;
}
);
unicode = 57;
}
{
glyphname = colon;
kernLeft = colon;
kernRight = colon;
layers = (
{
background = {
shapes = (
{
closed = 1;
nodes = (
(170,510,o),
(142,538,o),
(110,538,cs),
(84,538,o),
(63,520,o),
(63,498,cs),
(63,460,o),
(90,435,o),
(131,435,cs),
(154,435,o),
(170,453,o),
(170,479,cs)
);
},
{
closed = 1;
nodes = (
(71,93,o),
(48,69,o),
(48,39,cs),
(48,12,o),
(73,-9,o),
(106,-9,cs),
(128,-9,o),
(149,15,o),
(149,40,cs),
(149,70,o),
(127,93,o),
(99,93,cs)
);
}
);
};
layerId = m01;
shapes = (
{
closed = 1;
nodes = (
(145,444,o),
(159,462,o),
(159,482,cs),
(159,500,o),
(147,514,o),
(126,514,cs),
(105,514,o),
(96,496,o),
(96,477,cs),
(96,454,o),
(110,444,o),
(125,444,cs)
);
},
{
closed = 1;
nodes = (
(127,-11,o),
(142,5,o),
(142,25,cs),
(142,43,o),
(130,60,o),
(107,60,cs),
(88,60,o),
(79,42,o),
(79,26,cs),
(79,3,o),
(94,-11,o),
(109,-11,cs)
);
}
);
userData = {
com.hugojourdan.ColorFlow = {
"0" = 0;
"1" = 0;
"10" = 0;
"11" = 0;
"2" = 0;
"3" = 0;
"4" = 0;
"5" = 0;
"6" = 0;
"7" = 0;
"8" = 0;
"9" = 0;
};
};
width = 264;
},
{
background = {
shapes = (
{
closed = 1;
nodes = (
(212,510,o),
(184,538,o),
(152,538,cs),
(126,538,o),
(105,520,o),
(105,498,cs),
(105,460,o),
(132,435,o),
(173,435,cs),
(196,435,o),
(212,453,o),
(212,479,cs)
);
},
{
closed = 1;
nodes = (
(113,93,o),
(90,69,o),
(90,39,cs),
(90,12,o),
(115,-9,o),
(148,-9,cs),
(170,-9,o),
(191,15,o),
(191,40,cs),
(191,70,o),
(169,93,o),
(141,93,cs)
);
}
);
};
layerId = m003;
shapes = (
{
closed = 1;
nodes = (
(208,356,o),
(255,406,o),
(255,450,cs),
(255,510,o),
(220,555,o),
(154,555,cs),
(77,555,o),
(45,509,o),
(45,462,cs),
(45,394,o),
(99,356,o),
(162,356,cs)
);
},
{
closed = 1;
nodes = (
(205,-20,o),
(255,29,o),
(255,89,cs),
(255,134,o),
(210,179,o),
(141,179,cs),
(64,179,o),
(35,134,o),
(35,70,cs),
(35,19,o),
(82,-20,o),
(142,-20,cs)
);
}
);
userData = {
com.hugojourdan.ColorFlow = {
"0" = 0;
"1" = 0;
"10" = 0;
"11" = 0;
"2" = 0;
"3" = 0;
"4" = 0;
"5" = 0;
"6" = 0;
"7" = 0;
"8" = 0;
"9" = 0;
};
};
width = 296;
},
{
layerId = "5FC9277C-B92C-4C3C-88AB-70E16AEC7C11";
shapes = (
{
closed = 1;
nodes = (
(189,427,o),
(208,448,o),
(208,476,cs),
(208,510,o),
(180,540,o),
(144,540,cs),
(113,540,o),
(91,519,o),
(91,494,cs),
(91,453,o),
(121,427,o),
(164,427,cs)
);
},
{
closed = 1;
nodes = (
(165,-10,o),
(189,16,o),
(189,45,cs),
(189,76,o),
(165,102,o),
(133,102,cs),
(100,102,o),
(76,76,o),
(76,42,cs),
(76,13,o),
(104,-10,o),
(139,-10,cs)
);
}
);
userData = {
com.hugojourdan.ColorFlow = {
"0" = 0;
"1" = 0;
"10" = 0;
"11" = 0;
"2" = 0;
"3" = 0;
"4" = 0;
"5" = 0;
"6" = 0;
"7" = 0;
"8" = 0;
"9" = 0;
};
};
width = 285.2;
}
);
unicode = 58;
}
{
glyphname = semicolon;
kernLeft = colon;
kernRight = colon;
layers = (
{
layerId = m01;
shapes = (
{
closed = 1;
nodes = (
(72,-159,o),
(78,-156,o),
(88,-140,cs),
(130,-70,o),
(138,-23,o),
(136,50,cs),
(135,72,o),
(129,82,o),
(114,82,cs),
(102,82,o),
(93,74,o),
(95,50,cs),
(101,-25,o),
(85,-79,o),
(59,-121,cs),
(52,-131,o),
(48,-138,o),
(48,-145,cs),
(48,-153,o),
(54,-159,o),
(65,-159,cs)
);
},
{
closed = 1;
nodes = (
(148,442,o),
(161,460,o),
(161,480,cs),
(161,498,o),
(150,514,o),
(129,514,cs),
(108,514,o),
(99,494,o),
(99,475,cs),
(99,452,o),
(113,442,o),
(128,442,cs)
);
}
);
userData = {
com.hugojourdan.ColorFlow = {
"0" = 0;
"1" = 0;
"10" = 0;
"11" = 0;
"2" = 0;
"3" = 0;
"4" = 0;
"5" = 0;
"6" = 0;
"7" = 0;
"8" = 0;
"9" = 0;
};
};
width = 266;
},
{
layerId = m003;
shapes = (
{
closed = 1;
nodes = (
(106,-179,o),
(124,-167,o),
(132,-158,cs),
(184,-103,o),
(227,-8,o),
(227,83,cs),
(227,151,o),
(194,169,o),
(142,169,cs),
(97,169,o),
(65,155,o),
(67,83,cs),
(69,9,o),
(56,-28,o),
(31,-78,cs),
(25,-89,o),
(16,-107,o),
(16,-124,cs),
(16,-148,o),
(56,-179,o),
(84,-179,cs)
);
},
{
closed = 1;
nodes = (
(209,356,o),
(256,406,o),
(256,466,cs),
(256,520,o),
(221,555,o),
(155,555,cs),
(78,555,o),
(46,509,o),
(46,445,cs),
(46,394,o),
(100,356,o),
(146,356,cs)
);
}
);
userData = {
com.hugojourdan.ColorFlow = {
"0" = 0;
"1" = 0;
"10" = 0;
"11" = 0;
"2" = 0;
"3" = 0;
"4" = 0;
"5" = 0;
"6" = 0;
"7" = 0;
"8" = 0;
"9" = 0;
};
};
width = 296;
},
{
layerId = "5FC9277C-B92C-4C3C-88AB-70E16AEC7C11";
shapes = (
{
closed = 1;
nodes = (
(86,-182,o),
(100,-179,o),
(108,-169,cs),
(157,-109,o),
(183,-18,o),
(178,63,cs),
(177,88,o),
(158,108,o),
(129,108,cs),
(103,108,o),
(86,92,o),
(86,63,cs),
(86,-16,o),
(74,-65,o),
(52,-102,cs),
(45,-114,o),
(37,-131,o),
(37,-144,cs),
(37,-165,o),
(53,-182,o),
(76,-182,cs)
);
},
{
closed = 1;
nodes = (
(182,413,o),
(208,443,o),
(208,478,cs),
(208,502,o),
(196,535,o),
(158,535,cs),
(110,535,o),
(92,495,o),
(92,469,cs),
(88,435,o),
(120,414,o),
(149,413,cs)
);
}
);
userData = {
com.hugojourdan.ColorFlow = {
"0" = 0;
"1" = 0;
"10" = 0;
"11" = 0;
"2" = 0;
"3" = 0;
"4" = 0;
"5" = 0;
"6" = 0;
"7" = 0;
"8" = 0;
"9" = 0;
};
};
width = 285.2;
}
);
unicode = 59;
}
{
glyphname = greater;
kernLeft = greater;
kernRight = greater;
layers = (
{
layerId = m01;
shapes = (
{
closed = 1;
nodes = (
(166,52,o),
(167,53,o),
(172,56,cs),
(321,160,o),
(498,273,o),
(531,299,cs),
(556,319,o),
(558,321,o),
(558,327,cs),
(558,334,o),
(556,338,o),
(543,348,cs),
(487,389,o),
(328,491,o),
(185,585,cs),
(181,587,o),
(176,589,o),
(172,589,cs),
(164,589,o),
(158,582,o),
(158,575,cs),
(158,570,o),
(161,566,o),
(169,561,cs),
(325,465,o),
(498,347,o),
(525,328,c),
(443,271,o),
(272,156,o),
(156,79,cs),
(152,76,o),
(151,73,o),
(151,69,cs),
(151,61,o),
(157,52,o),
(164,52,cs)
);
}
);
userData = {
com.hugojourdan.ColorFlow = {
"0" = 0;
"1" = 0;
"10" = 0;
"11" = 0;
"2" = 0;
"3" = 0;
"4" = 0;
"5" = 0;
"6" = 0;
"7" = 0;
"8" = 0;
"9" = 0;
};
};
width = 650;
},
{
layerId = m003;
shapes = (
{
closed = 1;
nodes = (
(191,18,o),
(211,29,o),
(228,42,cs),
(347,125,o),
(512,228,o),
(560,266,cs),
(583,285,o),
(594,304,o),
(594,327,cs),
(594,352,o),
(586,370,o),
(569,383,cs),
(503,432,o),
(357,530,o),
(258,594,cs),
(228,613,o),
(206,626,o),
(177,626,cs),
(145,626,o),
(110,579,o),
(110,541,cs),
(110,511,o),
(122,494,o),
(145,480,cs),
(227,431,o),
(326,372,o),
(394,328,c),
(310,273,o),
(202,206,o),
(127,157,cs),
(108,145,o),
(99,129,o),
(99,101,cs),
(99,64,o),
(139,18,o),
(168,18,cs)
);
}
);
userData = {
com.hugojourdan.ColorFlow = {
"0" = 0;
"1" = 0;
"10" = 0;
"11" = 0;
"2" = 0;
"3" = 0;
"4" = 0;
"5" = 0;
"6" = 0;
"7" = 0;
"8" = 0;
"9" = 0;
};
};
width = 650;
},
{
layerId = "5FC9277C-B92C-4C3C-88AB-70E16AEC7C11";
shapes = (
{
closed = 1;
nodes = (
(186,48,o),
(200,57,o),
(213,66,cs),
(332,149,o),
(497,252,o),
(530,279,cs),
(556,299,o),
(566,310,o),
(566,327,cs),
(566,341,o),
(558,356,o),
(541,369,cs),
(488,408,o),
(343,505,o),
(244,569,cs),
(218,585,o),
(204,596,o),
(183,596,cs),
(159,596,o),
(143,576,o),
(143,555,cs),
(143,541,o),
(153,527,o),
(165,520,cs),
(276,454,o),
(412,368,o),
(469,328,c),
(385,270,o),
(242,178,o),
(148,117,cs),
(139,111,o),
(132,99,o),
(132,88,cs),
(132,67,o),
(148,48,o),
(170,48,cs)
);
}
);
userData = {
com.hugojourdan.ColorFlow = {
"0" = 0;
"1" = 0;
"10" = 0;
"11" = 0;
"2" = 0;
"3" = 0;
"4" = 0;
"5" = 0;
"6" = 0;
"7" = 0;
"8" = 0;
"9" = 0;
};
};
width = 650;
}
);
unicode = 62;
}
{
glyphname = question;
kernLeft = question;
kernRight = question;
layers = (
{
background = {
shapes = (
{
closed = 1;
nodes = (
(227,199,o),
(231,205,o),
(232,219,cs),
(237,477,o),
(239,509,o),
(248,758,cs),
(249,772,o),
(244,778,o),
(232,778,cs),
(220,778,o),
(215,772,o),
(215,758,cs),
(211,614,o),
(200,268,o),
(198,230,cs),
(197,212,o),
(200,199,o),
(216,199,cs)
);
},
{
closed = 1;
nodes = (
(226,-11,o),
(239,7,o),
(239,32,cs),
(239,49,o),
(227,61,o),
(211,61,cs),
(191,61,o),
(177,45,o),
(177,24,cs),
(177,4,o),
(190,-11,o),
(208,-11,cs)
);
}
);
};
layerId = m01;
shapes = (
{
closed = 1;
nodes = (
(97,660,o),
(102,661,o),
(104,664,cs),
(156,732,o),
(216,743,o),
(276,743,cs),
(373,743,o),
(442,668,o),
(442,562,cs),
(442,446,o),
(356,360,o),
(236,360,cs),
(218,360,o),
(213,355,o),
(212,341,cs),
(206,218,ls),
(205,203,o),
(212,197,o),
(220,197,cs),
(229,197,o),
(236,201,o),
(237,218,cs),
(242,330,l),
(378,334,o),
(474,429,o),
(474,565,cs),
(474,686,o),
(393,773,o),
(281,773,cs),
(198,773,o),
(119,740,o),
(83,684,cs),
(81,680,o),
(80,677,o),
(80,674,cs),
(80,666,o),
(87,660,o),
(93,660,cs)
);
},
{
closed = 1;
nodes = (
(197,60,o),
(183,41,o),
(183,21,cs),
(183,3,o),
(198,-11,o),
(216,-11,cs),
(228,-11,o),
(247,0,o),
(247,31,cs),
(247,53,o),
(226,60,o),
(214,60,cs)
);
}
);
userData = {
com.hugojourdan.ColorFlow = {
"0" = 0;
"1" = 0;
"10" = 0;
"11" = 0;
"2" = 0;
"3" = 0;
"4" = 0;
"5" = 0;
"6" = 0;
"7" = 0;
"8" = 0;
"9" = 0;
};
};
width = 519;
},
{
background = {
shapes = (
{
closed = 1;
nodes = (
(262,239,o),
(288,258,o),
(290,299,cs),
(294,508,o),
(296,533,o),
(304,718,cs),
(306,759,o),
(281,778,o),
(228,778,cs),
(175,778,o),
(150,759,o),
(149,718,cs),
(146,620,o),
(135,345,o),
(133,320,cs),
(129,265,o),
(155,239,o),
(212,239,cs)
);
},
{
closed = 1;
nodes = (
(268,-18,o),
(308,22,o),
(308,78,cs),
(308,137,o),
(267,177,o),
(210,177,cs),
(152,177,o),
(107,138,o),
(107,84,cs),
(107,27,o),
(149,-18,o),
(207,-18,cs)
);
}
);
};
layerId = m003;
shapes = (
{
closed = 1;
nodes = (
(122,592,o),
(135,595,o),
(149,608,cs),
(173,630,o),
(201,645,o),
(251,645,cs),
(302,645,o),
(345,612,o),
(345,545,cs),
(345,459,o),
(293,425,o),
(225,425,cs),
(169,425,o),
(153,394,o),
(151,351,cs),
(148,293,ls),
(145,239,o),
(174,223,o),
(216,223,cs),
(256,223,o),
(287,237,o),
(289,283,cs),
(290,310,l),
(408,317,o),
(504,431,o),
(504,560,cs),
(504,695,o),
(404,783,o),
(268,783,cs),
(179,783,o),
(99,752,o),
(59,698,cs),
(46,681,o),
(43,670,o),
(43,656,cs),
(43,617,o),
(80,592,o),
(110,592,cs)
);
},
{
closed = 1;
nodes = (
(144,177,o),
(111,129,o),
(109,78,cs),
(109,26,o),
(156,-16,o),
(209,-16,cs),
(251,-16,o),
(310,9,o),
(310,81,cs),
(310,153,o),
(241,177,o),
(202,177,cs)
);
}
);
userData = {
com.hugojourdan.ColorFlow = {
"0" = 0;
"1" = 0;
"10" = 0;
"11" = 0;
"2" = 0;
"3" = 0;
"4" = 0;
"5" = 0;
"6" = 0;
"7" = 0;
"8" = 0;
"9" = 0;
};
};
width = 519;
},
{
layerId = "5FC9277C-B92C-4C3C-88AB-70E16AEC7C11";
shapes = (
{
closed = 1;
nodes = (
(129,616,o),
(138,627,o),
(151,643,cs),
(174,672,o),
(218,690,o),
(272,690,cs),
(351,690,o),
(399,642,o),
(399,559,cs),
(399,463,o),
(321,380,o),
(234,380,cs),
(196,380,o),
(179,364,o),
(177,333,cs),
(171,203,ls),
(169,179,o),
(191,159,o),
(213,160,cs),
(238,161,o),
(256,177,o),
(258,202,cs),
(263,301,l),
(386,308,o),
(486,427,o),
(486,565,cs),
(486,691,o),
(405,771,o),
(280,774,cs),
(194,777,o),
(113,742,o),
(77,686,cs),
(69,673,o),
(66,666,o),
(66,658,cs),
(66,635,o),
(86,616,o),
(110,616,cs)
);
},
{
closed = 1;
nodes = (
(167,99,o),
(146,71,o),
(145,42,cs),
(145,10,o),
(175,-16,o),
(209,-16,cs),
(232,-16,o),
(265,-3,o),
(265,36,cs),
(265,83,o),
(225,99,o),
(202,99,cs)
);
}
);
userData = {
com.hugojourdan.ColorFlow = {
"0" = 0;
"1" = 0;
"10" = 0;
"11" = 0;
"2" = 0;
"3" = 0;
"4" = 0;
"5" = 0;
"6" = 0;
"7" = 0;
"8" = 0;
"9" = 0;
};
};
width = 519;
}
);
unicode = 63;
}
{
color = 4;
glyphname = A;
kernLeft = A;
kernRight = A;
layers = (
{
anchors = (
{
name = bottom;
pos = (366,0);
},
{
name = ogonek;
pos = (701,-9);
},
{
name = top;
pos = (392,764);
}
);
layerId = m01;
shapes = (
{
closed = 1;
nodes = (
(170,253,o),
(294,513,o),
(393,737,c),
(450,591,o),
(571,276,o),
(670,5,cs),
(673,-4,o),
(678,-17,o),
(690,-17,cs),
(699,-17,o),
(711,-12,o),
(711,-3,cs),
(711,8,o),
(693,41,o),
(688,55,cs),
(612,260,o),
(435,712,o),
(413,768,cs),
(408,782,o),
(404,789,o),
(396,788,cs),
(381,787,o),
(379,776,o),
(374,765,cs),
(250,476,o),
(156,287,o),
(56,55,cs),
(45,29,o),
(41,21,o),
(38,13,cs),
(32,-3,o),
(41,-13,o),
(52,-13,cs),
(61,-13,o),
(66,-9,o),
(69,0,cs)
);
},
{
closed = 1;
nodes = (
(294,302,o),
(449,304,o),
(574,304,cs),
(603,304,o),
(614,308,o),
(614,319,cs),
(614,331,o),
(606,341,o),
(592,339,cs),
(564,335,o),
(541,332,o),
(484,332,cs),
(362,332,o),
(239,325,o),
(196,316,cs),
(174,311,o),
(170,305,o),
(170,297,cs),
(170,290,o),
(178,287,o),
(183,288,cs)
);
}
);
userData = {
com.hugojourdan.ColorFlow = {
"0" = 0;
"1" = 0;
"10" = 0;
"11" = 0;
"2" = 0;
"3" = 0;
"4" = 0;
"5" = 0;
"6" = 0;
"7" = 0;
"8" = 0;
"9" = 0;
};
};
width = 760;
},
{
anchors = (
{
name = bottom;
pos = (377,0);
},
{
name = ogonek;
pos = (721,10);
},
{
name = top;
pos = (403,764);
}
);
layerId = m003;
shapes = (
{
closed = 1;
nodes = (
(245,190,o),
(299,382,o),
(398,591,c),
(455,445,o),
(501,176,o),
(581,24,cs),
(601,-15,o),
(633,-19,o),
(676,-19,cs),
(737,-19,o),
(775,13,o),
(775,43,cs),
(775,54,o),
(768,75,o),
(760,89,cs),
(690,213,o),
(542,691,o),
(531,719,cs),
(515,761,o),
(467,789,o),
(400,789,cs),
(347,789,o),
(308,764,o),
(279,707,cs),
(196,546,o),
(110,356,o),
(19,124,cs),
(9,98,o),
(-3,67,o),
(-3,38,cs),
(-3,14,o),
(16,-15,o),
(77,-15,cs),
(153,-15,o),
(183,4,o),
(198,49,cs)
);
},
{
closed = 1;
nodes = (
(327,193,o),
(394,189,o),
(509,189,cs),
(581,189,o),
(726,215,o),
(726,301,cs),
(726,346,o),
(698,368,o),
(658,364,cs),
(629,361,o),
(483,346,o),
(468,348,cs),
(385,361,o),
(316,356,o),
(264,344,cs),
(226,335,o),
(171,315,o),
(171,262,cs),
(171,219,o),
(196,177,o),
(216,179,cs)
);
}
);
userData = {
com.hugojourdan.ColorFlow = {
"0" = 0;
"1" = 0;
"10" = 0;
"11" = 0;
"2" = 0;
"3" = 0;
"4" = 0;
"5" = 0;
"6" = 0;
"7" = 0;
"8" = 0;
"9" = 0;
};
};
width = 793;
},
{
anchors = (
{
name = bottom;
pos = (371,0);
},
{
name = ogonek;
pos = (703,10);
},
{
name = top;
pos = (397,764);
}
);
layerId = "5FC9277C-B92C-4C3C-88AB-70E16AEC7C11";
shapes = (
{
closed = 1;
nodes = (
(194,226,o),
(296,432,o),
(395,650,c),
(452,504,o),
(553,221,o),
(643,4,cs),
(651,-15,o),
(672,-19,o),
(686,-19,cs),
(709,-19,o),
(730,-2,o),
(730,28,cs),
(730,39,o),
(721,57,o),
(715,71,cs),
(645,240,o),
(466,706,o),
(446,756,cs),
(439,776,o),
(419,789,o),
(397,789,cs),
(380,789,o),
(363,780,o),
(355,763,cs),
(242,526,o),
(124,297,o),
(33,65,cs),
(23,39,o),
(22,32,o),
(22,26,cs),
(22,2,o),
(44,-15,o),
(69,-15,cs),
(91,-15,o),
(107,-5,o),
(114,18,cs)
);
},
{
closed = 1;
nodes = (
(307,252,o),
(427,252,o),
(542,252,cs),
(584,252,o),
(650,257,o),
(650,302,cs),
(650,327,o),
(631,350,o),
(603,346,cs),
(574,341,o),
(516,337,o),
(465,339,cs),
(343,345,o),
(243,337,o),
(200,328,cs),
(178,323,o),
(146,312,o),
(146,286,cs),
(146,261,o),
(176,236,o),
(196,238,cs)
);
}
);
userData = {
com.hugojourdan.ColorFlow = {
"0" = 0;
"1" = 0;
"10" = 0;
"11" = 0;
"2" = 0;
"3" = 0;
"4" = 0;
"5" = 0;
"6" = 0;
"7" = 0;
"8" = 0;
"9" = 0;
};
};
width = 766;
}
);
unicode = 65;
}
{
color = 4;
glyphname = B;
kernLeft = H;
kernRight = B;
layers = (
{
anchors = (
{
name = bottom;
pos = (314,0);
},
{
name = center;
pos = (327,382);
},
{
name = top;
pos = (304,764);
}
);
layerId = m01;
shapes = (
{
closed = 1;
nodes = (
(106,495,o),
(114,249,o),
(100,14,cs),
(99,-1,o),
(101,-11,o),
(117,-10,cs),
(133,-9,o),
(134,6,o),
(135,32,cs),
(149,266,o),
(141,500,o),
(151,735,c),
(150,761,o),
(148,774,o),
(130,771,cs),
(116,769,o),
(115,760,o),
(117,729,c)
);
},
{
closed = 1;
nodes = (
(186,739,o),
(247,745,o),
(289,745,cs),
(419,745,o),
(515,707,o),
(515,601,cs),
(515,490,o),
(353,422,o),
(198,422,cs),
(177,422,o),
(159,424,o),
(137,427,cs),
(124,429,o),
(121,418,o),
(121,411,cs),
(121,392,o),
(152,389,o),
(194,389,cs),
(220,389,o),
(248,391,o),
(287,398,c),
(419,397,o),
(549,354,o),
(549,242,cs),
(549,111,o),
(383,32,o),
(214,32,cs),
(176,32,o),
(156,33,o),
(125,38,c),
(114,5,l),
(136,3,o),
(180,-1,o),
(216,-1,cs),
(383,-1,o),
(584,84,o),
(584,240,cs),
(584,318,o),
(520,399,o),
(379,423,c),
(490,460,o),
(549,532,o),
(549,606,cs),
(549,745,o),
(404,778,o),
(284,778,cs),
(222,778,o),
(187,772,o),
(141,764,c),
(141,732,l)
);
}
);
userData = {
com.hugojourdan.ColorFlow = {
"0" = 0;
"1" = 0;
"10" = 0;
"11" = 0;
"2" = 0;
"3" = 0;
"4" = 0;
"5" = 0;
"6" = 0;
"7" = 0;
"8" = 0;
"9" = 0;
};
};
width = 652;
},
{
anchors = (
{
name = bottom;
pos = (352,0);
},
{
name = center;
pos = (365,382);
},
{
name = top;
pos = (378,764);
}
);
background = {
shapes = (
{
closed = 1;
nodes = (
(135,493,o),
(141,246,o),
(112,25,cs),
(109,-1,o),
(132,-14,o),
(153,-14,cs),
(173,-14,o),
(190,-1,o),
(193,25,cs),
(223,258,o),
(216,493,o),
(243,726,c),
(243,752,o),
(223,765,o),
(202,765,cs),
(182,765,o),
(162,752,o),
(162,726,c)
);
},
{
closed = 1;
nodes = (
(224,690,o),
(295,700,o),
(337,700,cs),
(412,700,o),
(517,677,o),
(517,601,cs),
(517,488,o),
(340,447,o),
(241,447,cs),
(217,447,o),
(197,449,o),
(175,451,cs),
(154,452,o),
(148,434,o),
(149,413,cs),
(149,377,o),
(179,367,o),
(232,367,cs),
(258,367,o),
(286,370,o),
(325,376,c),
(409,375,o),
(551,337,o),
(551,242,cs),
(551,132,o),
(379,77,o),
(252,77,cs),
(224,77,o),
(194,79,o),
(163,84,c),
(152,5,l),
(174,3,o),
(213,-1,o),
(254,-1,cs),
(431,-1,o),
(632,84,o),
(632,240,cs),
(632,318,o),
(571,393,o),
(460,423,c),
(555,464,o),
(597,539,o),
(597,606,cs),
(597,745,o),
(443,778,o),
(329,778,cs),
(261,778,o),
(225,772,o),
(198,764,c),
(198,686,l)
);
}
);
};
layerId = m003;
shapes = (
{
closed = 1;
nodes = (
(66,495,o),
(74,249,o),
(61,39,cs),
(59,0,o),
(91,-13,o),
(162,-13,cs),
(202,-13,o),
(248,6,o),
(249,32,cs),
(263,266,o),
(255,506,o),
(265,735,c),
(264,761,o),
(213,778,o),
(172,777,cs),
(102,775,o),
(78,755,o),
(76,716,cs)
);
},
{
closed = 1;
nodes = (
(224,634,o),
(295,644,o),
(337,644,cs),
(402,644,o),
(435,625,o),
(435,589,cs),
(435,518,o),
(340,483,o),
(241,483,cs),
(217,483,o),
(197,485,o),
(175,487,cs),
(154,488,o),
(149,434,o),
(149,413,cs),
(149,342,o),
(179,332,o),
(232,332,cs),
(258,332,o),
(286,335,o),
(325,341,c),
(399,340,o),
(458,307,o),
(458,254,cs),
(458,182,o),
(377,147,o),
(263,147,cs),
(235,147,o),
(194,149,o),
(163,154,c),
(152,10,l),
(174,5,o),
(232,-1,o),
(286,-1,cs),
(451,-1,o),
(652,89,o),
(652,245,cs),
(652,323,o),
(601,393,o),
(470,423,c),
(581,466,o),
(617,539,o),
(617,606,cs),
(617,745,o),
(463,778,o),
(354,778,cs),
(274,778,o),
(225,765,o),
(198,757,c),
(198,630,l)
);
}
);
userData = {
com.hugojourdan.ColorFlow = {
"0" = 0;
"1" = 0;
"10" = 0;
"11" = 0;
"2" = 0;
"3" = 0;
"4" = 0;
"5" = 0;
"6" = 0;
"7" = 0;
"8" = 0;
"9" = 0;
};
};
width = 693;
},
{
anchors = (
{
name = bottom;
pos = (324,0);
},
{
name = center;
pos = (337,382);
},
{
name = top;
pos = (324,761);
}
);
layerId = "5FC9277C-B92C-4C3C-88AB-70E16AEC7C11";
shapes = (
{
closed = 1;
nodes = (
(99,495,o),
(107,249,o),
(94,27,cs),
(92,0,o),
(117,-11,o),
(143,-10,cs),
(165,-8,o),
(184,6,o),
(185,32,cs),
(199,266,o),
(191,501,o),
(201,735,c),
(200,761,o),
(176,773,o),
(153,772,cs),
(128,770,o),
(109,755,o),
(110,728,c)
);
},
{
closed = 1;
nodes = (
(196,684,o),
(267,694,o),
(309,694,cs),
(383,694,o),
(481,672,o),
(481,600,cs),
(481,491,o),
(312,451,o),
(213,451,cs),
(189,451,o),
(169,453,o),
(147,455,cs),
(126,456,o),
(120,434,o),
(121,413,cs),
(121,374,o),
(151,364,o),
(204,364,cs),
(230,364,o),
(258,367,o),
(297,373,c),
(380,372,o),
(514,334,o),
(514,243,cs),
(514,137,o),
(351,84,o),
(225,84,cs),
(197,84,o),
(166,86,o),
(135,91,c),
(124,6,l),
(146,3,o),
(187,-1,o),
(229,-1,cs),
(405,-1,o),
(606,85,o),
(606,241,cs),
(606,319,o),
(546,393,o),
(433,423,c),
(530,464,o),
(571,539,o),
(571,606,cs),
(571,745,o),
(417,778,o),
(304,778,cs),
(234,778,o),
(197,771,o),
(170,763,c),
(170,680,l)
);
}
);
userData = {
com.hugojourdan.ColorFlow = {
"0" = 0;
"1" = 0;
"10" = 0;
"11" = 0;
"2" = 0;
"3" = 0;
"4" = 0;
"5" = 0;
"6" = 0;
"7" = 0;
"8" = 0;
"9" = 0;
};
};
width = 660.6;
}
);
unicode = 66;
}
{
color = 4;
glyphname = C;
kernLeft = O;
kernRight = C;
layers = (
{
anchors = (
{
name = bottom;
pos = (404,-9);
},
{
name = top;
pos = (404,774);
}
);
layerId = m01;
name = Regular;
shapes = (
{
closed = 1;
nodes = (
(596,739,o),
(503,780,o),
(405,780,cs),
(211,780,o),
(74,619,o),
(74,367,cs),
(74,120,o),
(190,-22,o),
(384,-22,cs),
(491,-22,o),
(595,22,o),
(665,96,cs),
(674,106,o),
(677,112,o),
(677,118,cs),
(677,124,o),
(670,131,o),
(662,131,cs),
(656,131,o),
(651,126,o),
(641,114,cs),
(582,43,o),
(472,8,o),
(383,8,cs),
(210,8,o),
(107,138,o),
(107,362,cs),
(107,598,o),
(229,750,o),
(397,750,cs),
(486,750,o),
(546,728,o),
(622,680,cs),
(633,673,o),
(637,671,o),
(642,671,cs),
(647,671,o),
(653,678,o),
(653,685,cs),
(653,690,o),
(652,694,o),
(638,705,cs)
);
}
);
userData = {
com.hugojourdan.ColorFlow = {
"0" = 0;
"1" = 0;
"10" = 0;
"11" = 0;
"2" = 0;
"3" = 0;
"4" = 0;
"5" = 0;
"6" = 0;
"7" = 0;
"8" = 0;
"9" = 0;
};
};
width = 747;
},
{
anchors = (
{
name = bottom;
pos = (381,0);
},
{
name = top;
pos = (408,764);
}
);
layerId = m003;
name = Regular;
shapes = (
{
closed = 1;
nodes = (
(603,760,o),
(508,780,o),
(430,780,cs),
(206,780,o),
(39,619,o),
(39,367,cs),
(39,120,o),
(185,-22,o),
(397,-22,cs),
(496,-22,o),
(603,9,o),
(673,77,cs),
(696,99,o),
(712,123,o),
(712,148,cs),
(712,196,o),
(652,240,o),
(621,240,cs),
(607,240,o),
(597,232,o),
(585,221,cs),
(528,171,o),
(482,146,o),
(408,146,cs),
(283,146,o),
(231,244,o),
(231,376,cs),
(231,544,o),
(317,623,o),
(430,623,cs),
(482,623,o),
(525,608,o),
(587,570,cs),
(598,563,o),
(614,553,o),
(632,553,cs),
(656,553,o),
(707,600,o),
(707,652,cs),
(707,679,o),
(684,697,o),
(676,703,cs)
);
}
);
userData = {
com.hugojourdan.ColorFlow = {
"0" = 0;
"1" = 0;
"10" = 0;
"11" = 0;
"2" = 0;
"3" = 0;
"4" = 0;
"5" = 0;
"6" = 0;
"7" = 0;
"8" = 0;
"9" = 0;
};
};
width = 746;
},
{
anchors = (
{
name = bottom;
pos = (397,0);
},
{
name = top;
pos = (418,756);
}
);
layerId = "5FC9277C-B92C-4C3C-88AB-70E16AEC7C11";
name = Regular;
shapes = (
{
closed = 1;
nodes = (
(606,745,o),
(511,780,o),
(415,780,cs),
(209,780,o),
(69,619,o),
(69,367,cs),
(69,120,o),
(188,-22,o),
(393,-22,cs),
(499,-22,o),
(603,21,o),
(673,94,cs),
(695,117,o),
(706,135,o),
(706,152,cs),
(706,176,o),
(686,195,o),
(665,195,cs),
(651,195,o),
(640,190,o),
(630,178,cs),
(571,109,o),
(480,65,o),
(393,65,cs),
(255,65,o),
(162,188,o),
(162,363,cs),
(162,570,o),
(259,694,o),
(408,694,cs),
(493,694,o),
(540,676,o),
(618,623,cs),
(629,616,o),
(638,606,o),
(653,606,cs),
(673,605,o),
(695,628,o),
(695,654,cs),
(695,665,o),
(689,675,o),
(681,681,cs)
);
}
);
userData = {
com.hugojourdan.ColorFlow = {
"0" = 0;
"1" = 0;
"10" = 0;
"11" = 0;
"2" = 0;
"3" = 0;
"4" = 0;
"5" = 0;
"6" = 0;
"7" = 0;
"8" = 0;
"9" = 0;
};
};
width = 771.2;
}
);
unicode = 67;
}
{
color = 4;
glyphname = D;
kernLeft = H;
kernRight = D;
layers = (
{
anchors = (
{
name = bottom;
pos = (316,0);
},
{
name = center;
pos = (196,392);
},
{
name = top;
pos = (370,767);
}
);
layerId = m01;
shapes = (
{
closed = 1;
nodes = (
(90,-8,o),
(93,-19,o),
(105,-19,cs),
(112,-19,o),
(116,-17,o),
(124,-12,c),
(169,-21,o),
(234,-25,o),
(274,-25,cs),
(553,-25,o),
(706,189,o),
(706,394,cs),
(706,583,o),
(577,764,o),
(316,764,cs),
(266,764,o),
(211,757,o),
(151,744,cs),
(133,740,o),
(131,722,o),
(131,705,cs),
(129,616,o),
(124,528,o),
(118,440,cs),
(109,300,o),
(98,160,o),
(91,20,cs)
);
},
{
closed = 1;
nodes = (
(137,221,o),
(157,514,o),
(163,716,c),
(194,725,o),
(287,735,o),
(329,735,cs),
(497,735,o),
(673,619,o),
(673,397,cs),
(673,159,o),
(491,4,o),
(271,4,cs),
(245,4,o),
(148,12,o),
(125,19,c)
);
}
);
userData = {
com.hugojourdan.ColorFlow = {
"0" = 0;
"1" = 0;
"10" = 0;
"11" = 0;
"2" = 0;
"3" = 0;
"4" = 0;
"5" = 0;
"6" = 0;
"7" = 0;
"8" = 0;
"9" = 0;
};
};
width = 775;
},
{
anchors = (
{
name = bottom;
pos = (364,0);
},
{
name = center;
pos = (205,382);
},
{
name = top;
pos = (383,764);
}
);
layerId = m003;
shapes = (
{
closed = 1;
nodes = (
(50,-6,o),
(86,-19,o),
(129,-19,cs),
(163,-19,o),
(186,-13,o),
(210,-3,c),
(244,-16,o),
(285,-25,o),
(333,-25,cs),
(594,-25,o),
(756,189,o),
(755,394,cs),
(754,595,o),
(618,766,o),
(347,766,cs),
(297,766,o),
(180,759,o),
(137,750,cs),
(102,742,o),
(90,722,o),
(89,694,cs),
(88,616,o),
(83,528,o),
(77,440,cs),
(68,300,o),
(57,160,o),
(52,35,cs)
);
},
{
closed = 1;
nodes = (
(251,351,o),
(260,396,o),
(266,598,c),
(297,604,o),
(327,609,o),
(364,609,cs),
(444,609,o),
(556,556,o),
(556,396,cs),
(556,213,o),
(421,137,o),
(327,137,cs),
(289,137,o),
(262,142,o),
(239,149,c)
);
}
);
userData = {
com.hugojourdan.ColorFlow = {
"0" = 0;
"1" = 0;
"10" = 0;
"11" = 0;
"2" = 0;
"3" = 0;
"4" = 0;
"5" = 0;
"6" = 0;
"7" = 0;
"8" = 0;
"9" = 0;
};
};
width = 796;
},
{
anchors = (
{
name = bottom;
pos = (328,0);
},
{
name = center;
pos = (204,391);
},
{
name = top;
pos = (370,764);
}
);
layerId = "5FC9277C-B92C-4C3C-88AB-70E16AEC7C11";
shapes = (
{
closed = 1;
nodes = (
(85,-6,o),
(107,-19,o),
(129,-19,cs),
(139,-19,o),
(150,-17,o),
(160,-11,c),
(204,-20,o),
(246,-25,o),
(287,-25,cs),
(573,-25,o),
(727,189,o),
(727,394,cs),
(727,584,o),
(597,764,o),
(326,764,cs),
(276,764,o),
(215,757,o),
(157,745,cs),
(137,740,o),
(125,722,o),
(125,704,cs),
(123,616,o),
(118,528,o),
(112,440,cs),
(103,300,o),
(92,160,o),
(85,22,cs)
);
},
{
closed = 1;
nodes = (
(191,275,o),
(207,465,o),
(213,667,c),
(244,673,o),
(298,678,o),
(340,678,cs),
(473,678,o),
(636,596,o),
(636,397,cs),
(636,184,o),
(470,61,o),
(287,61,cs),
(259,61,o),
(202,66,o),
(179,73,c)
);
}
);
userData = {
com.hugojourdan.ColorFlow = {
"0" = 0;
"1" = 0;
"10" = 0;
"11" = 0;
"2" = 0;
"3" = 0;
"4" = 0;
"5" = 0;
"6" = 0;
"7" = 0;
"8" = 0;
"9" = 0;
};
};
width = 792.4;
}
);
unicode = 68;
}
{
color = 4;
glyphname = E;
kernLeft = H;
kernRight = E;
layers = (
{
anchors = (
{
name = bottom;
pos = (333,10);
},
{
name = ogonek;
pos = (529,10);
},
{
name = top;
pos = (373,765);
},
{
name = topleft;
pos = (45,764);
}
);
layerId = m01;
shapes = (
{
closed = 1;
nodes = (
(249,-5,o),
(342,2,o),
(436,5,cs),
(463,6,o),
(490,6,o),
(521,6,cs),
(532,6,o),
(540,12,o),
(540,23,cs),
(540,32,o),
(534,37,o),
(521,37,cs),
(419,36,o),
(253,26,o),
(154,16,c),
(162,133,o),
(170,259,o),
(177,378,c),
(287,392,o),
(424,394,o),
(482,391,cs),
(493,391,o),
(499,397,o),
(499,406,cs),
(499,415,o),
(493,421,o),
(482,421,cs),
(411,424,o),
(274,420,o),
(178,409,c),
(184,510,o),
(190,635,o),
(194,736,c),
(295,743,o),
(397,746,o),
(539,746,cs),
(552,746,o),
(558,753,o),
(558,762,cs),
(558,770,o),
(552,777,o),
(539,777,cs),
(395,777,o),
(289,773,o),
(186,765,cs),
(169,764,o),
(163,756,o),
(162,740,cs),
(151,505,o),
(138,257,o),
(120,5,cs),
(119,-13,o),
(133,-17,o),
(154,-15,cs)
);
}
);
userData = {
com.hugojourdan.ColorFlow = {
"0" = 0;
"1" = 0;
"10" = 0;
"11" = 0;
"2" = 0;
"3" = 0;
"4" = 0;
"5" = 0;
"6" = 0;
"7" = 0;
"8" = 0;
"9" = 0;
};
};
width = 623;
},
{
anchors = (
{
name = bottom;
pos = (317,8);
},
{
name = ogonek;
pos = (502,10);
},
{
name = top;
pos = (343,764);
},
{
name = topleft;
pos = (50,764);
}
);
layerId = m003;
shapes = (
{
closed = 1;
nodes = (
(207,-5,o),
(347,2,o),
(441,5,cs),
(468,6,o),
(495,6,o),
(522,6,cs),
(548,6,o),
(567,25,o),
(570,93,cs),
(572,146,o),
(552,164,o),
(519,164,cs),
(434,163,o),
(340,153,o),
(248,147,c),
(253,200,o),
(256,244,o),
(261,304,c),
(364,318,o),
(433,320,o),
(484,317,cs),
(505,317,o),
(534,334,o),
(534,406,cs),
(534,458,o),
(508,475,o),
(485,475,cs),
(423,478,o),
(356,474,o),
(269,463,c),
(274,526,o),
(274,544,o),
(279,609,c),
(374,616,o),
(411,619,o),
(534,619,cs),
(572,619,o),
(592,637,o),
(592,714,cs),
(592,760,o),
(572,777,o),
(529,777,cs),
(400,777,o),
(247,773,o),
(155,766,cs),
(109,763,o),
(97,745,o),
(95,703,cs),
(84,489,o),
(68,250,o),
(52,40,cs),
(48,-13,o),
(92,-16,o),
(114,-15,cs)
);
}
);
userData = {
com.hugojourdan.ColorFlow = {
"0" = 0;
"1" = 0;
"10" = 0;
"11" = 0;
"2" = 0;
"3" = 0;
"4" = 0;
"5" = 0;
"6" = 0;
"7" = 0;
"8" = 0;
"9" = 0;
};
};
width = 622;
},
{
anchors = (
{
name = bottom;
pos = (324,9);
},
{
name = ogonek;
pos = (509,10);
},
{
name = top;
pos = (352,764);
},
{
name = topleft;
pos = (41,764);
}
);
layerId = "5FC9277C-B92C-4C3C-88AB-70E16AEC7C11";
shapes = (
{
closed = 1;
nodes = (
(240,-5,o),
(338,2,o),
(432,5,cs),
(459,6,o),
(486,6,o),
(513,6,cs),
(539,6,o),
(553,25,o),
(553,51,cs),
(553,74,o),
(539,92,o),
(513,92,cs),
(421,91,o),
(273,81,o),
(181,75,c),
(188,164,o),
(194,258,o),
(200,349,c),
(303,363,o),
(424,365,o),
(475,362,cs),
(496,362,o),
(518,379,o),
(517,406,cs),
(516,431,o),
(498,448,o),
(475,448,cs),
(413,451,o),
(292,447,o),
(205,436,c),
(210,513,o),
(214,603,o),
(218,681,c),
(313,688,o),
(402,691,o),
(530,691,cs),
(563,691,o),
(576,709,o),
(576,736,cs),
(576,760,o),
(563,777,o),
(530,777,cs),
(391,777,o),
(280,773,o),
(177,765,cs),
(142,763,o),
(130,745,o),
(128,713,cs),
(117,489,o),
(103,250,o),
(86,27,cs),
(85,-13,o),
(125,-16,o),
(147,-15,cs)
);
}
);
userData = {
com.hugojourdan.ColorFlow = {
"0" = 0;
"1" = 0;
"10" = 0;
"11" = 0;
"2" = 0;
"3" = 0;
"4" = 0;
"5" = 0;
"6" = 0;
"7" = 0;
"8" = 0;
"9" = 0;
};
};
width = 628.3;
}
);
unicode = 69;
}
{
color = 4;
glyphname = H;
kernLeft = H;
kernRight = H;
layers = (
{
anchors = (
{
name = bottom;
pos = (384,0);
},
{
name = center;
pos = (400,605);
},
{
name = top;
pos = (410,764);
},
{
name = topleft;
pos = (52,764);
}
);
layerId = m01;
name = Regular;
shapes = (
{
closed = 1;
nodes = (
(106,514,o),
(115,258,o),
(99,11,cs),
(98,-4,o),
(111,-7,o),
(117,-7,cs),
(124,-7,o),
(132,-4,o),
(133,9,cs),
(151,259,o),
(139,514,o),
(167,762,cs),
(169,779,o),
(160,783,o),
(151,782,cs),
(139,781,o),
(133,775,o),
(132,761,cs)
);
},
{
closed = 1;
nodes = (
(369,390,o),
(547,396,o),
(635,393,cs),
(650,393,o),
(656,398,o),
(656,408,cs),
(656,419,o),
(650,423,o),
(636,423,cs),
(425,423,o),
(286,420,o),
(150,414,cs),
(130,413,o),
(123,411,o),
(123,397,cs),
(123,386,o),
(129,384,o),
(141,384,cs)
);
},
{
closed = 1;
nodes = (
(635,504,o),
(624,248,o),
(624,2,cs),
(624,-17,o),
(633,-20,o),
(642,-20,cs),
(648,-20,o),
(659,-17,o),
(659,1,cs),
(659,196,o),
(662,392,o),
(669,578,cs),
(671,630,o),
(674,693,o),
(679,748,cs),
(681,771,o),
(671,774,o),
(661,774,cs),
(649,774,o),
(643,769,o),
(642,748,cs)
);
}
);
userData = {
com.hugojourdan.ColorFlow = {
"0" = 0;
"1" = 0;
"10" = 0;
"11" = 0;
"2" = 0;
"3" = 0;
"4" = 0;
"5" = 0;
"6" = 0;
"7" = 0;
"8" = 0;
"9" = 0;
};
};
width = 773;
},
{
anchors = (
{
name = bottom;
pos = (385,0);
},
{
name = center;
pos = (403,607);
},
{
name = top;
pos = (411,764);
},
{
name = topleft;
pos = (37,764);
}
);
layerId = m003;
shapes = (
{
closed = 1;
nodes = (
(61,485,o),
(70,288,o),
(55,60,cs),
(53,26,o),
(80,-7,o),
(151,-7,cs),
(226,-7,o),
(244,26,o),
(246,56,cs),
(263,289,o),
(251,494,o),
(277,718,cs),
(281,749,o),
(258,782,o),
(187,782,cs),
(113,782,o),
(90,749,o),
(87,718,cs)
);
},
{
closed = 1;
nodes = (
(387,308,o),
(491,309,o),
(573,307,cs),
(605,306,o),
(651,310,o),
(651,426,cs),
(651,455,o),
(633,471,o),
(610,471,cs),
(391,470,o),
(326,469,o),
(160,463,cs),
(140,462,o),
(118,446,o),
(118,416,cs),
(118,315,o),
(136,297,o),
(159,298,cs)
);
},
{
closed = 1;
nodes = (
(531,484,o),
(526,278,o),
(526,43,cs),
(526,13,o),
(546,-20,o),
(622,-20,cs),
(692,-20,o),
(717,13,o),
(717,43,cs),
(717,226,o),
(720,392,o),
(727,578,cs),
(729,630,o),
(731,663,o),
(733,709,cs),
(735,741,o),
(709,774,o),
(639,774,cs),
(563,774,o),
(544,741,o),
(542,709,cs)
);
}
);
userData = {
com.hugojourdan.ColorFlow = {
"0" = 0;
"1" = 0;
"10" = 0;
"11" = 0;
"2" = 0;
"3" = 0;
"4" = 0;
"5" = 0;
"6" = 0;
"7" = 0;
"8" = 0;
"9" = 0;
};
};
width = 788;
},
{
anchors = (
{
name = bottom;
pos = (379,0);
},
{
name = center;
pos = (392,605);
},
{
name = top;
pos = (405,764);
},
{
name = topleft;
pos = (40,764);
}
);
layerId = "5FC9277C-B92C-4C3C-88AB-70E16AEC7C11";
name = Regular;
shapes = (
{
closed = 1;
nodes = (
(85,503,o),
(94,270,o),
(78,35,cs),
(77,8,o),
(99,-7,o),
(124,-7,cs),
(150,-7,o),
(168,8,o),
(170,34,cs),
(187,271,o),
(175,506,o),
(202,741,cs),
(205,767,o),
(182,782,o),
(157,782,cs),
(132,782,o),
(113,767,o),
(110,741,cs)
);
},
{
closed = 1;
nodes = (
(383,362,o),
(501,363,o),
(583,361,cs),
(615,360,o),
(647,364,o),
(647,408,cs),
(647,431,o),
(629,447,o),
(606,447,cs),
(387,446,o),
(304,445,o),
(156,439,cs),
(136,438,o),
(114,428,o),
(114,398,cs),
(114,369,o),
(132,351,o),
(155,352,cs)
);
},
{
closed = 1;
nodes = (
(586,496,o),
(581,260,o),
(581,21,cs),
(581,-5,o),
(601,-20,o),
(627,-20,cs),
(652,-20,o),
(673,-5,o),
(673,21,cs),
(673,208,o),
(676,392,o),
(683,578,cs),
(685,630,o),
(687,681,o),
(690,732,cs),
(691,759,o),
(669,774,o),
(644,774,cs),
(618,774,o),
(598,759,o),
(598,732,cs)
);
}
);
userData = {
com.hugojourdan.ColorFlow = {
"0" = 0;
"1" = 0;
"10" = 0;
"11" = 0;
"2" = 0;
"3" = 0;
"4" = 0;
"5" = 0;
"6" = 0;
"7" = 0;
"8" = 0;
"9" = 0;
};
};
width = 774.5;
}
);
unicode = 72;
}
{
color = 4;
glyphname = I;
kernLeft = H;
kernRight = H;
layers = (
{
anchors = (
{
name = bottom;
pos = (137,-3);
},
{
name = ogonek;
pos = (145,-2);
},
{
name = top;
pos = (176,764);
},
{
name = topleft;
pos = (45,764);
}
);
layerId = m01;
shapes = (
{
closed = 1;
nodes = (
(137,493,o),
(125,258,o),
(120,9,cs),
(120,-7,o),
(126,-14,o),
(136,-14,cs),
(145,-14,o),
(151,-7,o),
(151,9,cs),
(156,258,o),
(168,493,o),
(189,745,cs),
(190,762,o),
(185,768,o),
(174,768,cs),
(165,768,o),
(159,762,o),
(158,745,cs)
);
}
);
userData = {
com.hugojourdan.ColorFlow = {
"0" = 0;
"1" = 0;
"10" = 0;
"11" = 0;
"2" = 0;
"3" = 0;
"4" = 0;
"5" = 0;
"6" = 0;
"7" = 0;
"8" = 0;
"9" = 0;
};
};
width = 317;
},
{
anchors = (
{
name = bottom;
pos = (163,0);
},
{
name = ogonek;
pos = (199,10);
},
{
name = top;
pos = (189,764);
},
{
name = topleft;
pos = (58,764);
}
);
layerId = m003;
shapes = (
{
closed = 1;
nodes = (
(75,493,o),
(63,258,o),
(59,51,cs),
(58,-4,o),
(97,-17,o),
(149,-17,cs),
(205,-17,o),
(249,-4,o),
(250,41,cs),
(254,258,o),
(266,493,o),
(284,708,cs),
(288,755,o),
(249,771,o),
(187,771,cs),
(137,771,o),
(97,755,o),
(94,714,cs)
);
}
);
userData = {
com.hugojourdan.ColorFlow = {
"0" = 0;
"1" = 0;
"10" = 0;
"11" = 0;
"2" = 0;
"3" = 0;
"4" = 0;
"5" = 0;
"6" = 0;
"7" = 0;
"8" = 0;
"9" = 0;
};
};
width = 329;
},
{
anchors = (
{
name = bottom;
pos = (134,-9);
},
{
name = ogonek;
pos = (148,10);
},
{
name = top;
pos = (173,760);
},
{
name = topleft;
pos = (42,764);
}
);
layerId = "5FC9277C-B92C-4C3C-88AB-70E16AEC7C11";
shapes = (
{
closed = 1;
nodes = (
(104,493,o),
(92,258,o),
(87,25,cs),
(87,-4,o),
(109,-17,o),
(133,-17,cs),
(156,-17,o),
(179,-4,o),
(179,24,cs),
(184,258,o),
(196,493,o),
(217,726,cs),
(218,755,o),
(196,768,o),
(171,768,cs),
(148,768,o),
(126,755,o),
(125,727,cs)
);
}
);
userData = {
com.hugojourdan.ColorFlow = {
"0" = 0;
"1" = 0;
"10" = 0;
"11" = 0;
"2" = 0;
"3" = 0;
"4" = 0;
"5" = 0;
"6" = 0;
"7" = 0;
"8" = 0;
"9" = 0;
};
};
width = 309.2;
}
);
unicode = 73;
}
{
color = 4;
glyphname = K;
kernLeft = H;
kernRight = K;
layers = (
{
anchors = (
{
name = bottom;
pos = (335,0);
},
{
name = top;
pos = (351,754);
}
);
layerId = m01;
name = Regular;
shapes = (
{
closed = 1;
nodes = (
(141,262,o),
(156,501,o),
(159,758,cs),
(159,774,o),
(155,780,o),
(141,780,cs),
(129,780,o),
(125,774,o),
(125,758,cs),
(123,501,o),
(108,262,o),
(108,6,cs),
(108,-11,o),
(112,-17,o),
(125,-17,cs),
(137,-17,o),
(141,-11,o),
(141,6,cs)
);
},
{
closed = 1;
nodes = (
(410,631,o),
(296,540,o),
(144,425,c),
(144,406,l),
(214,342,o),
(263,282,o),
(311,222,cs),
(372,145,o),
(470,40,o),
(580,-20,cs),
(587,-24,o),
(594,-26,o),
(600,-26,cs),
(608,-26,o),
(613,-17,o),
(613,-11,cs),
(613,-2,o),
(602,3,o),
(588,9,cs),
(456,69,o),
(315,282,o),
(181,415,c),
(304,509,o),
(467,641,o),
(580,741,cs),
(587,747,o),
(591,752,o),
(591,757,cs),
(591,765,o),
(584,775,o),
(574,775,cs),
(569,775,o),
(565,772,o),
(557,764,cs)
);
}
);
userData = {
com.hugojourdan.ColorFlow = {
"0" = 0;
"1" = 0;
"10" = 0;
"11" = 0;
"2" = 0;
"3" = 0;
"4" = 0;
"5" = 0;
"6" = 0;
"7" = 0;
"8" = 0;
"9" = 0;
};
};
width = 681;
},
{
anchors = (
{
name = bottom;
pos = (376,8);
},
{
name = top;
pos = (384,768);
}
);
layerId = m003;
name = Regular;
shapes = (
{
closed = 1;
nodes = (
(259,270,o),
(265,501,o),
(268,723,cs),
(268,767,o),
(239,780,o),
(177,780,cs),
(106,780,o),
(76,767,o),
(76,714,cs),
(74,501,o),
(68,270,o),
(61,59,cs),
(59,4,o),
(79,-17,o),
(159,-17,cs),
(229,-17,o),
(250,4,o),
(251,44,cs)
);
},
{
closed = 1;
nodes = (
(441,656,o),
(337,552,o),
(213,456,c),
(193,411,l),
(251,355,o),
(298,288,o),
(344,222,cs),
(413,123,o),
(499,36,o),
(609,-20,cs),
(616,-24,o),
(625,-26,o),
(636,-26,cs),
(668,-26,o),
(729,31,o),
(729,93,cs),
(729,115,o),
(723,134,o),
(688,154,cs),
(562,227,o),
(524,322,o),
(418,426,c),
(536,517,o),
(578,545,o),
(666,624,cs),
(686,642,o),
(689,655,o),
(689,673,cs),
(689,715,o),
(636,775,o),
(597,775,cs),
(582,775,o),
(566,769,o),
(541,746,cs)
);
}
);
userData = {
com.hugojourdan.ColorFlow = {
"0" = 0;
"1" = 0;
"10" = 0;
"11" = 0;
"2" = 0;
"3" = 0;
"4" = 0;
"5" = 0;
"6" = 0;
"7" = 0;
"8" = 0;
"9" = 0;
};
};
width = 745;
},
{
anchors = (
{
name = bottom;
pos = (335,10);
},
{
name = top;
pos = (368,755);
}
);
layerId = "5FC9277C-B92C-4C3C-88AB-70E16AEC7C11";
name = Regular;
shapes = (
{
closed = 1;
nodes = (
(191,263,o),
(197,501,o),
(199,739,cs),
(200,767,o),
(178,780,o),
(154,780,cs),
(129,780,o),
(107,767,o),
(107,738,cs),
(105,501,o),
(99,263,o),
(90,26,cs),
(90,-3,o),
(110,-17,o),
(136,-17,cs),
(161,-17,o),
(182,-3,o),
(182,24,cs)
);
},
{
closed = 1;
nodes = (
(414,658,o),
(296,555,o),
(172,459,c),
(155,399,l),
(213,343,o),
(261,283,o),
(310,222,cs),
(385,127,o),
(468,36,o),
(578,-20,cs),
(585,-24,o),
(593,-26,o),
(599,-26,cs),
(623,-26,o),
(645,0,o),
(645,25,cs),
(645,39,o),
(639,51,o),
(623,60,cs),
(473,136,o),
(386,294,o),
(259,419,c),
(377,510,o),
(484,600,o),
(593,697,cs),
(603,707,o),
(606,716,o),
(606,727,cs),
(606,751,o),
(583,775,o),
(559,775,cs),
(550,775,o),
(539,771,o),
(529,761,cs)
);
}
);
userData = {
com.hugojourdan.ColorFlow = {
"0" = 0;
"1" = 0;
"10" = 0;
"11" = 0;
"2" = 0;
"3" = 0;
"4" = 0;
"5" = 0;
"6" = 0;
"7" = 0;
"8" = 0;
"9" = 0;
};
};
width = 684.7;
}
);
unicode = 75;
}
{
color = 4;
glyphname = L;
kernLeft = H;
kernRight = L;
layers = (
{
anchors = (
{
name = CATdot;
pos = (422,409);
},
{
name = bottom;
pos = (323,0);
},
{
name = center;
pos = (188,408);
},
{
name = top;
pos = (175,764);
},
{
name = topright;
pos = (242,742);
}
);
layerId = m01;
shapes = (
{
closed = 1;
nodes = (
(140,571,o),
(141,380,o),
(130,192,cs),
(124,94,o),
(115,59,o),
(115,26,cs),
(115,9,o),
(120,-4,o),
(138,-4,cs),
(227,-4,o),
(310,3,o),
(505,3,cs),
(521,3,o),
(531,11,o),
(531,21,cs),
(531,31,o),
(523,37,o),
(512,37,cs),
(405,37,o),
(291,31,o),
(151,29,c),
(173,269,o),
(168,518,o),
(186,754,cs),
(187,768,o),
(182,775,o),
(171,775,cs),
(162,775,o),
(155,768,o),
(154,751,cs)
);
}
);
userData = {
com.hugojourdan.ColorFlow = {
"0" = 0;
"1" = 0;
"10" = 0;
"11" = 0;
"2" = 0;
"3" = 0;
"4" = 0;
"5" = 0;
"6" = 0;
"7" = 0;
"8" = 0;
"9" = 0;
};
};
width = 589;
},
{
anchors = (
{
name = CATdot;
pos = (400,409);
},
{
name = bottom;
pos = (300,0);
},
{
name = center;
pos = (188,404);
},
{
name = top;
pos = (180,774);
},
{
name = topright;
pos = (299,715);
}
);
layerId = m003;
shapes = (
{
closed = 1;
nodes = (
(73,568,o),
(74,380,o),
(61,192,cs),
(58,150,o),
(48,94,o),
(48,48,cs),
(48,18,o),
(71,-5,o),
(101,-5,cs),
(204,-6,o),
(309,2,o),
(492,2,cs),
(532,2,o),
(555,18,o),
(555,94,cs),
(555,159,o),
(530,173,o),
(488,173,cs),
(405,173,o),
(371,167,o),
(243,165,c),
(265,391,o),
(261,518,o),
(276,707,cs),
(279,751,o),
(259,775,o),
(180,775,cs),
(129,775,o),
(88,762,o),
(85,725,cs)
);
}
);
userData = {
com.hugojourdan.ColorFlow = {
"0" = 0;
"1" = 0;
"10" = 0;
"11" = 0;
"2" = 0;
"3" = 0;
"4" = 0;
"5" = 0;
"6" = 0;
"7" = 0;
"8" = 0;
"9" = 0;
};
};
width = 586;
},
{
anchors = (
{
name = CATdot;
pos = (415,409);
},
{
name = bottom;
pos = (316,0);
},
{
name = center;
pos = (184,408);
},
{
name = top;
pos = (171,765);
},
{
name = topright;
pos = (243,739);
}
);
layerId = "5FC9277C-B92C-4C3C-88AB-70E16AEC7C11";
shapes = (
{
closed = 1;
nodes = (
(107,568,o),
(108,380,o),
(95,192,cs),
(92,150,o),
(82,94,o),
(82,48,cs),
(82,18,o),
(93,-5,o),
(123,-5,cs),
(226,-6,o),
(307,2,o),
(497,2,cs),
(530,2,o),
(547,18,o),
(547,47,cs),
(547,75,o),
(528,89,o),
(504,89,cs),
(403,89,o),
(306,83,o),
(178,81,c),
(200,307,o),
(196,528,o),
(212,732,cs),
(214,761,o),
(194,775,o),
(167,775,cs),
(144,775,o),
(122,762,o),
(120,734,cs)
);
}
);
userData = {
com.hugojourdan.ColorFlow = {
"0" = 0;
"1" = 0;
"10" = 0;
"11" = 0;
"2" = 0;
"3" = 0;
"4" = 0;
"5" = 0;
"6" = 0;
"7" = 0;
"8" = 0;
"9" = 0;
};
};
width = 579.7;
}
);
unicode = 76;
}
{
color = 4;
glyphname = Q;
kernLeft = O;
kernRight = O;
layers = (
{
anchors = (
{
name = bottom;
pos = (391,0);
},
{
name = top;
pos = (417,764);
}
);
layerId = m01;
name = Regular;
shapes = (
{
closed = 1;
nodes = (
(453,783,o),
(442,784,o),
(432,784,cs),
(206,784,o),
(73,565,o),
(73,358,cs),
(73,183,o),
(164,-11,o),
(370,-11,cs),
(583,-11,o),
(730,164,o),
(730,391,cs),
(730,559,o),
(637,735,o),
(489,781,cs),
(473,786,o),
(464,781,o),
(464,774,cs),
(464,752,o),
(498,755,o),
(552,714,cs),
(647,645,o),
(695,518,o),
(697,389,cs),
(697,132,o),
(520,20,o),
(368,20,cs),
(230,20,o),
(106,133,o),
(106,367,cs),
(106,579,o),
(252,759,o),
(441,759,cs),
(463,759,o),
(474,762,o),
(474,771,cs),
(474,779,o),
(470,781,o),
(461,782,cs)
);
},
{
closed = 1;
nodes = (
(466,170,o),
(582,-53,o),
(600,-89,cs),
(602,-94,o),
(609,-96,o),
(614,-96,cs),
(626,-96,o),
(631,-85,o),
(627,-72,cs),
(611,-39,o),
(494,182,o),
(482,213,cs),
(478,223,o),
(475,227,o),
(466,227,cs),
(454,227,o),
(448,217,o),
(451,208,cs)
);
}
);
userData = {
com.hugojourdan.ColorFlow = {
"0" = 0;
"1" = 0;
"10" = 0;
"11" = 0;
"2" = 0;
"3" = 0;
"4" = 0;
"5" = 0;
"6" = 0;
"7" = 0;
"8" = 0;
"9" = 0;
};
};
width = 799;
},
{
anchors = (
{
name = bottom;
pos = (407,0);
},
{
name = top;
pos = (433,764);
}
);
layerId = m003;
name = Regular;
shapes = (
{
closed = 1;
nodes = (
(469,784,o),
(458,784,o),
(448,784,cs),
(190,784,o),
(33,565,o),
(33,358,cs),
(33,183,o),
(137,-11,o),
(386,-11,cs),
(618,-11,o),
(774,160,o),
(774,387,cs),
(774,555,o),
(673,737,o),
(503,787,cs),
(467,798,o),
(445,769,o),
(445,748,cs),
(445,711,o),
(431,652,o),
(485,617,cs),
(555,571,o),
(580,490,o),
(580,386,cs),
(580,240,o),
(507,140,o),
(396,140,cs),
(289,140,o),
(227,232,o),
(227,371,cs),
(227,469,o),
(262,600,o),
(418,612,cs),
(485,617,o),
(525,683,o),
(525,745,cs),
(525,766,o),
(504,781,o),
(479,783,cs)
);
},
{
closed = 1;
nodes = (
(392,125,o),
(468,-24,o),
(503,-91,cs),
(522,-128,o),
(555,-145,o),
(611,-120,cs),
(661,-98,o),
(673,-77,o),
(652,-33,cs),
(616,41,o),
(539,188,o),
(505,271,cs),
(496,292,o),
(486,325,o),
(412,299,cs),
(364,282,o),
(342,244,o),
(355,213,cs)
);
}
);
userData = {
com.hugojourdan.ColorFlow = {
"0" = 0;
"1" = 0;
"10" = 0;
"11" = 0;
"2" = 0;
"3" = 0;
"4" = 0;
"5" = 0;
"6" = 0;
"7" = 0;
"8" = 0;
"9" = 0;
};
};
width = 805;
},
{
anchors = (
{
name = bottom;
pos = (400,0);
},
{
name = top;
pos = (426,764);
}
);
layerId = "5FC9277C-B92C-4C3C-88AB-70E16AEC7C11";
name = Regular;
shapes = (
{
closed = 1;
nodes = (
(462,784,o),
(451,784,o),
(441,784,cs),
(203,784,o),
(67,565,o),
(67,358,cs),
(67,183,o),
(160,-11,o),
(379,-11,cs),
(603,-11,o),
(751,164,o),
(751,391,cs),
(751,559,o),
(656,733,o),
(492,783,cs),
(456,794,o),
(438,769,o),
(438,748,cs),
(438,711,o),
(481,702,o),
(535,662,cs),
(619,600,o),
(658,493,o),
(658,389,cs),
(658,160,o),
(500,74,o),
(378,74,cs),
(271,74,o),
(160,169,o),
(160,367,cs),
(160,552,o),
(267,697,o),
(471,698,cs),
(502,699,o),
(518,721,o),
(518,745,cs),
(518,766,o),
(497,781,o),
(472,783,cs)
);
},
{
closed = 1;
nodes = (
(472,94,o),
(527,2,o),
(573,-86,cs),
(581,-102,o),
(597,-110,o),
(616,-107,cs),
(648,-105,o),
(666,-77,o),
(651,-44,cs),
(609,41,o),
(554,126,o),
(520,209,cs),
(511,230,o),
(501,246,o),
(473,243,cs),
(444,242,o),
(422,213,o),
(432,189,cs)
);
}
);
userData = {
com.hugojourdan.ColorFlow = {
"0" = 0;
"1" = 0;
"10" = 0;
"11" = 0;
"2" = 0;
"3" = 0;
"4" = 0;
"5" = 0;
"6" = 0;
"7" = 0;
"8" = 0;
"9" = 0;
};
};
width = 814.9;
}
);
unicode = 81;
}
{
color = 4;
glyphname = T;
kernLeft = T;
kernRight = T;
layers = (
{
anchors = (
{
name = bottom;
pos = (310,0);
},
{
name = center;
pos = (331,382);
},
{
name = top;
pos = (341,774);
}
);
layerId = m01;
shapes = (
{
closed = 1;
nodes = (
(166,735,o),
(248,733,o),
(332,733,cs),
(428,733,o),
(522,736,o),
(618,740,cs),
(631,740,o),
(637,748,o),
(637,755,cs),
(637,765,o),
(631,770,o),
(618,770,cs),
(522,766,o),
(426,764,o),
(329,764,cs),
(257,764,o),
(151,766,o),
(79,769,cs),
(69,769,o),
(62,765,o),
(62,754,cs),
(62,744,o),
(69,739,o),
(79,739,cs)
);
},
{
closed = 1;
nodes = (
(318,481,o),
(311,243,o),
(293,6,cs),
(292,-13,o),
(298,-20,o),
(309,-20,cs),
(318,-20,o),
(324,-13,o),
(325,6,cs),
(344,252,o),
(351,481,o),
(352,738,cs),
(352,749,o),
(345,759,o),
(335,759,cs),
(325,759,o),
(318,749,o),
(318,738,cs)
);
}
);
userData = {
com.hugojourdan.ColorFlow = {
"0" = 0;
"1" = 0;
"10" = 0;
"11" = 0;
"2" = 0;
"3" = 0;
"4" = 0;
"5" = 0;
"6" = 0;
"7" = 0;
"8" = 0;
"9" = 0;
};
};
width = 665;
},
{
anchors = (
{
name = bottom;
pos = (323,0);
},
{
name = center;
pos = (335,378);
},
{
name = top;
pos = (345,767);
}
);
layerId = m003;
shapes = (
{
closed = 1;
nodes = (
(160,587,o),
(249,585,o),
(336,585,cs),
(435,585,o),
(533,588,o),
(613,591,cs),
(658,592,o),
(680,610,o),
(680,690,cs),
(680,750,o),
(658,771,o),
(621,770,cs),
(533,766,o),
(433,764,o),
(333,764,cs),
(258,764,o),
(145,766,o),
(89,768,cs),
(47,769,o),
(24,749,o),
(24,686,cs),
(24,608,o),
(47,591,o),
(92,589,cs)
);
},
{
closed = 1;
nodes = (
(243,466,o),
(235,236,o),
(221,44,cs),
(217,-7,o),
(271,-20,o),
(313,-20,cs),
(354,-20,o),
(407,-7,o),
(410,37,cs),
(426,244,o),
(434,466,o),
(434,697,cs),
(435,723,o),
(359,736,o),
(339,736,cs),
(319,736,o),
(243,723,o),
(243,697,cs)
);
}
);
userData = {
com.hugojourdan.ColorFlow = {
"0" = 0;
"1" = 0;
"10" = 0;
"11" = 0;
"2" = 0;
"3" = 0;
"4" = 0;
"5" = 0;
"6" = 0;
"7" = 0;
"8" = 0;
"9" = 0;
};
};
width = 675;
},
{
anchors = (
{
name = bottom;
pos = (311,5);
},
{
name = center;
pos = (335,382);
},
{
name = top;
pos = (339,755);
}
);
layerId = "5FC9277C-B92C-4C3C-88AB-70E16AEC7C11";
shapes = (
{
closed = 1;
nodes = (
(165,677,o),
(252,675,o),
(339,675,cs),
(438,675,o),
(536,678,o),
(633,682,cs),
(661,682,o),
(675,700,o),
(675,726,cs),
(675,750,o),
(661,771,o),
(634,770,cs),
(536,766,o),
(436,764,o),
(336,764,cs),
(261,764,o),
(150,766,o),
(80,769,cs),
(52,769,o),
(38,749,o),
(38,725,cs),
(38,698,o),
(52,681,o),
(80,681,cs)
);
},
{
closed = 1;
nodes = (
(295,466,o),
(287,236,o),
(271,22,cs),
(269,-7,o),
(294,-20,o),
(316,-20,cs),
(338,-20,o),
(360,-7,o),
(362,21,cs),
(379,244,o),
(387,466,o),
(387,697,cs),
(388,723,o),
(362,736,o),
(342,736,cs),
(322,736,o),
(295,723,o),
(295,697,cs)
);
}
);
userData = {
com.hugojourdan.ColorFlow = {
"0" = 0;
"1" = 0;
"10" = 0;
"11" = 0;
"2" = 0;
"3" = 0;
"4" = 0;
"5" = 0;
"6" = 0;
"7" = 0;
"8" = 0;
"9" = 0;
};
};
width = 680.4;
}
);
unicode = 84;
}
{
color = 4;
glyphname = Y;
kernLeft = Y;
kernRight = Y;
layers = (
{
anchors = (
{
name = bottom;
pos = (283,0);
},
{
name = top;
pos = (337,764);
},
{
name = topleft;
pos = (39,764);
}
);
layerId = m01;
shapes = (
{
closed = 1;
nodes = (
(152,602,o),
(232,477,o),
(295,345,c),
(297,240,o),
(281,134,o),
(268,13,cs),
(266,-5,o),
(275,-11,o),
(284,-11,cs),
(293,-11,o),
(299,-3,o),
(301,13,cs),
(314,136,o),
(331,243,o),
(328,350,c),
(411,482,o),
(497,607,o),
(589,740,cs),
(601,757,o),
(591,769,o),
(580,769,cs),
(575,769,o),
(572,767,o),
(567,760,cs),
(489,649,o),
(406,527,o),
(315,380,c),
(285,435,o),
(153,672,o),
(105,758,cs),
(100,768,o),
(94,772,o),
(88,772,cs),
(74,772,o),
(67,758,o),
(77,740,cs)
);
}
);
userData = {
com.hugojourdan.ColorFlow = {
"0" = 0;
"1" = 0;
"10" = 0;
"11" = 0;
"2" = 0;
"3" = 0;
"4" = 0;
"5" = 0;
"6" = 0;
"7" = 0;
"8" = 0;
"9" = 0;
};
};
width = 632;
},
{
anchors = (
{
name = bottom;
pos = (289,0);
},
{
name = top;
pos = (335,764);
},
{
name = topleft;
pos = (33,764);
}
);
layerId = m003;
shapes = (
{
closed = 1;
nodes = (
(87,567,o),
(154,465,o),
(218,330,c),
(219,227,o),
(203,142,o),
(194,57,cs),
(190,18,o),
(212,-14,o),
(278,-14,cs),
(353,-14,o),
(381,7,o),
(385,49,cs),
(394,133,o),
(410,236,o),
(409,340,c),
(494,469,o),
(563,560,o),
(645,663,cs),
(677,704,o),
(639,780,o),
(560,780,cs),
(528,780,o),
(514,771,o),
(499,752,cs),
(440,677,o),
(401,621,o),
(326,503,c),
(315,522,o),
(244,657,o),
(204,736,cs),
(192,760,o),
(173,778,o),
(120,778,cs),
(53,778,o),
(5,725,o),
(25,687,cs)
);
}
);
userData = {
com.hugojourdan.ColorFlow = {
"0" = 0;
"1" = 0;
"10" = 0;
"11" = 0;
"2" = 0;
"3" = 0;
"4" = 0;
"5" = 0;
"6" = 0;
"7" = 0;
"8" = 0;
"9" = 0;
};
};
width = 646;
},
{
anchors = (
{
name = bottom;
pos = (281,-4);
},
{
name = top;
pos = (338,764);
},
{
name = topleft;
pos = (39,764);
}
);
layerId = "5FC9277C-B92C-4C3C-88AB-70E16AEC7C11";
shapes = (
{
closed = 1;
nodes = (
(121,595,o),
(201,471,o),
(265,336,c),
(266,233,o),
(250,133,o),
(239,32,cs),
(237,9,o),
(259,-12,o),
(284,-11,cs),
(313,-10,o),
(329,7,o),
(331,31,cs),
(342,133,o),
(358,236,o),
(357,340,c),
(442,475,o),
(529,599,o),
(609,713,cs),
(631,745,o),
(600,780,o),
(566,780,cs),
(552,780,o),
(542,773,o),
(531,759,cs),
(462,664,o),
(390,558,o),
(315,440,c),
(304,459,o),
(183,674,o),
(138,756,cs),
(130,771,o),
(116,778,o),
(100,778,cs),
(68,778,o),
(39,747,o),
(57,714,cs)
);
}
);
userData = {
com.hugojourdan.ColorFlow = {
"0" = 0;
"1" = 0;
"10" = 0;
"11" = 0;
"2" = 0;
"3" = 0;
"4" = 0;
"5" = 0;
"6" = 0;
"7" = 0;
"8" = 0;
"9" = 0;
};
};
width = 642.4;
}
);
unicode = 89;
}
{
glyphname = bracketleft;
kernLeft = bracketleft;
kernRight = bracketleft;
layers = (
{
background = {
shapes = (
{
closed = 1;
nodes = (
(110,595,o),
(101,101,o),
(96,-135,cs),
(96,-161,o),
(116,-174,o),
(137,-174,cs),
(157,-174,o),
(177,-161,o),
(177,-135,cs),
(182,101,o),
(191,595,o),
(211,830,cs),
(212,857,o),
(192,870,o),
(171,870,cs),
(151,870,o),
(131,857,o),
(130,830,cs)
);
},
{
closed = 1;
nodes = (
(217,785,o),
(248,785,o),
(278,785,cs),
(328,785,o),
(377,787,o),
(426,791,cs),
(437,792,o),
(447,795,o),
(455,803,cs),
(463,810,o),
(466,820,o),
(466,830,cs),
(466,852,o),
(450,874,o),
(426,872,cs),
(377,868,o),
(328,866,o),
(278,866,cs),
(248,866,o),
(217,866,o),
(186,868,cs),
(160,869,o),
(147,848,o),
(147,828,cs),
(147,808,o),
(160,787,o),
(186,787,cs)
);
},
{
closed = 1;
nodes = (
(242,-157,o),
(306,-158,o),
(397,-166,cs),
(419,-168,o),
(438,-145,o),
(438,-124,cs),
(438,-117,o),
(436,-111,o),
(432,-105,cs),
(423,-91,o),
(407,-82,o),
(392,-82,cs),
(387,-82,o),
(383,-83,o),
(378,-84,c),
(335,-82,o),
(196,-76,o),
(159,-83,cs),
(128,-89,o),
(108,-102,o),
(111,-124,c),
(111,-144,o),
(128,-166,o),
(151,-164,cs)
);
},
{
closed = 1;
nodes = (
(403,-163,o),
(403,-162,o),
(404,-162,c),
(402,-163,l)
);
}
);
};
layerId = m01;
shapes = (
{
closed = 1;
nodes = (
(120,595,o),
(114,113,o),
(109,-143,cs),
(109,-159,o),
(117,-162,o),
(125,-162,cs),
(133,-162,o),
(140,-159,o),
(140,-143,cs),
(145,93,o),
(151,575,o),
(170,830,cs),
(173,867,o),
(163,870,o),
(156,870,cs),
(148,870,o),
(142,867,o),
(140,850,cs)
);
},
{
closed = 1;
nodes = (
(246,841,o),
(326,838,o),
(396,841,cs),
(409,841,o),
(413,847,o),
(413,853,cs),
(413,862,o),
(406,871,o),
(396,870,cs),
(326,867,o),
(246,870,o),
(163,870,cs),
(152,870,o),
(147,863,o),
(147,855,cs),
(147,848,o),
(152,841,o),
(163,841,cs)
);
},
{
closed = 1;
nodes = (
(242,-159,o),
(276,-159,o),
(367,-165,cs),
(382,-166,o),
(385,-158,o),
(385,-152,cs),
(385,-141,o),
(379,-138,o),
(359,-136,cs),
(316,-132,o),
(196,-129,o),
(129,-138,cs),
(118,-139,o),
(112,-145,o),
(112,-151,cs),
(112,-158,o),
(119,-166,o),
(131,-165,cs)
);
}
);
userData = {
com.hugojourdan.ColorFlow = {
"0" = 0;
"1" = 0;
"10" = 0;
"11" = 0;
"2" = 0;
"3" = 0;
"4" = 0;
"5" = 0;
"6" = 0;
"7" = 0;
"8" = 0;
"9" = 0;
};
};
width = 502;
},
{
background = {
shapes = (
{
closed = 1;
nodes = (
(80,595,o),
(74,113,o),
(70,-113,cs),
(69,-149,o),
(99,-162,o),
(130,-162,cs),
(177,-162,o),
(225,-149,o),
(226,-113,cs),
(230,113,o),
(236,595,o),
(254,815,cs),
(257,857,o),
(211,870,o),
(161,870,cs),
(131,870,o),
(101,857,o),
(98,815,cs)
);
},
{
closed = 1;
nodes = (
(239,739,o),
(316,736,o),
(386,739,cs),
(415,740,o),
(436,765,o),
(436,803,cs),
(436,838,o),
(416,871,o),
(386,870,cs),
(316,867,o),
(239,870,o),
(176,870,cs),
(143,870,o),
(127,838,o),
(127,805,cs),
(127,773,o),
(143,739,o),
(176,739,cs)
);
},
{
closed = 1;
nodes = (
(232,-159,o),
(266,-160,o),
(357,-166,cs),
(394,-168,o),
(408,-132,o),
(408,-99,cs),
(408,-56,o),
(389,-35,o),
(349,-32,cs),
(306,-29,o),
(186,-28,o),
(149,-33,cs),
(111,-38,o),
(91,-63,o),
(91,-99,cs),
(91,-131,o),
(112,-165,o),
(151,-163,cs)
);
}
);
};
layerId = m003;
shapes = (
{
closed = 1;
nodes = (
(80,595,o),
(74,113,o),
(70,-113,cs),
(69,-149,o),
(99,-162,o),
(130,-162,cs),
(177,-162,o),
(225,-149,o),
(226,-113,cs),
(230,113,o),
(236,595,o),
(254,815,cs),
(257,857,o),
(211,870,o),
(161,870,cs),
(131,870,o),
(101,857,o),
(98,815,cs)
);
},
{
closed = 1;
nodes = (
(239,739,o),
(316,736,o),
(386,739,cs),
(415,740,o),
(436,765,o),
(436,803,cs),
(436,838,o),
(416,871,o),
(386,870,cs),
(316,867,o),
(239,870,o),
(176,870,cs),
(143,870,o),
(127,838,o),
(127,805,cs),
(127,773,o),
(143,739,o),
(176,739,cs)
);
},
{
closed = 1;
nodes = (
(232,-159,o),
(266,-160,o),
(357,-166,cs),
(394,-168,o),
(408,-132,o),
(408,-99,cs),
(408,-56,o),
(389,-35,o),
(349,-32,cs),
(306,-29,o),
(186,-28,o),
(149,-33,cs),
(111,-38,o),
(91,-63,o),
(91,-99,cs),
(91,-131,o),
(112,-165,o),
(151,-163,cs)
);
}
);
userData = {
com.hugojourdan.ColorFlow = {
"0" = 0;
"1" = 0;
"10" = 0;
"11" = 0;
"2" = 0;
"3" = 0;
"4" = 0;
"5" = 0;
"6" = 0;
"7" = 0;
"8" = 0;
"9" = 0;
};
};
width = 472;
},
{
layerId = "5FC9277C-B92C-4C3C-88AB-70E16AEC7C11";
shapes = (
{
closed = 1;
nodes = (
(98,595,o),
(92,113,o),
(87,-122,cs),
(87,-149,o),
(108,-162,o),
(130,-162,cs),
(153,-162,o),
(176,-149,o),
(176,-122,cs),
(181,113,o),
(187,595,o),
(206,829,cs),
(208,857,o),
(185,870,o),
(161,870,cs),
(140,870,o),
(119,857,o),
(118,829,cs)
);
},
{
closed = 1;
nodes = (
(239,784,o),
(316,781,o),
(386,784,cs),
(410,785,o),
(427,801,o),
(427,826,cs),
(427,849,o),
(411,871,o),
(386,870,cs),
(316,867,o),
(239,870,o),
(176,870,cs),
(149,870,o),
(136,849,o),
(136,828,cs),
(136,806,o),
(149,784,o),
(176,784,cs)
);
},
{
closed = 1;
nodes = (
(232,-159,o),
(266,-160,o),
(357,-166,cs),
(381,-167,o),
(399,-144,o),
(399,-121,cs),
(399,-93,o),
(383,-77,o),
(349,-77,cs),
(306,-77,o),
(186,-73,o),
(149,-78,cs),
(117,-82,o),
(97,-98,o),
(100,-121,c),
(100,-143,o),
(117,-165,o),
(142,-164,cs)
);
}
);
userData = {
com.hugojourdan.ColorFlow = {
"0" = 0;
"1" = 0;
"10" = 0;
"11" = 0;
"2" = 0;
"3" = 0;
"4" = 0;
"5" = 0;
"6" = 0;
"7" = 0;
"8" = 0;
"9" = 0;
};
};
width = 481;
}
);
unicode = 91;
}
{
glyphname = backslash;
kernLeft = backslash;
kernRight = backslash;
layers = (
{
layerId = m01;
shapes = (
{
closed = 1;
nodes = (
(57,837,o),
(51,840,o),
(40,837,cs),
(31,835,o),
(28,827,o),
(35,809,cs),
(121,581,o),
(264,122,o),
(330,-110,cs),
(336,-130,o),
(345,-134,o),
(355,-131,cs),
(364,-129,o),
(365,-120,o),
(359,-100,cs),
(293,132,o),
(150,591,o),
(64,819,cs)
);
}
);
userData = {
com.hugojourdan.ColorFlow = {
"0" = 0;
"1" = 0;
"10" = 0;
"11" = 0;
"2" = 0;
"3" = 0;
"4" = 0;
"5" = 0;
"6" = 0;
"7" = 0;
"8" = 0;
"9" = 0;
};
};
width = 399;
},
{
layerId = m003;
shapes = (
{
closed = 1;
nodes = (
(148,849,o),
(111,862,o),
(59,842,cs),
(21,828,o),
(7,792,o),
(28,739,cs),
(98,563,o),
(239,112,o),
(294,-94,cs),
(308,-147,o),
(354,-158,o),
(395,-147,cs),
(435,-136,o),
(456,-108,o),
(440,-53,cs),
(384,144,o),
(241,603,o),
(168,795,cs)
);
}
);
userData = {
com.hugojourdan.ColorFlow = {
"0" = 0;
"1" = 0;
"10" = 0;
"11" = 0;
"2" = 0;
"3" = 0;
"4" = 0;
"5" = 0;
"6" = 0;
"7" = 0;
"8" = 0;
"9" = 0;
};
};
width = 460;
},
{
layerId = "5FC9277C-B92C-4C3C-88AB-70E16AEC7C11";
shapes = (
{
closed = 1;
nodes = (
(143,846,o),
(118,855,o),
(96,847,cs),
(73,842,o),
(57,823,o),
(66,794,cs),
(142,576,o),
(271,114,o),
(327,-113,cs),
(334,-142,o),
(359,-150,o),
(381,-144,cs),
(404,-139,o),
(420,-120,o),
(413,-92,cs),
(356,134,o),
(228,598,o),
(151,817,cs)
);
}
);
userData = {
com.hugojourdan.ColorFlow = {
"0" = 0;
"1" = 0;
"10" = 0;
"11" = 0;
"2" = 0;
"3" = 0;
"4" = 0;
"5" = 0;
"6" = 0;
"7" = 0;
"8" = 0;
"9" = 0;
};
};
width = 471.7;
}
);
unicode = 92;
}
{
glyphname = bracketright;
kernLeft = bracketright;
kernRight = bracketright;
layers = (
{
layerId = m01;
shapes = (
{
closed = 1;
nodes = (
(335,-131,ls),
(334,-148,o),
(341,-158,o),
(350,-158,cs),
(361,-158,o),
(367,-152,o),
(367,-137,cs),
(370,95,o),
(399,612,o),
(403,841,cs),
(404,859,o),
(398,865,o),
(387,865,cs),
(376,865,o),
(373,860,o),
(372,844,cs)
);
},
{
closed = 1;
nodes = (
(180,-165,o),
(267,-162,o),
(344,-155,cs),
(349,-154,o),
(358,-149,o),
(358,-148,cs),
(363,-143,o),
(362,-141,o),
(362,-137,cs),
(362,-130,o),
(355,-125,o),
(344,-126,cs),
(267,-133,o),
(180,-136,o),
(111,-132,cs),
(98,-132,o),
(92,-137,o),
(92,-145,cs),
(92,-153,o),
(98,-161,o),
(111,-161,cs)
);
},
{
closed = 1;
nodes = (
(219,844,o),
(278,839,o),
(380,830,cs),
(389,829,o),
(397,834,o),
(399,842,cs),
(401,850,o),
(393,857,o),
(381,858,cs),
(272,871,o),
(198,870,o),
(149,867,cs),
(130,865,o),
(124,857,o),
(124,848,cs),
(124,842,o),
(129,835,o),
(140,836,cs)
);
}
);
userData = {
com.hugojourdan.ColorFlow = {
"0" = 0;
"1" = 0;
"10" = 0;
"11" = 0;
"2" = 0;
"3" = 0;
"4" = 0;
"5" = 0;
"6" = 0;
"7" = 0;
"8" = 0;
"9" = 0;
};
};
width = 499;
},
{
layerId = m003;
shapes = (
{
closed = 1;
nodes = (
(229,-101,ls),
(228,-137,o),
(267,-161,o),
(305,-161,cs),
(346,-161,o),
(386,-147,o),
(387,-101,cs),
(389,98,o),
(418,612,o),
(421,811,cs),
(422,857,o),
(374,870,o),
(334,870,cs),
(296,870,o),
(265,857,o),
(263,811,cs)
);
},
{
closed = 1;
nodes = (
(163,-165,o),
(243,-159,o),
(293,-155,cs),
(314,-153,o),
(330,-147,o),
(342,-139,cs),
(356,-128,o),
(363,-111,o),
(363,-89,cs),
(363,-54,o),
(344,-19,o),
(293,-24,cs),
(243,-28,o),
(163,-34,o),
(120,-32,cs),
(66,-29,o),
(51,-62,o),
(51,-95,cs),
(51,-127,o),
(67,-161,o),
(120,-163,cs)
);
},
{
closed = 1;
nodes = (
(200,736,o),
(254,738,o),
(325,732,cs),
(372,728,o),
(396,764,o),
(396,797,cs),
(396,841,o),
(364,859,o),
(316,863,cs),
(238,870,o),
(182,870,o),
(148,867,cs),
(99,863,o),
(79,831,o),
(79,797,cs),
(79,765,o),
(99,732,o),
(149,734,cs)
);
}
);
userData = {
com.hugojourdan.ColorFlow = {
"0" = 0;
"1" = 0;
"10" = 0;
"11" = 0;
"2" = 0;
"3" = 0;
"4" = 0;
"5" = 0;
"6" = 0;
"7" = 0;
"8" = 0;
"9" = 0;
};
};
width = 468;
},
{
layerId = "5FC9277C-B92C-4C3C-88AB-70E16AEC7C11";
shapes = (
{
closed = 1;
nodes = (
(279,-119,ls),
(278,-146,o),
(301,-161,o),
(323,-161,cs),
(346,-161,o),
(368,-147,o),
(368,-119,cs),
(371,98,o),
(400,612,o),
(403,829,cs),
(404,857,o),
(380,870,o),
(358,870,cs),
(337,870,o),
(315,857,o),
(314,829,cs)
);
},
{
closed = 1;
nodes = (
(163,-165,o),
(243,-163,o),
(311,-157,cs),
(323,-156,o),
(334,-152,o),
(342,-144,cs),
(351,-137,o),
(354,-126,o),
(354,-115,cs),
(354,-92,o),
(338,-68,o),
(311,-71,cs),
(243,-77,o),
(163,-79,o),
(102,-75,cs),
(73,-74,o),
(60,-96,o),
(60,-117,cs),
(60,-139,o),
(73,-161,o),
(102,-161,cs)
);
},
{
closed = 1;
nodes = (
(200,784,o),
(254,783,o),
(343,775,cs),
(368,773,o),
(387,797,o),
(387,820,cs),
(387,848,o),
(360,859,o),
(325,862,cs),
(238,870,o),
(182,870,o),
(139,867,cs),
(105,864,o),
(88,843,o),
(88,820,cs),
(88,798,o),
(105,775,o),
(131,777,cs)
);
}
);
userData = {
com.hugojourdan.ColorFlow = {
"0" = 0;
"1" = 0;
"10" = 0;
"11" = 0;
"2" = 0;
"3" = 0;
"4" = 0;
"5" = 0;
"6" = 0;
"7" = 0;
"8" = 0;
"9" = 0;
};
};
width = 477;
}
);
unicode = 93;
}
{
color = 4;
glyphname = b;
kernLeft = h;
kernRight = o;
layers = (
{
anchors = (
{
name = bottom;
pos = (270,0);
},
{
name = center;
pos = (183,688);
},
{
name = top;
pos = (144,810);
}
);
background = {
shapes = (
{
closed = 1;
nodes = (
(102,565,o),
(102,292,o),
(90,70,c),
(78,75,o),
(70,69,o),
(70,62,cs),
(70,52,o),
(80,47,o),
(90,39,c),
(89,31,o),
(88,24,o),
(88,19,cs),
(88,5,o),
(89,-4,o),
(105,-4,cs),
(114,-4,o),
(117,5,o),
(121,23,c),
(159,2,o),
(209,-9,o),
(250,-9,cs),
(382,-9,o),
(469,125,o),
(469,281,cs),
(469,412,o),
(399,537,o),
(271,537,cs),
(231,537,o),
(162,488,o),
(130,378,c),
(134,501,o),
(141,689,o),
(153,814,cs),
(154,825,o),
(151,835,o),
(139,835,cs),
(131,835,o),
(124,829,o),
(123,814,cs)
);
},
{
closed = 1;
nodes = (
(123,113,o),
(127,204,o),
(130,268,cs),
(134,348,o),
(184,507,o),
(279,507,cs),
(381,507,o),
(439,398,o),
(439,282,cs),
(439,98,o),
(344,19,o),
(250,19,cs),
(202,19,o),
(162,27,o),
(123,57,c)
);
}
);
};
layerId = m01;
shapes = (
{
closed = 1;
nodes = (
(104,565,o),
(104,292,o),
(93,71,c),
(80,78,o),
(72,69,o),
(72,62,cs),
(72,52,o),
(82,47,o),
(92,39,c),
(91,31,o),
(90,24,o),
(90,19,cs),
(90,5,o),
(91,-4,o),
(107,-4,cs),
(116,-4,o),
(119,5,o),
(121,24,c),
(161,2,o),
(211,-9,o),
(259,-9,cs),
(397,-9,o),
(484,125,o),
(484,286,cs),
(484,417,o),
(416,535,o),
(293,535,cs),
(230,535,o),
(162,488,o),
(131,378,c),
(135,501,o),
(143,689,o),
(155,814,cs),
(156,825,o),
(153,835,o),
(141,835,cs),
(133,835,o),
(126,829,o),
(125,814,cs)
);
},
{
closed = 1;
nodes = (
(125,113,o),
(129,204,o),
(132,268,cs),
(136,348,o),
(188,507,o),
(292,507,cs),
(398,507,o),
(454,403,o),
(454,287,cs),
(454,98,o),
(359,19,o),
(259,19,cs),
(204,19,o),
(164,27,o),
(123,57,c)
);
}
);
userData = {
com.hugojourdan.ColorFlow = {
"0" = 0;
"1" = 0;
"10" = 0;
"11" = 0;
"2" = 0;
"3" = 0;
"4" = 0;
"5" = 0;
"6" = 0;
"7" = 0;
"8" = 0;
"9" = 0;
};
};
width = 540;
},
{
anchors = (
{
name = bottom;
pos = (301,0);
},
{
name = center;
pos = (197,673);
},
{
name = top;
pos = (180,810);
}
);
layerId = m003;
shapes = (
{
closed = 1;
nodes = (
(66,565,o),
(62,396,o),
(50,174,c),
(33,165,o),
(25,146,o),
(25,125,cs),
(25,103,o),
(30,82,o),
(45,72,c),
(44,64,o),
(43,47,o),
(43,35,cs),
(43,9,o),
(70,-4,o),
(120,-4,cs),
(169,-4,o),
(196,4,o),
(206,29,c),
(235,6,o),
(278,-9,o),
(329,-9,cs),
(481,-9,o),
(575,125,o),
(575,296,cs),
(575,458,o),
(515,555,o),
(395,555,cs),
(318,555,o),
(273,502,o),
(254,471,c),
(258,594,o),
(266,685,o),
(272,758,cs),
(277,815,o),
(250,835,o),
(183,835,cs),
(101,835,o),
(81,808,o),
(78,758,cs)
);
},
{
closed = 1;
nodes = (
(235,188,o),
(235,226,o),
(238,267,cs),
(242,317,o),
(279,395,o),
(324,395,cs),
(367,395,o),
(383,347,o),
(383,281,cs),
(383,178,o),
(347,128,o),
(295,128,cs),
(270,128,o),
(250,136,o),
(232,152,c)
);
}
);
userData = {
com.hugojourdan.ColorFlow = {
"0" = 0;
"1" = 0;
"10" = 0;
"11" = 0;
"2" = 0;
"3" = 0;
"4" = 0;
"5" = 0;
"6" = 0;
"7" = 0;
"8" = 0;
"9" = 0;
};
};
width = 606;
},
{
anchors = (
{
name = bottom;
pos = (288,0);
},
{
name = center;
pos = (170,675);
},
{
name = top;
pos = (176,810);
}
);
layerId = "5FC9277C-B92C-4C3C-88AB-70E16AEC7C11";
shapes = (
{
closed = 1;
nodes = (
(101,565,o),
(99,365,o),
(87,143,c),
(74,134,o),
(66,121,o),
(66,110,cs),
(66,94,o),
(71,84,o),
(83,74,c),
(82,66,o),
(81,43,o),
(81,35,cs),
(81,9,o),
(102,-4,o),
(125,-4,cs),
(142,-4,o),
(159,2,o),
(166,25,c),
(201,3,o),
(247,-9,o),
(291,-9,cs),
(432,-9,o),
(521,125,o),
(521,287,cs),
(521,424,o),
(455,538,o),
(330,538,cs),
(276,538,o),
(228,509,o),
(192,458,c),
(196,581,o),
(201,688,o),
(211,792,cs),
(212,821,o),
(191,835,o),
(166,835,cs),
(139,835,o),
(121,821,o),
(119,792,cs)
);
},
{
closed = 1;
nodes = (
(179,158,o),
(181,213,o),
(183,268,cs),
(185,336,o),
(246,452,o),
(321,452,cs),
(400,452,o),
(428,372,o),
(428,282,cs),
(428,129,o),
(356,75,o),
(278,75,cs),
(239,75,o),
(207,86,o),
(176,110,c)
);
}
);
userData = {
com.hugojourdan.ColorFlow = {
"0" = 0;
"1" = 0;
"10" = 0;
"11" = 0;
"2" = 0;
"3" = 0;
"4" = 0;
"5" = 0;
"6" = 0;
"7" = 0;
"8" = 0;
"9" = 0;
};
};
width = 576.3;
}
);
unicode = 98;
}
{
color = 4;
glyphname = d;
kernLeft = a;
kernRight = l;
layers = (
{
anchors = (
{
name = bottom;
pos = (292,0);
},
{
name = center;
pos = (453,687);
},
{
name = top;
pos = (477,800);
},
{
name = topright;
pos = (495,783);
}
);
layerId = m01;
shapes = (
{
closed = 1;
nodes = (
(454,704,o),
(447,575,o),
(442,484,c),
(408,515,o),
(360,534,o),
(315,534,cs),
(175,534,o),
(58,395,o),
(58,229,cs),
(58,94,o),
(133,-10,o),
(229,-10,cs),
(305,-10,o),
(390,78,o),
(432,199,c),
(428,133,o),
(425,49,o),
(423,4,cs),
(422,-8,o),
(426,-14,o),
(436,-14,cs),
(446,-14,o),
(451,-9,o),
(451,0,cs),
(463,322,o),
(477,587,o),
(493,804,cs),
(494,816,o),
(489,823,o),
(479,823,cs),
(470,823,o),
(464,817,o),
(463,805,cs)
);
},
{
closed = 1;
nodes = (
(88,379,o),
(187,506,o),
(309,506,cs),
(356,506,o),
(409,485,o),
(440,454,c),
(433,264,l),
(426,259,o),
(423,244,o),
(420,236,cs),
(380,111,o),
(299,18,o),
(229,18,cs),
(154,18,o),
(88,114,o),
(88,223,cs)
);
}
);
userData = {
com.hugojourdan.ColorFlow = {
"0" = 0;
"1" = 0;
"10" = 0;
"11" = 0;
"2" = 0;
"3" = 0;
"4" = 0;
"5" = 0;
"6" = 0;
"7" = 0;
"8" = 0;
"9" = 0;
};
};
width = 564;
},
{
anchors = (
{
name = bottom;
pos = (310,0);
},
{
name = center;
pos = (480,675);
},
{
name = top;
pos = (505,800);
},
{
name = topright;
pos = (603,760);
}
);
layerId = m003;
shapes = (
{
closed = 1;
nodes = (
(409,703,o),
(403,615,o),
(398,524,c),
(360,545,o),
(324,555,o),
(285,555,cs),
(129,555,o),
(29,392,o),
(29,234,cs),
(29,127,o),
(79,-12,o),
(228,-12,cs),
(295,-12,o),
(355,17,o),
(392,93,c),
(391,69,o),
(387,53,o),
(387,35,cs),
(387,9,o),
(413,-13,o),
(467,-13,cs),
(518,-13,o),
(563,2,o),
(565,48,cs),
(575,283,o),
(585,538,o),
(600,764,cs),
(604,819,o),
(569,834,o),
(499,834,cs),
(449,834,o),
(417,819,o),
(414,771,cs)
);
},
{
closed = 1;
nodes = (
(221,359,o),
(272,415,o),
(323,415,cs),
(349,415,o),
(363,411,o),
(387,392,c),
(382,309,l),
(376,304,o),
(374,299,o),
(373,292,cs),
(368,226,o),
(328,139,o),
(278,139,cs),
(233,139,o),
(221,189,o),
(221,242,cs)
);
}
);
userData = {
com.hugojourdan.ColorFlow = {
"0" = 0;
"1" = 0;
"10" = 0;
"11" = 0;
"2" = 0;
"3" = 0;
"4" = 0;
"5" = 0;
"6" = 0;
"7" = 0;
"8" = 0;
"9" = 0;
};
};
width = 628;
},
{
anchors = (
{
name = bottom;
pos = (290,0);
},
{
name = center;
pos = (472,675);
},
{
name = top;
pos = (481,800);
},
{
name = topright;
pos = (527,778);
}
);
layerId = "5FC9277C-B92C-4C3C-88AB-70E16AEC7C11";
shapes = (
{
closed = 1;
nodes = (
(429,703,o),
(423,606,o),
(418,515,c),
(380,536,o),
(342,545,o),
(306,545,cs),
(160,545,o),
(53,391,o),
(53,233,cs),
(53,126,o),
(108,-8,o),
(221,-8,cs),
(288,-8,o),
(357,37,o),
(401,113,c),
(398,73,o),
(397,55,o),
(396,29,cs),
(395,3,o),
(417,-11,o),
(440,-11,cs),
(463,-11,o),
(487,2,o),
(487,30,cs),
(499,283,o),
(509,538,o),
(526,790,cs),
(528,819,o),
(505,832,o),
(480,832,cs),
(457,832,o),
(437,819,o),
(435,791,cs)
);
},
{
closed = 1;
nodes = (
(146,379,o),
(233,461,o),
(308,461,cs),
(338,461,o),
(381,449,o),
(413,421,c),
(407,312,l),
(400,307,o),
(398,301,o),
(397,293,cs),
(391,220,o),
(316,77,o),
(229,77,cs),
(183,77,o),
(146,155,o),
(146,231,cs)
);
}
);
userData = {
com.hugojourdan.ColorFlow = {
"0" = 0;
"1" = 0;
"10" = 0;
"11" = 0;
"2" = 0;
"3" = 0;
"4" = 0;
"5" = 0;
"6" = 0;
"7" = 0;
"8" = 0;
"9" = 0;
};
};
width = 590.2;
}
);
unicode = 100;
}
{
color = 4;
glyphname = f;
kernLeft = f;
kernRight = f;
layers = (
{
background = {
shapes = (
{
closed = 1;
nodes = (
(371,802,o),
(335,827,o),
(282,827,cs),
(260,827,o),
(232,818,o),
(206,789,cs),
(170,749,o),
(153,667,o),
(146,599,cs),
(125,405,o),
(126,312,o),
(124,261,cs),
(120,163,o),
(118,117,o),
(118,-2,cs),
(118,-11,o),
(119,-17,o),
(131,-17,cs),
(143,-17,o),
(148,-10,o),
(148,-2,cs),
(149,127,o),
(152,190,o),
(156,300,cs),
(159,368,o),
(162,491,o),
(178,595,cs),
(201,751,o),
(228,799,o),
(288,799,cs),
(307,799,o),
(335,795,o),
(366,754,cs),
(387,727,o),
(389,717,o),
(400,717,cs),
(408,717,o),
(412,721,o),
(412,729,cs),
(412,735,o),
(407,745,o),
(398,759,cs)
);
},
{
closed = 1;
nodes = (
(71,499,o),
(87,503,o),
(96,504,cs),
(154,510,o),
(168,513,o),
(231,513,cs),
(252,513,o),
(319,508,o),
(340,508,cs),
(355,508,o),
(372,513,o),
(372,524,cs),
(372,536,o),
(357,536,o),
(341,536,cs),
(307,536,o),
(225,536,o),
(181,536,cs),
(144,536,o),
(105,534,o),
(72,527,cs),
(56,524,o),
(28,521,o),
(29,510,cs),
(30,499,o),
(45,499,o),
(61,499,cs)
);
}
);
};
layerId = m01;
shapes = (
{
closed = 1;
nodes = (
(151,-12,o),
(156,-5,o),
(156,3,cs),
(157,117,o),
(160,180,o),
(164,290,cs),
(167,358,o),
(172,481,o),
(185,585,cs),
(204,741,o),
(236,789,o),
(296,789,cs),
(346,789,o),
(371,750,o),
(391,721,cs),
(398,711,o),
(401,707,o),
(408,707,cs),
(414,707,o),
(421,712,o),
(421,719,cs),
(421,723,o),
(419,728,o),
(416,734,cs),
(392,776,o),
(356,817,o),
(290,817,cs),
(268,817,o),
(239,809,o),
(214,779,cs),
(180,739,o),
(162,657,o),
(155,589,cs),
(134,395,o),
(134,302,o),
(132,251,cs),
(128,153,o),
(126,107,o),
(126,3,cs),
(126,-6,o),
(127,-12,o),
(139,-12,cs)
);
},
{
closed = 1;
nodes = (
(59,498,o),
(95,503,o),
(104,504,cs),
(162,510,o),
(176,510,o),
(239,510,cs),
(260,510,o),
(343,509,o),
(364,508,cs),
(374,508,o),
(380,512,o),
(380,524,cs),
(380,533,o),
(371,536,o),
(361,536,cs),
(327,535,o),
(233,536,o),
(189,536,cs),
(152,536,o),
(87,530,o),
(54,524,cs),
(44,522,o),
(36,521,o),
(37,510,cs),
(38,501,o),
(44,498,o),
(49,498,cs)
);
}
);
userData = {
com.hugojourdan.ColorFlow = {
"0" = 0;
"1" = 0;
"10" = 0;
"11" = 0;
"2" = 0;
"3" = 0;
"4" = 0;
"5" = 0;
"6" = 0;
"7" = 0;
"8" = 0;
"9" = 0;
};
};
width = 372;
},
{
layerId = m003;
shapes = (
{
closed = 1;
nodes = (
(299,-20,o),
(318,4,o),
(319,52,cs),
(320,137,o),
(321,190,o),
(325,300,cs),
(328,368,o),
(330,410,o),
(345,592,cs),
(353,686,o),
(378,696,o),
(400,696,cs),
(420,696,o),
(439,686,o),
(466,668,cs),
(481,658,o),
(495,653,o),
(505,653,cs),
(534,653,o),
(568,699,o),
(568,731,cs),
(568,745,o),
(565,753,o),
(554,765,cs),
(519,804,o),
(442,827,o),
(385,827,cs),
(308,827,o),
(257,800,o),
(231,771,cs),
(195,731,o),
(170,667,o),
(160,571,cs),
(142,390,o),
(143,312,o),
(141,261,cs),
(137,163,o),
(136,118,o),
(136,52,cs),
(136,0,o),
(155,-20,o),
(226,-20,cs)
);
},
{
closed = 1;
nodes = (
(75,404,o),
(105,408,o),
(114,409,cs),
(172,415,o),
(275,418,o),
(338,418,cs),
(359,418,o),
(423,416,o),
(444,416,cs),
(474,416,o),
(499,433,o),
(499,495,cs),
(499,536,o),
(479,554,o),
(442,554,cs),
(414,554,o),
(332,554,o),
(288,555,cs),
(174,558,o),
(95,552,o),
(52,534,cs),
(36,527,o),
(17,517,o),
(17,480,cs),
(17,451,o),
(37,404,o),
(65,404,cs)
);
}
);
userData = {
com.hugojourdan.ColorFlow = {
"0" = 0;
"1" = 0;
"10" = 0;
"11" = 0;
"2" = 0;
"3" = 0;
"4" = 0;
"5" = 0;
"6" = 0;
"7" = 0;
"8" = 0;
"9" = 0;
};
};
width = 512;
},
{
layerId = "5FC9277C-B92C-4C3C-88AB-70E16AEC7C11";
shapes = (
{
closed = 1;
nodes = (
(187,-20,o),
(206,-2,o),
(207,24,cs),
(208,131,o),
(210,190,o),
(214,300,cs),
(217,368,o),
(218,446,o),
(234,592,cs),
(248,715,o),
(271,744,o),
(311,744,cs),
(335,744,o),
(363,734,o),
(384,713,cs),
(402,696,o),
(416,688,o),
(426,688,cs),
(449,688,o),
(465,712,o),
(465,733,cs),
(465,741,o),
(463,746,o),
(455,759,cs),
(427,800,o),
(367,827,o),
(310,827,cs),
(269,827,o),
(229,815,o),
(203,786,cs),
(167,746,o),
(149,667,o),
(139,571,cs),
(121,399,o),
(122,312,o),
(120,261,cs),
(116,163,o),
(115,117,o),
(115,22,cs),
(115,-1,o),
(134,-20,o),
(159,-20,cs)
);
},
{
closed = 1;
nodes = (
(63,440,o),
(84,444,o),
(93,445,cs),
(151,451,o),
(200,454,o),
(263,454,cs),
(284,454,o),
(350,452,o),
(371,452,cs),
(392,452,o),
(412,469,o),
(412,495,cs),
(412,520,o),
(395,538,o),
(371,538,cs),
(339,538,o),
(257,537,o),
(213,539,cs),
(144,542,o),
(79,536,o),
(40,518,cs),
(24,510,o),
(13,504,o),
(13,483,cs),
(13,461,o),
(33,440,o),
(53,440,cs)
);
}
);
userData = {
com.hugojourdan.ColorFlow = {
"0" = 0;
"1" = 0;
"10" = 0;
"11" = 0;
"2" = 0;
"3" = 0;
"4" = 0;
"5" = 0;
"6" = 0;
"7" = 0;
"8" = 0;
"9" = 0;
};
};
width = 408.5;
}
);
unicode = 102;
}
{
color = 4;
glyphname = g;
kernLeft = a;
kernRight = g;
layers = (
{
anchors = (
{
name = top;
pos = (311,526);
}
);
layerId = m01;
shapes = (
{
closed = 1;
nodes = (
(59,106,o),
(150,-6,o),
(261,-6,cs),
(339,-6,o),
(407,61,o),
(437,167,c),
(437,99,o),
(431,24,o),
(420,-40,cs),
(399,-169,o),
(344,-248,o),
(274,-248,cs),
(219,-248,o),
(145,-211,o),
(102,-168,cs),
(96,-162,o),
(90,-159,o),
(86,-159,cs),
(77,-159,o),
(70,-166,o),
(70,-176,cs),
(70,-183,o),
(74,-187,o),
(83,-195,cs),
(139,-243,o),
(218,-276,o),
(273,-276,cs),
(376,-276,o),
(440,-178,o),
(460,30,cs),
(466,89,o),
(469,144,o),
(467,236,cs),
(466,290,o),
(467,358,o),
(468,425,cs),
(469,471,l),
(488,459,o),
(499,461,o),
(499,475,cs),
(499,482,o),
(496,484,o),
(470,501,c),
(471,514,ls),
(472,529,o),
(467,536,o),
(456,536,cs),
(446,536,o),
(443,532,o),
(441,512,c),
(415,527,o),
(373,536,o),
(333,536,cs),
(184,536,o),
(59,402,o),
(59,242,cs)
);
},
{
closed = 1;
nodes = (
(170,22,o),
(89,126,o),
(89,242,cs),
(89,381,o),
(205,508,o),
(333,508,cs),
(380,508,o),
(410,501,o),
(440,483,c),
(440,403,o),
(437,275,o),
(432,242,cs),
(416,118,o),
(340,22,o),
(261,22,cs)
);
}
);
userData = {
com.hugojourdan.ColorFlow = {
"0" = 0;
"1" = 0;
"10" = 0;
"11" = 0;
"2" = 0;
"3" = 0;
"4" = 0;
"5" = 0;
"6" = 0;
"7" = 0;
"8" = 0;
"9" = 0;
};
};
width = 563;
},
{
anchors = (
{
name = top;
pos = (337,537);
}
);
layerId = m003;
shapes = (
{
closed = 1;
nodes = (
(29,108,o),
(112,-4,o),
(241,-4,cs),
(308,-4,o),
(359,24,o),
(394,80,c),
(387,44,o),
(384,26,o),
(370,-34,cs),
(355,-97,o),
(329,-127,o),
(284,-127,cs),
(246,-127,o),
(209,-103,o),
(171,-78,cs),
(157,-69,o),
(141,-61,o),
(128,-61,cs),
(102,-61,o),
(59,-114,o),
(59,-145,cs),
(59,-165,o),
(68,-178,o),
(88,-196,cs),
(151,-250,o),
(241,-279,o),
(299,-279,cs),
(435,-279,o),
(538,-177,o),
(555,0,cs),
(562,72,o),
(566,164,o),
(566,236,cs),
(566,290,o),
(564,314,o),
(564,341,cs),
(564,360,l),
(576,374,o),
(583,399,o),
(583,426,cs),
(583,459,o),
(577,472,o),
(565,484,c),
(566,517,ls),
(567,543,o),
(547,554,o),
(475,554,cs),
(435,554,o),
(418,550,o),
(410,527,c),
(380,546,o),
(342,555,o),
(301,555,cs),
(144,555,o),
(29,407,o),
(29,242,cs)
);
},
{
closed = 1;
nodes = (
(247,137,o),
(221,174,o),
(221,245,cs),
(221,340,o),
(262,416,o),
(324,416,cs),
(338,416,o),
(360,410,o),
(375,394,c),
(375,382,o),
(373,297,o),
(368,266,cs),
(356,190,o),
(335,137,o),
(289,137,cs)
);
}
);
userData = {
com.hugojourdan.ColorFlow = {
"0" = 0;
"1" = 0;
"10" = 0;
"11" = 0;
"2" = 0;
"3" = 0;
"4" = 0;
"5" = 0;
"6" = 0;
"7" = 0;
"8" = 0;
"9" = 0;
};
};
width = 618;
},
{
anchors = (
{
name = top;
pos = (311,536);
}
);
layerId = "5FC9277C-B92C-4C3C-88AB-70E16AEC7C11";
shapes = (
{
closed = 1;
nodes = (
(47,108,o),
(136,-4,o),
(260,-4,cs),
(318,-4,o),
(370,22,o),
(405,85,c),
(400,43,o),
(398,22,o),
(388,-38,cs),
(376,-111,o),
(344,-194,o),
(277,-194,cs),
(232,-194,o),
(186,-164,o),
(148,-137,cs),
(134,-127,o),
(118,-120,o),
(105,-120,cs),
(79,-120,o),
(64,-146,o),
(64,-165,cs),
(64,-178,o),
(72,-191,o),
(84,-200,cs),
(156,-255,o),
(222,-279,o),
(277,-279,cs),
(401,-279,o),
(470,-159,o),
(487,18,cs),
(494,90,o),
(498,164,o),
(498,236,cs),
(498,290,o),
(497,341,o),
(497,392,cs),
(497,419,l),
(503,426,o),
(507,436,o),
(507,447,cs),
(507,457,o),
(504,466,o),
(498,475,c),
(498,511,ls),
(498,537,o),
(479,548,o),
(453,548,cs),
(440,548,o),
(423,544,o),
(416,525,c),
(385,542,o),
(353,549,o),
(320,549,cs),
(175,549,o),
(47,407,o),
(47,242,cs)
);
},
{
closed = 1;
nodes = (
(198,80,o),
(140,147,o),
(140,238,cs),
(140,359,o),
(221,465,o),
(320,465,cs),
(342,465,o),
(377,456,o),
(402,436,c),
(402,421,o),
(397,304,o),
(391,264,cs),
(371,149,o),
(338,80,o),
(264,80,cs)
);
}
);
userData = {
com.hugojourdan.ColorFlow = {
"0" = 0;
"1" = 0;
"10" = 0;
"11" = 0;
"2" = 0;
"3" = 0;
"4" = 0;
"5" = 0;
"6" = 0;
"7" = 0;
"8" = 0;
"9" = 0;
};
};
width = 575.7;
}
);
unicode = 103;
}
{
color = 4;
glyphname = h;
kernLeft = h;
kernRight = n;
layers = (
{
anchors = (
{
name = bottom;
pos = (261,0);
},
{
name = center;
pos = (163,657);
},
{
name = top;
pos = (117,800);
}
);
background = {
shapes = (
{
closed = 1;
nodes = (
(89,718,o),
(89,642,o),
(86,291,c),
(77,244,o),
(70,185,o),
(71,132,cs),
(72,99,o),
(75,65,o),
(75,33,cs),
(75,14,o),
(77,-3,o),
(86,-3,cs),
(99,-3,o),
(105,13,o),
(105,26,cs),
(102,125,o),
(107,200,o),
(118,289,c),
(158,431,o),
(237,513,o),
(305,513,cs),
(391,513,o),
(423,457,o),
(423,300,cs),
(423,233,o),
(411,87,o),
(415,17,cs),
(416,-1,o),
(421,-12,o),
(433,-12,cs),
(443,-12,o),
(449,-4,o),
(448,22,cs),
(446,43,o),
(447,57,o),
(448,85,cs),
(449,134,o),
(456,202,o),
(455,320,cs),
(454,424,o),
(441,541,o),
(306,541,cs),
(236,541,o),
(154,470,o),
(116,358,c),
(119,591,o),
(118,738,o),
(121,792,cs),
(121,817,o),
(116,822,o),
(106,822,cs),
(92,822,o),
(89,809,o),
(89,793,cs)
);
}
);
};
layerId = m01;
shapes = (
{
closed = 1;
nodes = (
(99,718,o),
(97,642,o),
(94,291,c),
(85,244,o),
(77,185,o),
(78,132,cs),
(79,99,o),
(79,58,o),
(83,16,cs),
(85,-3,o),
(89,-9,o),
(98,-9,cs),
(111,-9,o),
(113,-3,o),
(113,13,cs),
(110,125,o),
(115,200,o),
(126,289,c),
(166,431,o),
(245,513,o),
(313,513,cs),
(399,513,o),
(431,457,o),
(431,315,cs),
(431,233,o),
(419,83,o),
(423,13,cs),
(424,-5,o),
(428,-12,o),
(440,-12,cs),
(450,-12,o),
(455,-6,o),
(454,5,cs),
(452,41,o),
(453,57,o),
(454,85,cs),
(455,134,o),
(462,202,o),
(461,320,cs),
(460,424,o),
(449,541,o),
(314,541,cs),
(244,541,o),
(162,470,o),
(124,358,c),
(127,591,o),
(126,738,o),
(128,802,cs),
(128,813,o),
(124,819,o),
(114,819,cs),
(100,819,o),
(99,809,o),
(99,803,cs)
);
}
);
userData = {
com.hugojourdan.ColorFlow = {
"0" = 0;
"1" = 0;
"10" = 0;
"11" = 0;
"2" = 0;
"3" = 0;
"4" = 0;
"5" = 0;
"6" = 0;
"7" = 0;
"8" = 0;
"9" = 0;
};
};
width = 538;
},
{
anchors = (
{
name = bottom;
pos = (304,0);
},
{
name = center;
pos = (184,675);
},
{
name = top;
pos = (153,800);
}
);
layerId = m003;
shapes = (
{
closed = 1;
nodes = (
(65,712,o),
(61,638,o),
(68,301,c),
(57,245,o),
(54,200,o),
(51,147,cs),
(49,114,o),
(48,77,o),
(53,45,cs),
(57,17,o),
(82,-3,o),
(144,-3,cs),
(203,-3,o),
(235,13,o),
(237,61,cs),
(239,119,o),
(240,205,o),
(244,290,c),
(263,339,o),
(306,390,o),
(348,390,cs),
(387,390,o),
(395,362,o),
(395,285,cs),
(395,218,o),
(386,93,o),
(391,48,cs),
(396,5,o),
(414,-12,o),
(475,-12,cs),
(543,-12,o),
(568,12,o),
(567,38,cs),
(565,59,o),
(561,88,o),
(561,128,cs),
(561,165,o),
(572,230,o),
(569,326,cs),
(567,406,o),
(557,554,o),
(400,554,cs),
(325,554,o),
(275,520,o),
(237,462,c),
(240,683,o),
(239,710,o),
(239,764,cs),
(239,793,o),
(219,822,o),
(157,822,cs),
(97,822,o),
(68,809,o),
(67,762,cs)
);
}
);
userData = {
com.hugojourdan.ColorFlow = {
"0" = 0;
"1" = 0;
"10" = 0;
"11" = 0;
"2" = 0;
"3" = 0;
"4" = 0;
"5" = 0;
"6" = 0;
"7" = 0;
"8" = 0;
"9" = 0;
};
};
width = 625;
},
{
anchors = (
{
name = bottom;
pos = (282,0);
},
{
name = center;
pos = (176,659);
},
{
name = top;
pos = (146,792);
}
);
layerId = "5FC9277C-B92C-4C3C-88AB-70E16AEC7C11";
shapes = (
{
closed = 1;
nodes = (
(100,712,o),
(100,641,o),
(100,295,c),
(89,244,o),
(83,191,o),
(83,138,cs),
(82,105,o),
(86,70,o),
(88,38,cs),
(89,15,o),
(105,-3,o),
(131,-3,cs),
(158,-3,o),
(178,13,o),
(179,39,cs),
(182,119,o),
(185,205,o),
(190,290,c),
(222,405,o),
(287,453,o),
(345,453,cs),
(398,453,o),
(412,411,o),
(412,285,cs),
(412,218,o),
(403,89,o),
(409,29,cs),
(410,1,o),
(429,-12,o),
(454,-12,cs),
(480,-12,o),
(501,2,o),
(500,28,cs),
(498,49,o),
(497,69,o),
(497,92,cs),
(497,146,o),
(504,204,o),
(502,313,cs),
(500,406,o),
(489,539,o),
(351,539,cs),
(288,539,o),
(231,505,o),
(188,447,c),
(191,675,o),
(191,727,o),
(193,781,cs),
(193,807,o),
(173,822,o),
(148,822,cs),
(124,822,o),
(103,809,o),
(103,781,cs)
);
}
);
userData = {
com.hugojourdan.ColorFlow = {
"0" = 0;
"1" = 0;
"10" = 0;
"11" = 0;
"2" = 0;
"3" = 0;
"4" = 0;
"5" = 0;
"6" = 0;
"7" = 0;
"8" = 0;
"9" = 0;
};
};
width = 581.8;
}
);
unicode = 104;
}
{
color = 4;
glyphname = i;
kernLeft = i;
kernRight = i;
layers = (
{
anchors = (
{
name = bottom;
pos = (129,0);
},
{
name = center;
pos = (164,305);
}
);
layerId = m01;
shapes = (
{
closed = 1;
nodes = (
(130,351,o),
(117,45,o),
(117,4,cs),
(117,-5,o),
(120,-15,o),
(132,-15,cs),
(141,-15,o),
(147,-11,o),
(147,5,cs),
(148,210,o),
(160,305,o),
(159,516,cs),
(159,529,o),
(155,534,o),
(144,534,cs),
(134,534,o),
(129,528,o),
(129,516,cs)
);
},
{
closed = 1;
nodes = (
(115,735,o),
(115,719,cs),
(115,701,o),
(126,683,o),
(141,683,cs),
(159,683,o),
(171,701,o),
(171,721,cs),
(171,739,o),
(166,759,o),
(143,759,cs),
(124,759,o)
);
}
);
userData = {
com.hugojourdan.ColorFlow = {
"0" = 0;
"1" = 0;
"10" = 0;
"11" = 0;
"2" = 0;
"3" = 0;
"4" = 0;
"5" = 0;
"6" = 0;
"7" = 0;
"8" = 0;
"9" = 0;
};
};
width = 267;
},
{
anchors = (
{
name = bottom;
pos = (141,-6);
},
{
name = center;
pos = (165,292);
}
);
layerId = m003;
shapes = (
{
closed = 1;
nodes = (
(78,359,o),
(47,79,o),
(47,50,cs),
(47,20,o),
(60,-15,o),
(141,-15,cs),
(198,-15,o),
(233,3,o),
(234,44,cs),
(238,224,o),
(263,312,o),
(263,490,cs),
(263,533,o),
(233,555,o),
(168,555,cs),
(127,555,o),
(78,533,o),
(78,489,cs)
);
},
{
closed = 1;
nodes = (
(78,773,o),
(78,711,cs),
(78,653,o),
(117,625,o),
(179,625,cs),
(246,625,o),
(291,660,o),
(291,722,cs),
(291,759,o),
(270,809,o),
(177,809,cs),
(123,809,o)
);
}
);
userData = {
com.hugojourdan.ColorFlow = {
"0" = 0;
"1" = 0;
"10" = 0;
"11" = 0;
"2" = 0;
"3" = 0;
"4" = 0;
"5" = 0;
"6" = 0;
"7" = 0;
"8" = 0;
"9" = 0;
};
};
width = 316;
},
{
anchors = (
{
name = bottom;
pos = (130,-1);
},
{
name = center;
pos = (156,294);
}
);
layerId = "5FC9277C-B92C-4C3C-88AB-70E16AEC7C11";
shapes = (
{
closed = 1;
nodes = (
(104,355,o),
(87,75,o),
(87,46,cs),
(87,16,o),
(94,-15,o),
(134,-15,cs),
(159,-15,o),
(179,3,o),
(179,28,cs),
(181,224,o),
(196,308,o),
(196,501,cs),
(196,529,o),
(175,542,o),
(149,542,cs),
(127,542,o),
(104,529,o),
(104,501,cs)
);
},
{
closed = 1;
nodes = (
(90,745,o),
(90,712,cs),
(90,677,o),
(119,650,o),
(152,650,cs),
(189,650,o),
(221,685,o),
(221,721,cs),
(221,739,o),
(211,788,o),
(148,788,cs),
(114,788,o)
);
}
);
userData = {
com.hugojourdan.ColorFlow = {
"0" = 0;
"1" = 0;
"10" = 0;
"11" = 0;
"2" = 0;
"3" = 0;
"4" = 0;
"5" = 0;
"6" = 0;
"7" = 0;
"8" = 0;
"9" = 0;
};
};
width = 280;
}
);
unicode = 105;
}
{
color = 4;
glyphname = j;
kernLeft = j;
kernRight = j;
layers = (
{
anchors = (
{
name = center;
pos = (155,305);
}
);
background = {
shapes = (
{
closed = 1;
nodes = (
(117,426,o),
(116,331,o),
(116,236,cs),
(116,-118,o),
(67,-233,o),
(54,-233,cs),
(37,-233,o),
(11,-217,o),
(-1,-184,cs),
(-10,-160,o),
(-15,-143,o),
(-27,-143,cs),
(-40,-143,o),
(-42,-153,o),
(-42,-161,cs),
(-42,-169,o),
(-40,-179,o),
(-34,-192,cs),
(-14,-236,o),
(21,-264,o),
(50,-264,cs),
(79,-264,o),
(102,-233,o),
(117,-150,cs),
(143,-18,o),
(144,126,o),
(146,244,cs),
(148,440,o),
(154,491,o),
(157,519,cs),
(158,529,o),
(158,545,o),
(145,546,cs),
(135,547,o),
(132,540,o),
(129,516,cs)
);
},
{
closed = 1;
nodes = (
(105,710,o),
(113,691,o),
(129,691,cs),
(145,691,o),
(165,705,o),
(165,734,cs),
(165,753,o),
(154,771,o),
(138,771,cs),
(119,771,o),
(105,759,o),
(105,729,cs)
);
}
);
};
layerId = m01;
shapes = (
{
closed = 1;
nodes = (
(124,437,o),
(124,331,o),
(124,236,cs),
(124,-118,o),
(81,-236,o),
(59,-236,cs),
(29,-236,o),
(6,-195,o),
(-11,-154,cs),
(-14,-147,o),
(-20,-142,o),
(-26,-142,cs),
(-37,-142,o),
(-41,-151,o),
(-41,-159,cs),
(-41,-167,o),
(-35,-179,o),
(-29,-192,cs),
(-9,-236,o),
(23,-264,o),
(58,-264,cs),
(87,-264,o),
(110,-233,o),
(125,-150,cs),
(151,-18,o),
(152,126,o),
(154,244,cs),
(156,440,o),
(163,498,o),
(166,526,cs),
(167,536,o),
(165,546,o),
(152,546,cs),
(142,546,o),
(137,537,o),
(136,527,cs)
);
},
{
closed = 1;
nodes = (
(119,710,o),
(127,691,o),
(143,691,cs),
(159,691,o),
(179,705,o),
(179,734,cs),
(179,753,o),
(168,771,o),
(152,771,cs),
(133,771,o),
(119,759,o),
(119,729,cs)
);
}
);
userData = {
com.hugojourdan.ColorFlow = {
"0" = 0;
"1" = 0;
"10" = 0;
"11" = 0;
"2" = 0;
"3" = 0;
"4" = 0;
"5" = 0;
"6" = 0;
"7" = 0;
"8" = 0;
"9" = 0;
};
};
width = 267;
},
{
anchors = (
{
name = center;
pos = (196,292);
}
);
layerId = m003;
shapes = (
{
closed = 1;
nodes = (
(100,426,o),
(99,331,o),
(99,236,cs),
(99,-25,o),
(68,-112,o),
(48,-112,cs),
(36,-112,o),
(24,-96,o),
(5,-74,cs),
(-8,-59,o),
(-19,-50,o),
(-33,-50,cs),
(-60,-50,o),
(-114,-96,o),
(-114,-134,cs),
(-114,-151,o),
(-111,-163,o),
(-95,-180,cs),
(-50,-229,o),
(22,-264,o),
(79,-264,cs),
(174,-264,o),
(247,-184,o),
(267,-81,cs),
(288,31,o),
(289,126,o),
(291,254,cs),
(293,440,o),
(301,473,o),
(302,501,cs),
(303,521,o),
(296,555,o),
(210,555,cs),
(145,555,o),
(115,540,o),
(109,494,cs)
);
},
{
closed = 1;
nodes = (
(120,674,o),
(151,628,o),
(202,628,cs),
(255,628,o),
(324,660,o),
(324,728,cs),
(324,773,o),
(287,815,o),
(230,815,cs),
(168,815,o),
(120,786,o),
(120,719,cs)
);
}
);
userData = {
com.hugojourdan.ColorFlow = {
"0" = 0;
"1" = 0;
"10" = 0;
"11" = 0;
"2" = 0;
"3" = 0;
"4" = 0;
"5" = 0;
"6" = 0;
"7" = 0;
"8" = 0;
"9" = 0;
};
};
width = 358;
},
{
anchors = (
{
name = center;
pos = (151,294);
}
);
layerId = "5FC9277C-B92C-4C3C-88AB-70E16AEC7C11";
shapes = (
{
closed = 1;
nodes = (
(103,426,o),
(102,331,o),
(102,236,cs),
(102,-82,o),
(64,-176,o),
(49,-176,cs),
(41,-176,o),
(24,-162,o),
(5,-135,cs),
(-6,-119,o),
(-18,-112,o),
(-32,-112,cs),
(-54,-112,o),
(-78,-131,o),
(-78,-156,cs),
(-78,-163,o),
(-77,-171,o),
(-68,-184,cs),
(-32,-235,o),
(14,-264,o),
(54,-264,cs),
(108,-264,o),
(151,-214,o),
(168,-123,cs),
(192,1,o),
(193,126,o),
(195,254,cs),
(197,440,o),
(204,484,o),
(206,512,cs),
(207,528,o),
(192,549,o),
(159,549,cs),
(140,549,o),
(118,540,o),
(114,508,cs)
);
},
{
closed = 1;
nodes = (
(99,694,o),
(118,662,o),
(149,662,cs),
(181,662,o),
(223,684,o),
(223,732,cs),
(223,763,o),
(201,793,o),
(166,793,cs),
(128,793,o),
(99,773,o),
(99,725,cs)
);
}
);
userData = {
com.hugojourdan.ColorFlow = {
"0" = 0;
"1" = 0;
"10" = 0;
"11" = 0;
"2" = 0;
"3" = 0;
"4" = 0;
"5" = 0;
"6" = 0;
"7" = 0;
"8" = 0;
"9" = 0;
};
};
width = 283.3;
}
);
unicode = 106;
}
{
color = 4;
glyphname = k;
kernLeft = h;
kernRight = k;
layers = (
{
anchors = (
{
name = bottom;
pos = (271,-10);
},
{
name = top;
pos = (160,791);
}
);
background = {
shapes = (
{
closed = 1;
nodes = (
(116,540,o),
(100,283,o),
(91,20,cs),
(91,3,o),
(94,-10,o),
(103,-10,cs),
(116,-10,o),
(121,3,o),
(121,20,cs),
(123,99,o),
(128,178,o),
(130,249,c),
(158,215,o),
(189,168,o),
(220,131,cs),
(273,65,o),
(344,-8,o),
(412,-8,cs),
(432,-8,o),
(468,12,o),
(488,39,cs),
(502,57,o),
(511,69,o),
(511,79,cs),
(511,87,o),
(508,94,o),
(500,94,cs),
(488,94,o),
(483,81,o),
(467,62,cs),
(446,38,o),
(428,22,o),
(406,22,cs),
(363,22,o),
(292,88,o),
(251,140,cs),
(214,189,o),
(171,244,o),
(148,271,c),
(205,313,o),
(398,467,o),
(448,506,cs),
(458,514,o),
(462,519,o),
(462,529,cs),
(462,546,o),
(449,547,o),
(442,542,cs),
(433,536,o),
(415,523,o),
(395,507,cs),
(309,438,o),
(191,334,o),
(135,293,c),
(140,537,o),
(167,726,o),
(167,774,cs),
(167,806,o),
(161,822,o),
(150,822,cs),
(141,822,o),
(138,813,o),
(136,788,cs)
);
}
);
};
layerId = m01;
shapes = (
{
closed = 1;
nodes = (
(124,540,o),
(108,277,o),
(99,14,cs),
(99,-3,o),
(102,-10,o),
(111,-10,cs),
(124,-10,o),
(129,-3,o),
(129,14,cs),
(131,93,o),
(136,178,o),
(138,249,c),
(166,215,o),
(197,168,o),
(236,120,cs),
(281,65,o),
(352,-11,o),
(415,-11,cs),
(457,-11,o),
(495,31,o),
(513,60,cs),
(517,66,o),
(520,71,o),
(520,76,cs),
(520,84,o),
(512,89,o),
(506,89,cs),
(500,89,o),
(495,86,o),
(490,77,cs),
(473,49,o),
(446,17,o),
(416,17,cs),
(373,17,o),
(297,88,o),
(256,140,cs),
(219,189,o),
(176,245,o),
(153,272,c),
(210,316,o),
(406,468,o),
(460,510,cs),
(466,515,o),
(472,520,o),
(472,525,cs),
(472,536,o),
(465,543,o),
(457,543,cs),
(452,543,o),
(450,543,o),
(443,537,cs),
(384,488,o),
(205,345,o),
(140,295,c),
(148,540,o),
(175,726,o),
(175,800,cs),
(175,812,o),
(172,817,o),
(161,817,cs),
(152,817,o),
(146,813,o),
(145,797,cs)
);
}
);
userData = {
com.hugojourdan.ColorFlow = {
"0" = 0;
"1" = 0;
"10" = 0;
"11" = 0;
"2" = 0;
"3" = 0;
"4" = 0;
"5" = 0;
"6" = 0;
"7" = 0;
"8" = 0;
"9" = 0;
};
};
width = 554;
},
{
anchors = (
{
name = bottom;
pos = (297,-10);
},
{
name = top;
pos = (175,796);
}
);
layerId = m003;
shapes = (
{
closed = 1;
nodes = (
(62,540,o),
(50,283,o),
(42,48,cs),
(41,3,o),
(68,-10,o),
(141,-10,cs),
(197,-10,o),
(222,3,o),
(223,48,cs),
(224,99,o),
(227,165,o),
(229,236,c),
(252,193,o),
(264,157,o),
(299,99,cs),
(339,33,o),
(376,-8,o),
(454,-8,cs),
(529,-8,o),
(597,40,o),
(640,79,cs),
(658,95,o),
(673,118,o),
(673,144,cs),
(673,180,o),
(636,222,o),
(594,222,cs),
(579,222,o),
(565,213,o),
(554,200,cs),
(532,174,o),
(518,157,o),
(499,157,cs),
(479,157,o),
(465,174,o),
(443,212,cs),
(427,240,o),
(410,269,o),
(394,296,c),
(451,338,o),
(513,383,o),
(555,416,cs),
(573,430,o),
(577,444,o),
(577,457,cs),
(577,480,o),
(560,554,o),
(491,554,cs),
(466,554,o),
(449,546,o),
(425,526,cs),
(352,466,o),
(253,383,o),
(232,370,c),
(244,620,o),
(264,714,o),
(264,762,cs),
(264,794,o),
(253,822,o),
(186,822,cs),
(106,822,o),
(87,806,o),
(84,770,cs)
);
}
);
userData = {
com.hugojourdan.ColorFlow = {
"0" = 0;
"1" = 0;
"10" = 0;
"11" = 0;
"2" = 0;
"3" = 0;
"4" = 0;
"5" = 0;
"6" = 0;
"7" = 0;
"8" = 0;
"9" = 0;
};
};
width = 687;
},
{
anchors = (
{
name = bottom;
pos = (288,-10);
},
{
name = top;
pos = (171,791);
}
);
layerId = "5FC9277C-B92C-4C3C-88AB-70E16AEC7C11";
shapes = (
{
closed = 1;
nodes = (
(102,540,o),
(90,283,o),
(81,31,cs),
(81,3,o),
(101,-10,o),
(127,-10,cs),
(151,-10,o),
(172,3,o),
(172,31,cs),
(174,99,o),
(177,165,o),
(179,236,c),
(202,211,o),
(227,169,o),
(259,123,cs),
(308,57,o),
(365,-8,o),
(437,-8,cs),
(479,-8,o),
(527,23,o),
(556,55,cs),
(572,72,o),
(583,89,o),
(583,105,cs),
(583,131,o),
(560,146,o),
(539,146,cs),
(526,146,o),
(514,137,o),
(504,124,cs),
(488,106,o),
(464,79,o),
(443,79,cs),
(409,79,o),
(370,118,o),
(336,165,cs),
(307,206,o),
(274,254,o),
(253,281,c),
(310,323,o),
(452,433,o),
(502,472,cs),
(512,480,o),
(516,493,o),
(516,506,cs),
(516,529,o),
(499,547,o),
(473,547,cs),
(462,547,o),
(451,542,o),
(441,534,cs),
(361,469,o),
(186,331,o),
(182,328,c),
(189,574,o),
(214,719,o),
(214,767,cs),
(214,799,o),
(205,822,o),
(172,822,cs),
(146,822,o),
(127,806,o),
(125,781,cs)
);
}
);
userData = {
com.hugojourdan.ColorFlow = {
"0" = 0;
"1" = 0;
"10" = 0;
"11" = 0;
"2" = 0;
"3" = 0;
"4" = 0;
"5" = 0;
"6" = 0;
"7" = 0;
"8" = 0;
"9" = 0;
};
};
width = 608.7;
}
);
unicode = 107;
}
{
color = 4;
glyphname = l;
kernLeft = h;
kernRight = l;
layers = (
{
anchors = (
{
name = bottom;
pos = (128,0);
},
{
name = center;
pos = (142,414);
},
{
name = top;
pos = (169,800);
},
{
name = topright;
pos = (185,773);
}
);
layerId = m01;
shapes = (
{
closed = 1;
nodes = (
(135,540,o),
(122,222,o),
(110,10,cs),
(109,-3,o),
(111,-10,o),
(122,-10,cs),
(134,-10,o),
(140,-3,o),
(140,12,cs),
(142,99,o),
(146,165,o),
(149,236,cs),
(165,566,o),
(179,717,o),
(185,799,cs),
(186,815,o),
(182,820,o),
(170,820,cs),
(160,820,o),
(156,814,o),
(155,799,cs)
);
}
);
userData = {
com.hugojourdan.ColorFlow = {
"0" = 0;
"1" = 0;
"10" = 0;
"11" = 0;
"2" = 0;
"3" = 0;
"4" = 0;
"5" = 0;
"6" = 0;
"7" = 0;
"8" = 0;
"9" = 0;
};
};
width = 282;
},
{
anchors = (
{
name = bottom;
pos = (150,0);
},
{
name = center;
pos = (165,420);
},
{
name = top;
pos = (178,800);
},
{
name = topright;
pos = (284,770);
}
);
layerId = m003;
shapes = (
{
closed = 1;
nodes = (
(72,540,o),
(60,283,o),
(53,59,cs),
(51,3,o),
(76,-10,o),
(147,-10,cs),
(214,-10,o),
(238,3,o),
(239,54,cs),
(240,99,o),
(243,165,o),
(245,236,cs),
(255,569,o),
(275,701,o),
(279,757,cs),
(281,789,o),
(270,822,o),
(192,822,cs),
(118,822,o),
(97,806,o),
(93,761,cs)
);
}
);
userData = {
com.hugojourdan.ColorFlow = {
"0" = 0;
"1" = 0;
"10" = 0;
"11" = 0;
"2" = 0;
"3" = 0;
"4" = 0;
"5" = 0;
"6" = 0;
"7" = 0;
"8" = 0;
"9" = 0;
};
};
width = 312;
},
{
anchors = (
{
name = bottom;
pos = (135,0);
},
{
name = center;
pos = (146,416);
},
{
name = top;
pos = (163,800);
},
{
name = topright;
pos = (213,770);
}
);
layerId = "5FC9277C-B92C-4C3C-88AB-70E16AEC7C11";
shapes = (
{
closed = 1;
nodes = (
(105,540,o),
(93,283,o),
(85,32,cs),
(84,3,o),
(105,-10,o),
(130,-10,cs),
(156,-10,o),
(176,3,o),
(176,32,cs),
(178,99,o),
(181,165,o),
(183,236,cs),
(193,569,o),
(214,711,o),
(218,767,cs),
(220,799,o),
(210,822,o),
(175,822,cs),
(150,822,o),
(130,806,o),
(128,780,cs)
);
}
);
userData = {
com.hugojourdan.ColorFlow = {
"0" = 0;
"1" = 0;
"10" = 0;
"11" = 0;
"2" = 0;
"3" = 0;
"4" = 0;
"5" = 0;
"6" = 0;
"7" = 0;
"8" = 0;
"9" = 0;
};
};
width = 286.8;
}
);
unicode = 108;
}
{
color = 4;
glyphname = o;
kernLeft = o;
kernRight = o;
layers = (
{
anchors = (
{
name = bottom;
pos = (279,5);
},
{
name = center;
pos = (271,268);
},
{
name = ogonek;
pos = (368,32);
},
{
name = top;
pos = (280,536);
},
{
name = topright;
pos = (514,536);
}
);
layerId = m01;
shapes = (
{
closed = 1;
nodes = (
(326,540,o),
(281,540,cs),
(151,540,o),
(61,405,o),
(61,277,cs),
(61,108,o),
(166,0,o),
(283,0,cs),
(401,0,o),
(480,141,o),
(480,287,cs),
(480,369,o),
(446,455,o),
(386,505,c),
(359,525,o)
);
},
{
closed = 1;
nodes = (
(91,382,o),
(162,511,o),
(282,511,cs),
(302,511,o),
(329,508,o),
(352,497,c),
(409,460,o),
(450,376,o),
(450,285,cs),
(450,170,o),
(393,28,o),
(281,28,cs),
(185,28,o),
(91,128,o),
(91,280,cs)
);
}
);
userData = {
com.hugojourdan.ColorFlow = {
"0" = 0;
"1" = 0;
"10" = 0;
"11" = 0;
"2" = 0;
"3" = 0;
"4" = 0;
"5" = 0;
"6" = 0;
"7" = 0;
"8" = 0;
"9" = 0;
};
};
width = 535;
},
{
anchors = (
{
name = bottom;
pos = (300,0);
},
{
name = center;
pos = (299,268);
},
{
name = ogonek;
pos = (428,34);
},
{
name = top;
pos = (306,536);
},
{
name = topright;
pos = (592,536);
}
);
layerId = m003;
shapes = (
{
closed = 1;
nodes = (
(362,555,o),
(314,555,cs),
(112,555,o),
(23,415,o),
(23,271,cs),
(23,121,o),
(104,-8,o),
(316,-8,cs),
(497,-8,o),
(578,141,o),
(578,287,cs),
(578,379,o),
(549,463,o),
(485,513,c),
(455,539,o)
);
},
{
closed = 1;
nodes = (
(212,344,o),
(231,415,o),
(307,415,cs),
(319,415,o),
(328,414,o),
(341,410,c),
(370,390,o),
(389,352,o),
(389,278,cs),
(389,216,o),
(370,133,o),
(308,133,cs),
(239,133,o),
(212,207,o),
(212,276,cs)
);
}
);
userData = {
com.hugojourdan.ColorFlow = {
"0" = 0;
"1" = 0;
"10" = 0;
"11" = 0;
"2" = 0;
"3" = 0;
"4" = 0;
"5" = 0;
"6" = 0;
"7" = 0;
"8" = 0;
"9" = 0;
};
};
width = 598;
},
{
anchors = (
{
name = bottom;
pos = (286,1);
},
{
name = center;
pos = (280,268);
},
{
name = ogonek;
pos = (342,12);
},
{
name = top;
pos = (288,536);
},
{
name = topright;
pos = (542,536);
}
);
layerId = "5FC9277C-B92C-4C3C-88AB-70E16AEC7C11";
shapes = (
{
closed = 1;
nodes = (
(337,546,o),
(291,546,cs),
(138,546,o),
(53,409,o),
(53,271,cs),
(53,124,o),
(157,-3,o),
(293,-3,cs),
(426,-3,o),
(503,141,o),
(503,287,cs),
(503,373,o),
(475,457,o),
(414,507,c),
(386,533,o)
);
},
{
closed = 1;
nodes = (
(145,373,o),
(197,458,o),
(289,458,cs),
(306,458,o),
(322,456,o),
(340,451,c),
(384,420,o),
(412,363,o),
(412,282,cs),
(412,190,o),
(375,84,o),
(290,84,cs),
(198,84,o),
(145,178,o),
(145,278,cs)
);
}
);
userData = {
com.hugojourdan.ColorFlow = {
"0" = 0;
"1" = 0;
"10" = 0;
"11" = 0;
"2" = 0;
"3" = 0;
"4" = 0;
"5" = 0;
"6" = 0;
"7" = 0;
"8" = 0;
"9" = 0;
};
};
width = 554.8;
}
);
unicode = 111;
}
{
color = 4;
glyphname = p;
kernLeft = p;
kernRight = o;
layers = (
{
anchors = (
{
name = bottom;
pos = (291,0);
},
{
name = center;
pos = (157,258);
},
{
name = top;
pos = (320,526);
}
);
guides = (
{
pos = (581,539);
}
);
layerId = m01;
shapes = (
{
closed = 1;
nodes = (
(109,-280,o),
(113,-273,o),
(114,-265,cs),
(121,-157,o),
(129,-46,o),
(134,45,c),
(167,15,o),
(219,-7,o),
(266,-7,cs),
(403,-7,o),
(522,127,o),
(522,300,cs),
(522,407,o),
(456,539,o),
(354,539,cs),
(274,539,o),
(204,475,o),
(145,336,c),
(147,400,o),
(152,480,o),
(155,529,cs),
(155,537,o),
(150,543,o),
(140,543,cs),
(130,543,o),
(125,537,o),
(125,527,cs),
(114,301,o),
(107,18,o),
(85,-266,cs),
(84,-274,o),
(89,-280,o),
(97,-280,cs)
);
},
{
closed = 1;
nodes = (
(226,21,o),
(170,41,o),
(136,75,c),
(139,144,o),
(141,212,o),
(144,281,c),
(188,369,o),
(242,511,o),
(353,511,cs),
(427,511,o),
(492,401,o),
(492,299,cs),
(492,122,o),
(369,21,o),
(269,21,cs)
);
}
);
userData = {
com.hugojourdan.ColorFlow = {
"0" = 0;
"1" = 0;
"10" = 0;
"11" = 0;
"2" = 0;
"3" = 0;
"4" = 0;
"5" = 0;
"6" = 0;
"7" = 0;
"8" = 0;
"9" = 0;
};
};
width = 582;
},
{
anchors = (
{
name = bottom;
pos = (365,0);
},
{
name = center;
pos = (158,258);
},
{
name = top;
pos = (347,546);
}
);
layerId = m003;
shapes = (
{
closed = 1;
nodes = (
(184,-285,o),
(222,-270,o),
(225,-222,cs),
(230,-154,o),
(230,-73,o),
(235,18,c),
(271,-2,o),
(309,-14,o),
(348,-14,cs),
(504,-14,o),
(604,150,o),
(604,308,cs),
(604,415,o),
(554,555,o),
(405,555,cs),
(338,555,o),
(276,519,o),
(239,443,c),
(240,467,o),
(241,483,o),
(241,501,cs),
(241,527,o),
(220,555,o),
(166,555,cs),
(115,555,o),
(70,540,o),
(68,483,cs),
(58,259,o),
(48,11,o),
(33,-215,cs),
(29,-270,o),
(64,-285,o),
(134,-285,cs)
);
},
{
closed = 1;
nodes = (
(292,121,o),
(264,135,o),
(244,150,c),
(245,189,o),
(249,227,o),
(250,266,c),
(267,315,o),
(309,395,o),
(361,395,cs),
(400,395,o),
(412,353,o),
(412,300,cs),
(412,183,o),
(369,121,o),
(318,121,cs)
);
}
);
userData = {
com.hugojourdan.ColorFlow = {
"0" = 0;
"1" = 0;
"10" = 0;
"11" = 0;
"2" = 0;
"3" = 0;
"4" = 0;
"5" = 0;
"6" = 0;
"7" = 0;
"8" = 0;
"9" = 0;
};
};
width = 633;
},
{
anchors = (
{
name = bottom;
pos = (310,0);
},
{
name = center;
pos = (151,258);
},
{
name = top;
pos = (331,537);
}
);
layerId = "5FC9277C-B92C-4C3C-88AB-70E16AEC7C11";
shapes = (
{
closed = 1;
nodes = (
(145,-284,o),
(160,-267,o),
(161,-242,cs),
(166,-145,o),
(171,-59,o),
(175,39,c),
(216,5,o),
(267,-14,o),
(318,-14,cs),
(452,-14,o),
(551,129,o),
(551,296,cs),
(551,429,o),
(471,544,o),
(369,544,cs),
(305,544,o),
(245,508,o),
(194,438,c),
(196,475,o),
(197,494,o),
(197,515,cs),
(197,537,o),
(181,556,o),
(160,556,cs),
(137,556,o),
(108,543,o),
(107,514,cs),
(84,57,o),
(81,-7,o),
(69,-241,cs),
(68,-271,o),
(88,-284,o),
(116,-284,cs)
);
},
{
closed = 1;
nodes = (
(273,70,o),
(219,93,o),
(178,134,c),
(180,181,o),
(182,217,o),
(183,262,c),
(217,365,o),
(295,458,o),
(354,458,cs),
(414,458,o),
(456,386,o),
(456,287,cs),
(456,171,o),
(392,70,o),
(316,70,cs)
);
}
);
userData = {
com.hugojourdan.ColorFlow = {
"0" = 0;
"1" = 0;
"10" = 0;
"11" = 0;
"2" = 0;
"3" = 0;
"4" = 0;
"5" = 0;
"6" = 0;
"7" = 0;
"8" = 0;
"9" = 0;
};
};
width = 601.5;
}
);
unicode = 112;
}
{
color = 4;
glyphname = r;
kernLeft = n;
kernRight = r;
layers = (
{
anchors = (
{
name = bottom;
pos = (122,0);
},
{
name = center;
pos = (164,156);
},
{
name = top;
pos = (280,523);
}
);
background = {
shapes = (
{
closed = 1;
nodes = (
(107,241,l),
(103,200,o),
(96,106,o),
(96,66,cs),
(96,16,o),
(99,-13,o),
(117,-13,cs),
(133,-13,o),
(133,1,o),
(133,12,cs),
(134,91,o),
(135,248,o),
(141,344,c),
(181,431,o),
(234,513,o),
(304,513,cs),
(343,513,o),
(373,496,o),
(394,475,cs),
(409,460,o),
(423,464,o),
(423,477,cs),
(423,487,o),
(414,496,o),
(405,503,cs),
(375,528,o),
(334,540,o),
(306,540,cs),
(238,540,o),
(193,491,o),
(141,398,c),
(144,425,o),
(147,497,o),
(147,521,cs),
(147,535,o),
(140,540,o),
(129,540,cs),
(117,540,o),
(114,531,o),
(114,522,cs)
);
}
);
};
layerId = m01;
shapes = (
{
closed = 1;
nodes = (
(115,241,l),
(109,183,o),
(104,95,o),
(104,56,cs),
(104,10,o),
(111,-13,o),
(125,-13,cs),
(137,-13,o),
(141,-9,o),
(141,5,cs),
(142,84,o),
(143,248,o),
(149,344,c),
(201,457,o),
(255,513,o),
(312,513,cs),
(346,513,o),
(377,500,o),
(402,475,cs),
(410,467,o),
(414,465,o),
(420,465,cs),
(426,465,o),
(431,471,o),
(431,478,cs),
(431,483,o),
(428,489,o),
(423,494,cs),
(398,521,o),
(353,540,o),
(314,540,cs),
(251,540,o),
(204,500,o),
(149,400,c),
(152,420,o),
(155,488,o),
(155,521,cs),
(155,534,o),
(149,540,o),
(137,540,cs),
(127,540,o),
(122,534,o),
(122,522,cs)
);
}
);
userData = {
com.hugojourdan.ColorFlow = {
"0" = 0;
"1" = 0;
"10" = 0;
"11" = 0;
"2" = 0;
"3" = 0;
"4" = 0;
"5" = 0;
"6" = 0;
"7" = 0;
"8" = 0;
"9" = 0;
};
};
width = 447;
},
{
anchors = (
{
name = bottom;
pos = (137,0);
},
{
name = center;
pos = (166,156);
},
{
name = top;
pos = (307,536);
}
);
layerId = m003;
shapes = (
{
closed = 1;
nodes = (
(62,241,l),
(55,200,o),
(49,121,o),
(49,81,cs),
(49,31,o),
(62,-13,o),
(156,-13,cs),
(179,-13,o),
(238,1,o),
(239,50,cs),
(239,91,o),
(241,158,o),
(243,248,c),
(262,328,o),
(298,390,o),
(358,390,cs),
(382,390,o),
(399,383,o),
(414,377,cs),
(426,372,o),
(437,368,o),
(450,368,cs),
(483,368,o),
(510,392,o),
(520,442,cs),
(531,498,o),
(504,520,o),
(488,530,cs),
(450,553,o),
(414,555,o),
(396,555,cs),
(332,555,o),
(279,510,o),
(249,444,c),
(252,471,o),
(252,488,o),
(252,501,cs),
(252,530,o),
(230,553,o),
(172,553,cs),
(92,553,o),
(68,531,o),
(67,481,cs)
);
}
);
userData = {
com.hugojourdan.ColorFlow = {
"0" = 0;
"1" = 0;
"10" = 0;
"11" = 0;
"2" = 0;
"3" = 0;
"4" = 0;
"5" = 0;
"6" = 0;
"7" = 0;
"8" = 0;
"9" = 0;
};
};
width = 531;
},
{
anchors = (
{
name = bottom;
pos = (129,0);
},
{
name = center;
pos = (154,156);
},
{
name = top;
pos = (285,529);
}
);
layerId = "5FC9277C-B92C-4C3C-88AB-70E16AEC7C11";
shapes = (
{
closed = 1;
nodes = (
(90,241,l),
(83,200,o),
(79,121,o),
(79,81,cs),
(79,31,o),
(87,-13,o),
(131,-13,cs),
(154,-13,o),
(177,1,o),
(177,27,cs),
(178,91,o),
(180,158,o),
(182,248,c),
(212,371,o),
(256,457,o),
(335,457,cs),
(357,457,o),
(371,448,o),
(384,440,cs),
(395,433,o),
(405,427,o),
(419,427,cs),
(443,427,o),
(462,443,o),
(463,472,cs),
(464,491,o),
(458,503,o),
(442,513,cs),
(404,536,o),
(368,543,o),
(338,543,cs),
(277,543,o),
(227,510,o),
(188,444,c),
(191,471,o),
(191,493,o),
(191,506,cs),
(191,532,o),
(171,545,o),
(147,545,cs),
(121,545,o),
(100,531,o),
(99,503,cs)
);
}
);
userData = {
com.hugojourdan.ColorFlow = {
"0" = 0;
"1" = 0;
"10" = 0;
"11" = 0;
"2" = 0;
"3" = 0;
"4" = 0;
"5" = 0;
"6" = 0;
"7" = 0;
"8" = 0;
"9" = 0;
};
};
width = 465.3;
}
);
unicode = 114;
}
{
color = 4;
glyphname = t;
kernLeft = t;
kernRight = t;
layers = (
{
anchors = (
{
name = bottom;
pos = (208,5);
},
{
name = center;
pos = (193,306);
},
{
name = top;
pos = (176,647);
},
{
name = topright;
pos = (215,800);
}
);
layerId = m01;
shapes = (
{
closed = 1;
nodes = (
(133,505,o),
(121,410,o),
(121,288,cs),
(121,218,o),
(126,157,o),
(135,105,cs),
(148,35,o),
(176,-8,o),
(208,-8,cs),
(230,-8,o),
(267,24,o),
(298,69,cs),
(306,81,o),
(307,84,o),
(307,91,cs),
(307,98,o),
(300,104,o),
(292,104,cs),
(288,104,o),
(284,100,o),
(275,87,cs),
(249,47,o),
(222,21,o),
(208,21,cs),
(179,21,o),
(151,150,o),
(151,285,cs),
(151,398,o),
(158,496,o),
(178,659,cs),
(180,673,o),
(176,680,o),
(165,680,cs),
(153,680,o),
(150,675,o),
(148,656,cs)
);
},
{
closed = 1;
nodes = (
(191,501,o),
(243,503,o),
(310,503,cs),
(323,503,o),
(330,509,o),
(329,519,cs),
(328,528,o),
(323,531,o),
(310,531,cs),
(188,531,o),
(159,530,o),
(71,522,cs),
(60,521,o),
(56,517,o),
(56,508,cs),
(56,499,o),
(62,494,o),
(72,495,cs)
);
}
);
userData = {
com.hugojourdan.ColorFlow = {
"0" = 0;
"1" = 0;
"10" = 0;
"11" = 0;
"2" = 0;
"3" = 0;
"4" = 0;
"5" = 0;
"6" = 0;
"7" = 0;
"8" = 0;
"9" = 0;
};
};
width = 369;
},
{
anchors = (
{
name = bottom;
pos = (249,5);
},
{
name = center;
pos = (205,306);
},
{
name = top;
pos = (213,647);
},
{
name = topright;
pos = (302,820);
}
);
layerId = m003;
shapes = (
{
closed = 1;
nodes = (
(88,518,o),
(83,410,o),
(83,288,cs),
(83,228,o),
(83,176,o),
(97,117,cs),
(115,42,o),
(150,-8,o),
(245,-8,cs),
(299,-8,o),
(383,17,o),
(441,72,cs),
(480,109,o),
(478,136,o),
(478,145,cs),
(478,186,o),
(431,215,o),
(401,215,cs),
(384,215,o),
(373,204,o),
(365,195,cs),
(352,180,o),
(328,151,o),
(310,151,cs),
(291,151,o),
(276,162,o),
(272,285,cs),
(268,408,o),
(281,523,o),
(294,622,cs),
(301,673,o),
(245,686,o),
(187,686,cs),
(130,686,o),
(112,665,o),
(107,633,cs)
);
},
{
closed = 1;
nodes = (
(172,414,o),
(293,416,o),
(405,416,cs),
(426,416,o),
(453,433,o),
(453,475,cs),
(453,525,o),
(428,543,o),
(405,543,cs),
(295,543,o),
(130,541,o),
(60,536,cs),
(34,534,o),
(12,516,o),
(12,473,cs),
(12,427,o),
(34,408,o),
(60,409,cs)
);
}
);
userData = {
com.hugojourdan.ColorFlow = {
"0" = 0;
"1" = 0;
"10" = 0;
"11" = 0;
"2" = 0;
"3" = 0;
"4" = 0;
"5" = 0;
"6" = 0;
"7" = 0;
"8" = 0;
"9" = 0;
};
};
width = 502;
},
{
anchors = (
{
name = bottom;
pos = (231,5);
},
{
name = center;
pos = (172,306);
},
{
name = top;
pos = (180,647);
},
{
name = topright;
pos = (242,802);
}
);
layerId = "5FC9277C-B92C-4C3C-88AB-70E16AEC7C11";
shapes = (
{
closed = 1;
nodes = (
(116,510,o),
(106,410,o),
(106,288,cs),
(106,228,o),
(110,169,o),
(120,110,cs),
(135,29,o),
(173,-8,o),
(225,-8,cs),
(268,-8,o),
(319,19,o),
(360,72,cs),
(370,85,o),
(375,96,o),
(375,105,cs),
(375,129,o),
(354,149,o),
(331,149,cs),
(321,149,o),
(311,146,o),
(303,137,cs),
(290,122,o),
(251,78,o),
(233,78,cs),
(221,78,o),
(200,133,o),
(199,285,cs),
(199,408,o),
(208,516,o),
(224,645,cs),
(227,673,o),
(201,686,o),
(177,686,cs),
(153,686,o),
(135,672,o),
(132,646,cs)
);
},
{
closed = 1;
nodes = (
(192,450,o),
(226,452,o),
(338,452,cs),
(359,452,o),
(380,469,o),
(380,493,cs),
(379,518,o),
(361,536,o),
(338,536,cs),
(228,536,o),
(150,534,o),
(80,529,cs),
(54,527,o),
(40,509,o),
(40,487,cs),
(40,463,o),
(54,444,o),
(80,445,cs)
);
}
);
userData = {
com.hugojourdan.ColorFlow = {
"0" = 0;
"1" = 0;
"10" = 0;
"11" = 0;
"2" = 0;
"3" = 0;
"4" = 0;
"5" = 0;
"6" = 0;
"7" = 0;
"8" = 0;
"9" = 0;
};
};
width = 407.5;
}
);
unicode = 116;
}
{
color = 4;
glyphname = u;
kernLeft = u;
kernRight = u;
layers = (
{
anchors = (
{
name = bottom;
pos = (274,-13);
},
{
name = center;
pos = (304,338);
},
{
name = ogonek;
pos = (456,8);
},
{
name = top;
pos = (302,546);
},
{
name = topright;
pos = (578,536);
}
);
background = {
shapes = (
{
closed = 1;
nodes = (
(304,-10,o),
(361,32,o),
(431,177,c),
(430,128,o),
(424,53,o),
(423,12,cs),
(423,-2,o),
(424,-9,o),
(437,-9,cs),
(450,-9,o),
(452,-3,o),
(453,9,cs),
(458,122,o),
(459,233,o),
(469,303,c),
(483,387,o),
(482,505,o),
(481,519,cs),
(480,529,o),
(477,540,o),
(464,540,cs),
(457,540,o),
(449,533,o),
(450,509,cs),
(450,444,o),
(448,382,o),
(437,284,c),
(420,173,o),
(325,18,o),
(248,18,cs),
(161,18,o),
(112,148,o),
(112,282,cs),
(112,425,o),
(140,512,o),
(140,522,cs),
(140,537,o),
(133,539,o),
(122,539,cs),
(117,539,o),
(112,537,o),
(110,524,cs),
(97,457,o),
(82,370,o),
(82,283,cs),
(82,153,o),
(128,-10,o),
(246,-10,cs)
);
}
);
};
layerId = m01;
shapes = (
{
closed = 1;
nodes = (
(320,-10,o),
(376,47,o),
(439,177,c),
(438,128,o),
(432,53,o),
(431,12,cs),
(431,-5,o),
(434,-9,o),
(445,-9,cs),
(456,-9,o),
(460,-5,o),
(461,9,cs),
(466,122,o),
(467,233,o),
(477,303,c),
(485,354,o),
(492,476,o),
(489,519,cs),
(488,533,o),
(482,540,o),
(472,540,cs),
(463,540,o),
(457,527,o),
(458,509,cs),
(458,433,o),
(454,371,o),
(445,284,c),
(426,160,o),
(325,18,o),
(256,18,cs),
(178,18,o),
(120,131,o),
(120,282,cs),
(120,425,o),
(148,512,o),
(148,522,cs),
(148,535,o),
(143,539,o),
(130,539,cs),
(124,539,o),
(120,535,o),
(118,524,cs),
(99,426,o),
(90,349,o),
(90,283,cs),
(90,113,o),
(159,-10,o),
(254,-10,cs)
);
}
);
userData = {
com.hugojourdan.ColorFlow = {
"0" = 0;
"1" = 0;
"10" = 0;
"11" = 0;
"2" = 0;
"3" = 0;
"4" = 0;
"5" = 0;
"6" = 0;
"7" = 0;
"8" = 0;
"9" = 0;
};
};
width = 581;
},
{
anchors = (
{
name = bottom;
pos = (289,-13);
},
{
name = center;
pos = (307,340);
},
{
name = ogonek;
pos = (517,10);
},
{
name = top;
pos = (318,546);
},
{
name = topright;
pos = (561,536);
}
);
background = {
shapes = (
{
closed = 1;
nodes = (
(79,440,o),
(65,355,o),
(65,275,cs),
(65,143,o),
(111,-12,o),
(243,-12,cs),
(308,-12,o),
(358,32,o),
(400,96,c),
(395,66,o),
(394,47,o),
(394,34,cs),
(394,10,o),
(401,-11,o),
(434,-11,cs),
(457,-11,o),
(473,7,o),
(475,26,cs),
(485,120,o),
(485,214,o),
(490,308,c),
(500,364,o),
(502,418,o),
(502,459,cs),
(502,478,o),
(502,494,o),
(501,506,cs),
(500,532,o),
(481,544,o),
(461,544,cs),
(441,544,o),
(420,531,o),
(420,505,cs),
(419,444,o),
(418,377,o),
(413,301,c),
(392,218,o),
(332,66,o),
(241,66,cs),
(173,66,o),
(148,183,o),
(147,277,cs),
(147,405,o),
(172,466,o),
(172,498,cs),
(172,523,o),
(156,543,o),
(133,543,cs),
(115,543,o),
(96,532,o),
(93,514,cs)
);
}
);
};
layerId = m003;
shapes = (
{
closed = 1;
nodes = (
(336,-13,o),
(370,68,o),
(389,116,c),
(390,78,o),
(382,53,o),
(382,34,cs),
(382,13,o),
(403,-14,o),
(460,-14,cs),
(522,-14,o),
(555,-1,o),
(555,39,cs),
(555,99,o),
(558,175,o),
(553,318,c),
(564,368,o),
(567,421,o),
(567,468,cs),
(567,512,o),
(558,553,o),
(469,553,cs),
(404,553,o),
(378,527,o),
(376,497,cs),
(372,443,o),
(374,366,o),
(379,292,c),
(359,223,o),
(322,149,o),
(275,149,cs),
(241,149,o),
(230,175,o),
(230,242,cs),
(230,342,o),
(246,394,o),
(261,479,cs),
(268,522,o),
(242,552,o),
(175,552,cs),
(107,552,o),
(82,522,o),
(77,492,cs),
(61,404,o),
(49,324,o),
(49,217,cs),
(49,80,o),
(105,-13,o),
(222,-13,cs)
);
}
);
userData = {
com.hugojourdan.ColorFlow = {
"0" = 0;
"1" = 0;
"10" = 0;
"11" = 0;
"2" = 0;
"3" = 0;
"4" = 0;
"5" = 0;
"6" = 0;
"7" = 0;
"8" = 0;
"9" = 0;
};
};
width = 622;
},
{
anchors = (
{
name = bottom;
pos = (272,-13);
},
{
name = center;
pos = (295,338);
},
{
name = ogonek;
pos = (457,10);
},
{
name = top;
pos = (291,546);
},
{
name = topright;
pos = (564,536);
}
);
layerId = "5FC9277C-B92C-4C3C-88AB-70E16AEC7C11";
shapes = (
{
closed = 1;
nodes = (
(314,-12,o),
(362,36,o),
(402,98,c),
(402,67,o),
(396,48,o),
(396,30,cs),
(396,10,o),
(404,-11,o),
(439,-11,cs),
(466,-11,o),
(484,6,o),
(486,27,cs),
(495,118,o),
(495,210,o),
(499,309,c),
(512,380,o),
(512,475,o),
(510,502,cs),
(509,530,o),
(491,545,o),
(465,545,cs),
(440,545,o),
(419,531,o),
(418,504,cs),
(417,444,o),
(416,376,o),
(412,300,c),
(391,219,o),
(334,74,o),
(247,74,cs),
(183,74,o),
(159,182,o),
(158,274,cs),
(158,399,o),
(182,459,o),
(184,496,cs),
(184,523,o),
(167,544,o),
(140,544,cs),
(117,544,o),
(97,531,o),
(94,512,cs),
(80,436,o),
(66,352,o),
(66,269,cs),
(66,137,o),
(113,-12,o),
(244,-12,cs)
);
}
);
userData = {
com.hugojourdan.ColorFlow = {
"0" = 0;
"1" = 0;
"10" = 0;
"11" = 0;
"2" = 0;
"3" = 0;
"4" = 0;
"5" = 0;
"6" = 0;
"7" = 0;
"8" = 0;
"9" = 0;
};
};
width = 582.4;
}
);
unicode = 117;
}
{
color = 4;
glyphname = v;
kernLeft = v;
kernRight = v;
layers = (
{
anchors = (
{
name = bottom;
pos = (231,0);
},
{
name = top;
pos = (255,526);
}
);
layerId = m01;
shapes = (
{
closed = 1;
nodes = (
(77,425,o),
(165,185,o),
(223,-1,cs),
(226,-10,o),
(230,-10,o),
(231,-10,cs),
(237,-10,o),
(241,-5,o),
(243,-1,cs),
(303,141,o),
(386,343,o),
(469,502,cs),
(471,506,o),
(473,514,o),
(473,517,cs),
(473,522,o),
(468,528,o),
(458,528,cs),
(451,528,o),
(445,523,o),
(441,516,cs),
(386,406,o),
(300,212,o),
(236,47,c),
(196,183,o),
(125,378,o),
(73,509,cs),
(66,528,o),
(62,533,o),
(53,533,cs),
(47,533,o),
(38,530,o),
(38,519,cs),
(38,516,o),
(39,510,o),
(43,501,cs)
);
}
);
userData = {
com.hugojourdan.ColorFlow = {
"0" = 0;
"1" = 0;
"10" = 0;
"11" = 0;
"2" = 0;
"3" = 0;
"4" = 0;
"5" = 0;
"6" = 0;
"7" = 0;
"8" = 0;
"9" = 0;
};
};
width = 492;
},
{
anchors = (
{
name = bottom;
pos = (291,0);
},
{
name = top;
pos = (282,546);
}
);
layerId = m003;
shapes = (
{
closed = 1;
nodes = (
(84,325,o),
(135,173,o),
(173,56,cs),
(190,6,o),
(227,-14,o),
(285,-14,cs),
(339,-14,o),
(375,5,o),
(387,35,cs),
(411,94,o),
(516,348,o),
(558,435,cs),
(571,462,o),
(574,480,o),
(574,492,cs),
(574,530,o),
(514,555,o),
(475,555,cs),
(440,555,o),
(420,537,o),
(407,507,cs),
(346,367,o),
(339,329,o),
(290,188,c),
(249,329,o),
(231,400,o),
(200,507,cs),
(191,537,o),
(167,556,o),
(111,556,cs),
(60,556,o),
(28,521,o),
(28,497,cs),
(28,489,o),
(28,478,o),
(39,449,cs)
);
}
);
userData = {
com.hugojourdan.ColorFlow = {
"0" = 0;
"1" = 0;
"10" = 0;
"11" = 0;
"2" = 0;
"3" = 0;
"4" = 0;
"5" = 0;
"6" = 0;
"7" = 0;
"8" = 0;
"9" = 0;
};
};
width = 583;
},
{
anchors = (
{
name = bottom;
pos = (239,0);
},
{
name = top;
pos = (255,537);
}
);
layerId = "5FC9277C-B92C-4C3C-88AB-70E16AEC7C11";
shapes = (
{
closed = 1;
nodes = (
(82,329,o),
(149,176,o),
(192,19,cs),
(198,-3,o),
(218,-14,o),
(240,-14,cs),
(258,-14,o),
(275,-7,o),
(281,8,cs),
(311,82,o),
(443,388,o),
(483,462,cs),
(493,479,o),
(495,487,o),
(495,494,cs),
(495,518,o),
(469,537,o),
(445,537,cs),
(431,537,o),
(418,530,o),
(410,514,cs),
(349,398,o),
(303,279,o),
(245,132,c),
(204,266,o),
(156,387,o),
(115,509,cs),
(109,530,o),
(93,540,o),
(73,540,cs),
(49,540,o),
(26,523,o),
(26,499,cs),
(26,494,o),
(27,490,o),
(29,483,cs)
);
}
);
userData = {
com.hugojourdan.ColorFlow = {
"0" = 0;
"1" = 0;
"10" = 0;
"11" = 0;
"2" = 0;
"3" = 0;
"4" = 0;
"5" = 0;
"6" = 0;
"7" = 0;
"8" = 0;
"9" = 0;
};
};
width = 508.3;
}
);
unicode = 118;
}
{
color = 4;
glyphname = x;
kernLeft = x;
kernRight = x;
layers = (
{
background = {
shapes = (
{
closed = 1;
nodes = (
(159,338,o),
(319,157,o),
(404,34,cs),
(424,5,o),
(440,-6,o),
(451,-6,cs),
(455,-6,o),
(461,0,o),
(461,9,cs),
(461,17,o),
(447,34,o),
(439,43,cs),
(334,179,o),
(167,384,o),
(72,529,cs),
(66,538,o),
(63,540,o),
(55,540,cs),
(49,540,o),
(42,535,o),
(42,524,cs),
(42,519,o),
(44,514,o),
(48,507,cs)
);
},
{
closed = 1;
nodes = (
(176,169,o),
(305,324,o),
(457,504,cs),
(462,510,o),
(465,517,o),
(465,524,cs),
(465,531,o),
(458,536,o),
(450,536,cs),
(446,536,o),
(440,533,o),
(432,523,cs),
(305,365,o),
(159,190,o),
(37,43,cs),
(23,27,o),
(13,14,o),
(13,5,cs),
(13,-6,o),
(18,-12,o),
(25,-12,cs),
(32,-12,o),
(40,-5,o),
(48,5,cs)
);
}
);
};
layerId = m01;
shapes = (
{
closed = 1;
nodes = (
(120,411,o),
(430,13,o),
(439,2,cs),
(443,-3,o),
(447,-6,o),
(453,-6,cs),
(461,-6,o),
(468,-1,o),
(468,8,cs),
(468,12,o),
(466,18,o),
(461,24,cs),
(356,160,o),
(177,384,o),
(79,529,cs),
(73,538,o),
(70,540,o),
(62,540,cs),
(56,540,o),
(50,536,o),
(50,525,cs),
(50,520,o),
(52,515,o),
(56,508,cs)
);
},
{
closed = 1;
nodes = (
(186,170,o),
(313,324,o),
(465,504,cs),
(470,510,o),
(473,517,o),
(473,524,cs),
(473,531,o),
(466,536,o),
(458,536,cs),
(454,536,o),
(448,533,o),
(440,523,cs),
(313,365,o),
(161,182,o),
(28,21,cs),
(24,17,o),
(19,10,o),
(19,3,cs),
(19,-3,o),
(28,-10,o),
(35,-10,cs),
(42,-10,o),
(45,-7,o),
(52,1,cs)
);
}
);
userData = {
com.hugojourdan.ColorFlow = {
"0" = 0;
"1" = 0;
"10" = 0;
"11" = 0;
"2" = 0;
"3" = 0;
"4" = 0;
"5" = 0;
"6" = 0;
"7" = 0;
"8" = 0;
"9" = 0;
};
};
width = 506;
},
{
layerId = m003;
shapes = (
{
closed = 1;
nodes = (
(130,314,o),
(254,193,o),
(373,29,cs),
(389,7,o),
(401,-6,o),
(428,-9,cs),
(488,-15,o),
(557,16,o),
(557,47,cs),
(557,59,o),
(547,73,o),
(539,82,cs),
(434,218,o),
(285,388,o),
(190,533,cs),
(183,545,o),
(169,560,o),
(121,560,cs),
(90,560,o),
(13,555,o),
(13,504,cs),
(13,497,o),
(15,490,o),
(19,483,cs)
);
},
{
closed = 1;
nodes = (
(289,155,o),
(401,295,o),
(537,448,cs),
(545,456,o),
(559,474,o),
(559,493,cs),
(559,515,o),
(517,559,o),
(440,554,cs),
(420,553,o),
(410,542,o),
(393,521,cs),
(265,362,o),
(137,217,o),
(13,73,cs),
(6,64,o),
(1,55,o),
(1,46,cs),
(1,17,o),
(48,-19,o),
(107,-19,cs),
(121,-19,o),
(150,-11,o),
(171,15,cs)
);
}
);
userData = {
com.hugojourdan.ColorFlow = {
"0" = 0;
"1" = 0;
"10" = 0;
"11" = 0;
"2" = 0;
"3" = 0;
"4" = 0;
"5" = 0;
"6" = 0;
"7" = 0;
"8" = 0;
"9" = 0;
};
};
width = 570;
},
{
layerId = "5FC9277C-B92C-4C3C-88AB-70E16AEC7C11";
shapes = (
{
closed = 1;
nodes = (
(144,314,o),
(281,168,o),
(404,7,cs),
(410,-1,o),
(423,-7,o),
(434,-7,cs),
(460,-8,o),
(485,13,o),
(485,36,cs),
(485,46,o),
(480,55,o),
(472,64,cs),
(367,200,o),
(207,380,o),
(112,525,cs),
(104,539,o),
(92,546,o),
(76,546,cs),
(53,546,o),
(27,529,o),
(27,504,cs),
(27,497,o),
(29,490,o),
(33,483,cs)
);
},
{
closed = 1;
nodes = (
(213,155,o),
(344,318,o),
(480,471,cs),
(488,479,o),
(493,489,o),
(493,499,cs),
(493,521,o),
(470,544,o),
(443,543,cs),
(433,543,o),
(423,538,o),
(414,529,cs),
(279,376,o),
(139,202,o),
(15,58,cs),
(8,49,o),
(3,40,o),
(3,31,cs),
(3,8,o),
(26,-14,o),
(52,-14,cs),
(62,-14,o),
(74,-11,o),
(83,0,cs)
);
}
);
userData = {
com.hugojourdan.ColorFlow = {
"0" = 0;
"1" = 0;
"10" = 0;
"11" = 0;
"2" = 0;
"3" = 0;
"4" = 0;
"5" = 0;
"6" = 0;
"7" = 0;
"8" = 0;
"9" = 0;
};
};
width = 524.1;
}
);
unicode = 120;
}
{
color = 4;
glyphname = y;
kernLeft = u;
kernRight = y;
layers = (
{
anchors = (
{
name = bottom;
pos = (280,-252);
},
{
name = center;
pos = (290,336);
},
{
name = top;
pos = (295,519);
}
);
background = {
shapes = (
{
closed = 1;
nodes = (
(89,438,o),
(78,353,o),
(78,275,cs),
(78,162,o),
(113,-14,o),
(251,-14,cs),
(310,-14,o),
(373,45,o),
(416,164,c),
(421,-147,o),
(367,-261,o),
(266,-261,cs),
(214,-261,o),
(161,-240,o),
(134,-208,cs),
(109,-178,o),
(105,-163,o),
(95,-163,cs),
(85,-163,o),
(80,-171,o),
(80,-178,cs),
(80,-185,o),
(87,-199,o),
(99,-216,cs),
(135,-264,o),
(192,-290,o),
(263,-290,cs),
(418,-290,o),
(447,-103,o),
(447,86,cs),
(447,130,o),
(446,167,o),
(445,209,c),
(457,291,o),
(469,403,o),
(472,485,cs),
(474,531,o),
(473,543,o),
(461,543,cs),
(448,543,o),
(445,530,o),
(436,501,cs),
(420,448,o),
(411,356,o),
(411,263,cs),
(411,218,l),
(367,95,o),
(312,14,o),
(250,14,cs),
(162,14,o),
(108,154,o),
(108,278,cs),
(108,423,o),
(140,496,o),
(140,521,cs),
(140,529,o),
(137,537,o),
(125,537,cs),
(114,537,o),
(108,530,o),
(107,519,cs)
);
}
);
};
layerId = m01;
shapes = (
{
closed = 1;
nodes = (
(97,438,o),
(86,353,o),
(86,275,cs),
(86,162,o),
(121,-14,o),
(249,-14,cs),
(318,-14,o),
(381,45,o),
(424,164,c),
(437,-147,o),
(370,-251,o),
(264,-251,cs),
(195,-251,o),
(149,-219,o),
(120,-168,cs),
(114,-158,o),
(109,-153,o),
(103,-153,cs),
(95,-153,o),
(88,-162,o),
(88,-169,cs),
(88,-174,o),
(91,-180,o),
(97,-190,cs),
(132,-248,o),
(194,-280,o),
(261,-280,cs),
(421,-280,o),
(455,-103,o),
(455,86,cs),
(455,130,o),
(454,200,o),
(453,242,c),
(465,324,o),
(477,403,o),
(481,507,cs),
(482,531,o),
(478,543,o),
(466,543,cs),
(456,543,o),
(452,537,o),
(444,511,cs),
(433,473,o),
(423,418,o),
(421,325,cs),
(419,218,l),
(375,95,o),
(320,14,o),
(248,14,cs),
(170,14,o),
(116,134,o),
(116,278,cs),
(116,423,o),
(148,496,o),
(148,521,cs),
(148,529,o),
(145,537,o),
(133,537,cs),
(122,537,o),
(116,530,o),
(115,519,cs)
);
}
);
userData = {
com.hugojourdan.ColorFlow = {
"0" = 0;
"1" = 0;
"10" = 0;
"11" = 0;
"2" = 0;
"3" = 0;
"4" = 0;
"5" = 0;
"6" = 0;
"7" = 0;
"8" = 0;
"9" = 0;
};
};
width = 570;
},
{
anchors = (
{
name = bottom;
pos = (267,-262);
},
{
name = center;
pos = (300,342);
},
{
name = top;
pos = (310,529);
}
);
background = {
shapes = (
{
closed = 1;
nodes = (
(551,99,o),
(554,175,o),
(549,318,c),
(560,368,o),
(563,421,o),
(563,468,cs),
(563,512,o),
(554,553,o),
(465,553,cs),
(400,553,o),
(374,527,o),
(372,497,cs),
(368,443,o),
(370,366,o),
(375,292,c),
(355,223,o),
(318,149,o),
(271,149,cs),
(237,149,o),
(226,175,o),
(226,242,cs),
(226,342,o),
(242,394,o),
(257,479,cs),
(264,522,o),
(238,552,o),
(171,552,cs),
(103,552,o),
(78,522,o),
(73,492,cs),
(57,404,o),
(45,324,o),
(45,217,cs),
(45,80,o),
(101,-13,o),
(218,-13,cs),
(332,-13,o),
(366,68,o),
(385,116,c),
(386,78,o),
(378,53,o),
(378,34,cs),
(378,13,o),
(399,-14,o),
(456,-14,cs),
(518,-14,o),
(551,-1,o),
(551,39,cs)
);
}
);
};
layerId = m003;
shapes = (
{
closed = 1;
nodes = (
(63,451,o),
(49,353,o),
(49,275,cs),
(49,106,o),
(89,-14,o),
(233,-14,cs),
(292,-14,o),
(324,19,o),
(356,69,c),
(347,-92,o),
(328,-144,o),
(261,-144,cs),
(223,-144,o),
(193,-128,o),
(164,-89,cs),
(151,-71,o),
(138,-61,o),
(120,-61,cs),
(88,-61,o),
(32,-102,o),
(32,-144,cs),
(32,-151,o),
(33,-164,o),
(42,-180,cs),
(75,-237,o),
(158,-290,o),
(271,-290,cs),
(476,-290,o),
(522,-103,o),
(522,86,cs),
(522,130,o),
(516,175,o),
(515,217,c),
(539,299,o),
(548,397,o),
(548,479,cs),
(548,525,o),
(539,555,o),
(453,555,cs),
(416,555,o),
(394,538,o),
(383,509,cs),
(362,456,o),
(356,356,o),
(356,263,cs),
(356,218,l),
(333,177,o),
(299,149,o),
(271,149,cs),
(237,149,o),
(227,175,o),
(227,280,cs),
(227,401,o),
(253,448,o),
(253,488,cs),
(253,536,o),
(178,552,o),
(155,552,cs),
(99,552,o),
(82,543,o),
(73,501,cs)
);
}
);
userData = {
com.hugojourdan.ColorFlow = {
"0" = 0;
"1" = 0;
"10" = 0;
"11" = 0;
"2" = 0;
"3" = 0;
"4" = 0;
"5" = 0;
"6" = 0;
"7" = 0;
"8" = 0;
"9" = 0;
};
};
width = 586;
},
{
anchors = (
{
name = bottom;
pos = (265,-261);
},
{
name = center;
pos = (291,336);
},
{
name = top;
pos = (286,520);
}
);
layerId = "5FC9277C-B92C-4C3C-88AB-70E16AEC7C11";
shapes = (
{
closed = 1;
nodes = (
(79,439,o),
(67,353,o),
(67,275,cs),
(67,140,o),
(112,-14,o),
(246,-14,cs),
(305,-14,o),
(354,30,o),
(386,80,c),
(375,-114,o),
(354,-205,o),
(266,-205,cs),
(228,-205,o),
(180,-189,o),
(156,-151,cs),
(143,-132,o),
(130,-123,o),
(112,-123,cs),
(91,-123,o),
(68,-140,o),
(68,-165,cs),
(68,-172,o),
(70,-179,o),
(74,-188,c),
(111,-253,o),
(186,-290,o),
(265,-290,cs),
(439,-290,o),
(476,-103,o),
(476,86,cs),
(476,130,o),
(475,175,o),
(474,217,c),
(498,299,o),
(504,389,o),
(504,471,cs),
(504,517,o),
(495,547,o),
(461,547,cs),
(437,547,o),
(420,530,o),
(409,501,cs),
(388,448,o),
(384,356,o),
(384,263,cs),
(384,218,l),
(358,153,o),
(304,73,o),
(247,73,cs),
(186,73,o),
(159,175,o),
(159,280,cs),
(159,401,o),
(183,462,o),
(183,493,cs),
(183,522,o),
(161,539,o),
(138,539,cs),
(115,539,o),
(98,531,o),
(94,508,cs)
);
}
);
userData = {
com.hugojourdan.ColorFlow = {
"0" = 0;
"1" = 0;
"10" = 0;
"11" = 0;
"2" = 0;
"3" = 0;
"4" = 0;
"5" = 0;
"6" = 0;
"7" = 0;
"8" = 0;
"9" = 0;
};
};
width = 572.5;
}
);
unicode = 121;
}
{
glyphname = braceleft;
kernLeft = bracketleft;
kernRight = bracketleft;
layers = (
{
layerId = m01;
shapes = (
{
closed = 1;
nodes = (
(226,875,o),
(143,830,o),
(143,725,cs),
(143,639,o),
(214,550,o),
(214,478,cs),
(214,410,o),
(174,374,o),
(92,374,cs),
(83,374,o),
(76,370,o),
(76,358,cs),
(76,350,o),
(82,344,o),
(88,344,cs),
(182,344,o),
(216,314,o),
(216,268,cs),
(216,195,o),
(151,77,o),
(151,-31,cs),
(151,-116,o),
(189,-167,o),
(259,-167,cs),
(281,-167,o),
(300,-162,o),
(317,-152,cs),
(320,-150,o),
(322,-146,o),
(322,-142,cs),
(322,-133,o),
(315,-124,o),
(306,-128,cs),
(293,-134,o),
(274,-138,o),
(259,-138,cs),
(212,-138,o),
(184,-100,o),
(184,-19,cs),
(184,87,o),
(248,182,o),
(248,270,cs),
(248,321,o),
(213,363,o),
(157,362,c),
(222,369,o),
(248,431,o),
(248,480,cs),
(248,561,o),
(175,646,o),
(175,728,cs),
(175,797,o),
(223,838,o),
(304,846,cs),
(318,847,o),
(324,851,o),
(324,861,cs),
(324,871,o),
(319,875,o),
(306,875,cs)
);
}
);
userData = {
com.hugojourdan.ColorFlow = {
"0" = 0;
"1" = 0;
"10" = 0;
"11" = 0;
"2" = 0;
"3" = 0;
"4" = 0;
"5" = 0;
"6" = 0;
"7" = 0;
"8" = 0;
"9" = 0;
};
};
width = 434;
},
{
layerId = m003;
shapes = (
{
closed = 1;
nodes = (
(207,892,o),
(106,829,o),
(106,695,cs),
(106,602,o),
(177,522,o),
(177,478,cs),
(177,441,o),
(162,428,o),
(115,425,cs),
(80,423,o),
(60,398,o),
(60,356,cs),
(60,316,o),
(80,292,o),
(113,292,cs),
(163,292,o),
(179,281,o),
(179,248,cs),
(179,217,o),
(114,108,o),
(114,-11,cs),
(114,-106,o),
(166,-185,o),
(267,-185,cs),
(308,-185,o),
(345,-173,o),
(372,-152,cs),
(387,-140,o),
(402,-122,o),
(402,-97,cs),
(402,-76,o),
(383,-12,o),
(340,-35,cs),
(317,-47,o),
(305,-49,o),
(296,-49,cs),
(268,-49,o),
(261,-28,o),
(261,-9,cs),
(261,97,o),
(326,168,o),
(326,265,cs),
(326,318,o),
(288,354,o),
(225,363,c),
(288,384,o),
(325,432,o),
(325,484,cs),
(325,574,o),
(253,641,o),
(253,698,cs),
(253,732,o),
(273,755,o),
(327,758,cs),
(379,761,o),
(401,780,o),
(401,821,cs),
(401,869,o),
(379,892,o),
(328,892,cs)
);
}
);
userData = {
com.hugojourdan.ColorFlow = {
"0" = 0;
"1" = 0;
"10" = 0;
"11" = 0;
"2" = 0;
"3" = 0;
"4" = 0;
"5" = 0;
"6" = 0;
"7" = 0;
"8" = 0;
"9" = 0;
};
};
width = 454;
},
{
layerId = "5FC9277C-B92C-4C3C-88AB-70E16AEC7C11";
shapes = (
{
closed = 1;
nodes = (
(196,883,o),
(95,827,o),
(95,713,cs),
(95,623,o),
(166,536,o),
(166,478,cs),
(166,419,o),
(137,403,o),
(93,401,cs),
(67,400,o),
(49,384,o),
(49,356,cs),
(49,336,o),
(64,317,o),
(91,317,cs),
(149,317,o),
(168,300,o),
(168,266,cs),
(168,206,o),
(103,90,o),
(103,-29,cs),
(103,-109,o),
(157,-173,o),
(240,-173,cs),
(267,-173,o),
(292,-166,o),
(314,-149,cs),
(323,-142,o),
(328,-132,o),
(328,-121,cs),
(328,-87,o),
(304,-68,o),
(279,-79,cs),
(266,-85,o),
(250,-89,o),
(238,-89,cs),
(204,-89,o),
(191,-53,o),
(191,-9,cs),
(191,95,o),
(256,176,o),
(256,279,cs),
(256,318,o),
(235,350,o),
(190,368,c),
(237,398,o),
(255,438,o),
(255,480,cs),
(255,567,o),
(183,648,o),
(183,716,cs),
(183,758,o),
(220,793,o),
(285,797,cs),
(308,798,o),
(331,816,o),
(331,839,cs),
(331,862,o),
(316,879,o),
(287,880,cs)
);
}
);
userData = {
com.hugojourdan.ColorFlow = {
"0" = 0;
"1" = 0;
"10" = 0;
"11" = 0;
"2" = 0;
"3" = 0;
"4" = 0;
"5" = 0;
"6" = 0;
"7" = 0;
"8" = 0;
"9" = 0;
};
};
width = 409;
}
);
unicode = 123;
}
{
glyphname = bar;
kernLeft = bar;
kernRight = bar;
layers = (
{
layerId = m01;
shapes = (
{
closed = 1;
nodes = (
(114,593,o),
(103,112,o),
(103,-124,cs),
(103,-136,o),
(105,-146,o),
(119,-146,cs),
(128,-146,o),
(133,-136,o),
(133,-124,cs),
(133,112,o),
(144,593,o),
(165,828,cs),
(167,846,o),
(162,854,o),
(152,854,cs),
(142,854,o),
(137,846,o),
(135,828,cs)
);
}
);
userData = {
com.hugojourdan.ColorFlow = {
"0" = 0;
"1" = 0;
"10" = 0;
"11" = 0;
"2" = 0;
"3" = 0;
"4" = 0;
"5" = 0;
"6" = 0;
"7" = 0;
"8" = 0;
"9" = 0;
};
};
width = 265;
},
{
layerId = m003;
shapes = (
{
closed = 1;
nodes = (
(86,593,o),
(75,112,o),
(75,-104,cs),
(75,-150,o),
(105,-173,o),
(156,-173,cs),
(201,-173,o),
(231,-150,o),
(231,-104,cs),
(231,112,o),
(242,593,o),
(260,808,cs),
(264,855,o),
(227,878,o),
(181,878,cs),
(131,878,o),
(108,855,o),
(104,808,cs)
);
}
);
userData = {
com.hugojourdan.ColorFlow = {
"0" = 0;
"1" = 0;
"10" = 0;
"11" = 0;
"2" = 0;
"3" = 0;
"4" = 0;
"5" = 0;
"6" = 0;
"7" = 0;
"8" = 0;
"9" = 0;
};
};
width = 326;
},
{
layerId = "5FC9277C-B92C-4C3C-88AB-70E16AEC7C11";
shapes = (
{
closed = 1;
nodes = (
(116,593,o),
(105,112,o),
(105,-122,cs),
(105,-150,o),
(126,-164,o),
(150,-164,cs),
(172,-164,o),
(193,-150,o),
(193,-122,cs),
(193,112,o),
(204,593,o),
(225,826,cs),
(226,855,o),
(205,869,o),
(181,869,cs),
(158,869,o),
(138,855,o),
(136,826,cs)
);
}
);
userData = {
com.hugojourdan.ColorFlow = {
"0" = 0;
"1" = 0;
"10" = 0;
"11" = 0;
"2" = 0;
"3" = 0;
"4" = 0;
"5" = 0;
"6" = 0;
"7" = 0;
"8" = 0;
"9" = 0;
};
};
width = 317;
}
);
unicode = 124;
}
{
glyphname = asciitilde;
kernLeft = asciitilde;
kernRight = asciitilde;
layers = (
{
layerId = m01;
shapes = (
{
closed = 1;
nodes = (
(506,237,o),
(534,277,o),
(536,371,cs),
(536,379,o),
(530,384,o),
(523,384,cs),
(514,384,o),
(509,381,o),
(509,373,cs),
(506,295,o),
(488,266,o),
(445,266,cs),
(356,266,o),
(302,381,o),
(212,381,cs),
(140,381,o),
(115,333,o),
(120,243,cs),
(120,233,o),
(125,228,o),
(133,228,cs),
(143,228,o),
(149,232,o),
(148,240,cs),
(142,319,o),
(163,351,o),
(210,351,cs),
(289,351,o),
(342,237,o),
(443,237,cs)
);
}
);
userData = {
com.hugojourdan.ColorFlow = {
"0" = 0;
"1" = 0;
"10" = 0;
"11" = 0;
"2" = 0;
"3" = 0;
"4" = 0;
"5" = 0;
"6" = 0;
"7" = 0;
"8" = 0;
"9" = 0;
};
};
width = 650;
},
{
layerId = m003;
shapes = (
{
closed = 1;
nodes = (
(536,195,o),
(587,263,o),
(592,377,cs),
(593,414,o),
(567,436,o),
(523,436,cs),
(491,436,o),
(472,422,o),
(471,399,cs),
(469,354,o),
(456,339,o),
(430,339,cs),
(363,339,o),
(316,423,o),
(200,423,cs),
(97,423,o),
(54,344,o),
(61,238,cs),
(63,203,o),
(81,188,o),
(128,188,cs),
(166,188,o),
(184,205,o),
(184,233,cs),
(184,267,o),
(192,278,o),
(216,278,cs),
(263,278,o),
(325,195,o),
(451,195,cs)
);
}
);
userData = {
com.hugojourdan.ColorFlow = {
"0" = 0;
"1" = 0;
"10" = 0;
"11" = 0;
"2" = 0;
"3" = 0;
"4" = 0;
"5" = 0;
"6" = 0;
"7" = 0;
"8" = 0;
"9" = 0;
};
};
width = 650;
},
{
layerId = "5FC9277C-B92C-4C3C-88AB-70E16AEC7C11";
shapes = (
{
closed = 1;
nodes = (
(520,225,o),
(559,279,o),
(562,363,cs),
(563,384,o),
(537,400,o),
(515,400,cs),
(502,400,o),
(493,394,o),
(492,382,cs),
(490,340,o),
(472,312,o),
(434,312,cs),
(351,312,o),
(306,393,o),
(201,393,cs),
(120,393,o),
(86,331,o),
(92,246,cs),
(93,225,o),
(109,215,o),
(129,215,cs),
(151,215,o),
(171,227,o),
(170,246,cs),
(168,278,o),
(176,305,o),
(214,305,cs),
(295,305,o),
(333,225,o),
(454,225,cs)
);
}
);
userData = {
com.hugojourdan.ColorFlow = {
"0" = 0;
"1" = 0;
"10" = 0;
"11" = 0;
"2" = 0;
"3" = 0;
"4" = 0;
"5" = 0;
"6" = 0;
"7" = 0;
"8" = 0;
"9" = 0;
};
};
width = 650;
}
);
unicode = 126;
}
{
glyphname = cent;
kernLeft = o;
kernRight = c;
layers = (
{
anchors = (
{
name = bottom;
pos = (288,12);
},
{
name = top;
pos = (292,510);
}
);
layerId = m01;
shapes = (
{
closed = 1;
nodes = (
(417,644,o),
(367,658,o),
(313,658,cs),
(185,658,o),
(60,544,o),
(60,393,cs),
(60,210,o),
(184,134,o),
(293,134,cs),
(375,134,o),
(436,181,o),
(476,245,cs),
(479,250,o),
(480,252,o),
(480,256,cs),
(480,264,o),
(470,270,o),
(463,270,cs),
(459,270,o),
(454,266,o),
(450,260,cs),
(402,191,o),
(361,162,o),
(288,162,cs),
(176,162,o),
(90,255,o),
(90,383,cs),
(90,550,o),
(216,630,o),
(311,630,cs),
(367,630,o),
(415,613,o),
(449,575,cs),
(453,571,o),
(458,569,o),
(463,569,cs),
(470,569,o),
(477,577,o),
(477,582,cs),
(477,588,o),
(473,593,o),
(467,599,cs)
);
},
{
closed = 1;
nodes = (
(306,594,o),
(237,274,o),
(191,41,cs),
(189,29,o),
(190,17,o),
(204,17,cs),
(213,17,o),
(219,24,o),
(221,36,cs),
(267,269,o),
(336,590,o),
(361,734,cs),
(364,752,o),
(363,762,o),
(350,762,cs),
(341,762,o),
(335,757,o),
(333,744,cs)
);
}
);
userData = {
com.hugojourdan.ColorFlow = {
"0" = 0;
"1" = 0;
"10" = 0;
"11" = 0;
"2" = 0;
"3" = 0;
"4" = 0;
"5" = 0;
"6" = 0;
"7" = 0;
"8" = 0;
"9" = 0;
};
};
width = 519;
},
{
anchors = (
{
name = bottom;
pos = (338,12);
},
{
name = top;
pos = (327,510);
}
);
layerId = m003;
shapes = (
{
closed = 1;
nodes = (
(504,638,o),
(442,666,o),
(341,666,cs),
(169,666,o),
(44,534,o),
(44,386,cs),
(44,209,o),
(168,126,o),
(322,126,cs),
(449,126,o),
(523,180,o),
(555,229,cs),
(564,241,o),
(569,253,o),
(569,265,cs),
(569,305,o),
(531,335,o),
(489,335,cs),
(473,335,o),
(457,325,o),
(440,302,cs),
(428,284,o),
(390,260,o),
(338,260,cs),
(284,260,o),
(219,296,o),
(219,377,cs),
(219,497,o),
(301,531,o),
(346,531,cs),
(393,531,o),
(426,525,o),
(445,511,cs),
(465,497,o),
(477,490,o),
(496,490,cs),
(524,490,o),
(562,532,o),
(562,561,cs),
(562,574,o),
(559,587,o),
(539,606,cs)
);
},
{
closed = 1;
nodes = (
(343,592,o),
(275,275,o),
(234,67,cs),
(229,42,o),
(242,22,o),
(281,17,cs),
(315,13,o),
(337,29,o),
(343,58,cs),
(384,266,o),
(452,583,o),
(471,712,cs),
(475,739,o),
(461,758,o),
(423,762,cs),
(387,766,o),
(367,750,o),
(362,721,cs)
);
}
);
userData = {
com.hugojourdan.ColorFlow = {
"0" = 0;
"1" = 0;
"10" = 0;
"11" = 0;
"2" = 0;
"3" = 0;
"4" = 0;
"5" = 0;
"6" = 0;
"7" = 0;
"8" = 0;
"9" = 0;
};
};
width = 594;
},
{
anchors = (
{
name = bottom;
pos = (290,12);
},
{
name = top;
pos = (296,510);
}
);
layerId = "5FC9277C-B92C-4C3C-88AB-70E16AEC7C11";
shapes = (
{
closed = 1;
nodes = (
(448,636,o),
(385,659,o),
(322,659,cs),
(172,659,o),
(54,549,o),
(54,395,cs),
(54,234,o),
(159,133,o),
(291,133,cs),
(382,133,o),
(453,165,o),
(500,219,cs),
(509,229,o),
(514,241,o),
(514,253,cs),
(514,280,o),
(495,300,o),
(471,300,cs),
(458,300,o),
(443,291,o),
(427,272,cs),
(397,235,o),
(352,215,o),
(290,215,cs),
(215,215,o),
(145,287,o),
(145,395,cs),
(145,502,o),
(231,576,o),
(322,576,cs),
(355,576,o),
(400,562,o),
(426,543,cs),
(440,531,o),
(446,527,o),
(457,527,cs),
(481,527,o),
(502,548,o),
(502,570,cs),
(502,581,o),
(498,591,o),
(489,600,cs)
);
},
{
closed = 1;
nodes = (
(292,592,o),
(224,275,o),
(182,61,cs),
(177,35,o),
(197,19,o),
(219,17,cs),
(240,15,o),
(260,25,o),
(265,52,cs),
(308,266,o),
(376,583,o),
(395,717,cs),
(399,744,o),
(381,760,o),
(359,762,cs),
(338,764,o),
(316,754,o),
(312,726,cs)
);
}
);
userData = {
com.hugojourdan.ColorFlow = {
"0" = 0;
"1" = 0;
"10" = 0;
"11" = 0;
"2" = 0;
"3" = 0;
"4" = 0;
"5" = 0;
"6" = 0;
"7" = 0;
"8" = 0;
"9" = 0;
};
};
width = 546.3;
}
);
unicode = 162;
}
{
glyphname = currency;
kernLeft = currency;
kernRight = currency;
layers = (
{
layerId = m01;
shapes = (
{
closed = 1;
nodes = (
(411,143,o),
(511,234,o),
(511,337,cs),
(511,432,o),
(412,539,o),
(310,539,cs),
(196,539,o),
(100,430,o),
(100,341,cs),
(100,235,o),
(183,143,o),
(286,143,cs)
);
},
{
closed = 1;
nodes = (
(200,173,o),
(132,248,o),
(132,341,cs),
(132,416,o),
(211,509,o),
(307,509,cs),
(393,509,o),
(479,419,o),
(479,337,cs),
(479,250,o),
(392,173,o),
(295,173,cs)
);
},
{
closed = 1;
nodes = (
(560,117,o),
(554,125,o),
(543,134,cs),
(524,151,o),
(479,195,o),
(453,222,c),
(431,200,l),
(458,173,o),
(504,129,o),
(522,113,cs),
(532,104,o),
(542,99,o),
(549,106,cs)
);
},
{
closed = 1;
nodes = (
(454,481,o),
(499,525,o),
(518,542,cs),
(529,551,o),
(535,559,o),
(524,570,cs),
(517,577,o),
(507,572,o),
(497,563,cs),
(479,547,o),
(433,503,o),
(406,476,c),
(428,454,l)
);
},
{
closed = 1;
nodes = (
(177,454,l),
(150,481,o),
(104,525,o),
(86,541,cs),
(76,550,o),
(66,555,o),
(59,548,cs),
(48,537,o),
(54,529,o),
(65,520,cs),
(84,503,o),
(129,459,o),
(155,432,c)
);
},
{
closed = 1;
nodes = (
(91,77,o),
(101,82,o),
(111,91,cs),
(129,107,o),
(175,151,o),
(202,178,c),
(180,200,l),
(154,173,o),
(109,129,o),
(90,112,cs),
(79,103,o),
(73,95,o),
(84,84,cs)
);
}
);
userData = {
com.hugojourdan.ColorFlow = {
"0" = 0;
"1" = 0;
"10" = 0;
"11" = 0;
"2" = 0;
"3" = 0;
"4" = 0;
"5" = 0;
"6" = 0;
"7" = 0;
"8" = 0;
"9" = 0;
};
};
width = 600;
},
{
guides = (
{
pos = (413,602);
}
);
layerId = m003;
shapes = (
{
closed = 1;
nodes = (
(476,103,o),
(590,204,o),
(590,337,cs),
(590,472,o),
(477,579,o),
(345,579,cs),
(221,579,o),
(91,470,o),
(91,341,cs),
(91,205,o),
(188,103,o),
(321,103,cs)
);
},
{
closed = 1;
nodes = (
(277,224,o),
(231,271,o),
(231,341,cs),
(231,413,o),
(279,459,o),
(342,459,cs),
(391,459,o),
(450,412,o),
(450,337,cs),
(450,267,o),
(392,224,o),
(330,224,cs)
);
},
{
closed = 1;
nodes = (
(637,114,o),
(644,150,o),
(613,178,cs),
(586,202,o),
(530,266,o),
(513,286,c),
(403,177,l),
(421,156,o),
(476,93,o),
(503,68,cs),
(532,42,o),
(566,44,o),
(608,85,cs)
);
},
{
closed = 1;
nodes = (
(518,403,o),
(581,458,o),
(606,485,cs),
(632,514,o),
(630,548,o),
(589,590,cs),
(560,619,o),
(524,626,o),
(496,595,cs),
(472,568,o),
(408,512,o),
(388,495,c),
(497,385,l)
);
},
{
closed = 1;
nodes = (
(269,476,l),
(251,497,o),
(196,560,o),
(169,585,cs),
(140,611,o),
(106,609,o),
(64,568,cs),
(35,539,o),
(28,503,o),
(59,475,cs),
(86,451,o),
(142,387,o),
(159,367,c)
);
},
{
closed = 1;
nodes = (
(122,34,o),
(158,27,o),
(186,58,cs),
(210,85,o),
(274,141,o),
(294,158,c),
(185,268,l),
(164,250,o),
(101,195,o),
(76,168,cs),
(50,139,o),
(52,105,o),
(93,63,cs)
);
}
);
userData = {
com.hugojourdan.ColorFlow = {
"0" = 0;
"1" = 0;
"10" = 0;
"11" = 0;
"2" = 0;
"3" = 0;
"4" = 0;
"5" = 0;
"6" = 0;
"7" = 0;
"8" = 0;
"9" = 0;
};
};
width = 665;
},
{
layerId = "5FC9277C-B92C-4C3C-88AB-70E16AEC7C11";
shapes = (
{
closed = 1;
nodes = (
(454,130,o),
(556,222,o),
(556,337,cs),
(556,445,o),
(455,552,o),
(341,552,cs),
(217,552,o),
(118,443,o),
(118,341,cs),
(118,223,o),
(202,130,o),
(317,130,cs)
);
},
{
closed = 1;
nodes = (
(246,210,o),
(200,262,o),
(200,341,cs),
(200,413,o),
(248,474,o),
(338,474,cs),
(414,474,o),
(473,412,o),
(473,337,cs),
(473,258,o),
(413,210,o),
(326,210,cs)
);
},
{
closed = 1;
nodes = (
(602,113,o),
(604,134,o),
(585,155,cs),
(573,168,o),
(535,207,o),
(500,240,c),
(438,179,l),
(472,144,o),
(510,106,o),
(523,92,cs),
(541,72,o),
(569,80,o),
(586,98,cs)
);
},
{
closed = 1;
nodes = (
(521,467,o),
(559,505,o),
(573,517,cs),
(593,536,o),
(585,563,o),
(567,581,cs),
(552,597,o),
(531,598,o),
(510,580,cs),
(497,567,o),
(458,530,o),
(425,495,c),
(486,433,l)
);
},
{
closed = 1;
nodes = (
(230,474,l),
(197,507,o),
(159,544,o),
(141,561,cs),
(125,577,o),
(96,577,o),
(78,559,cs),
(59,539,o),
(59,515,o),
(79,498,cs),
(97,483,o),
(135,445,o),
(168,412,c)
);
},
{
closed = 1;
nodes = (
(124,54,o),
(148,53,o),
(165,73,cs),
(180,91,o),
(218,129,o),
(251,163,c),
(189,225,l),
(156,192,o),
(119,154,o),
(102,136,cs),
(86,119,o),
(86,91,o),
(104,73,cs)
);
}
);
userData = {
com.hugojourdan.ColorFlow = {
"0" = 0;
"1" = 0;
"10" = 0;
"11" = 0;
"2" = 0;
"3" = 0;
"4" = 0;
"5" = 0;
"6" = 0;
"7" = 0;
"8" = 0;
"9" = 0;
};
};
width = 662.3;
}
);
unicode = 164;
}
{
glyphname = brokenbar;
kernLeft = bar;
kernRight = bar;
layers = (
{
background = {
shapes = (
{
closed = 1;
nodes = (
(70,96,o),
(69,-30,o),
(69,-124,cs),
(69,-150,o),
(89,-163,o),
(110,-163,cs),
(130,-163,o),
(150,-150,o),
(150,-124,cs),
(150,-30,o),
(151,96,o),
(170,251,cs),
(173,278,o),
(153,291,o),
(132,291,cs),
(112,291,o),
(92,278,o),
(89,251,cs)
);
},
{
closed = 1;
nodes = (
(95,673,o),
(92,558,o),
(92,464,cs),
(92,438,o),
(112,425,o),
(133,425,cs),
(153,425,o),
(173,438,o),
(173,464,cs),
(173,558,o),
(176,673,o),
(186,828,cs),
(188,855,o),
(168,868,o),
(147,868,cs),
(127,868,o),
(107,855,o),
(105,828,cs)
);
}
);
};
layerId = m01;
shapes = (
{
closed = 1;
nodes = (
(111,96,o),
(107,-30,o),
(107,-124,cs),
(107,-143,o),
(111,-151,o),
(123,-151,cs),
(130,-151,o),
(137,-143,o),
(137,-124,cs),
(137,-30,o),
(141,96,o),
(151,251,cs),
(152,268,o),
(149,277,o),
(139,277,cs),
(128,277,o),
(121,270,o),
(120,251,cs)
);
},
{
closed = 1;
nodes = (
(121,673,o),
(118,558,o),
(118,464,cs),
(118,447,o),
(123,439,o),
(133,439,cs),
(142,439,o),
(148,447,o),
(148,464,cs),
(148,558,o),
(151,673,o),
(161,832,cs),
(163,849,o),
(159,858,o),
(150,858,cs),
(137,858,o),
(133,849,o),
(131,832,cs)
);
}
);
userData = {
com.hugojourdan.ColorFlow = {
"0" = 0;
"1" = 0;
"10" = 0;
"11" = 0;
"2" = 0;
"3" = 0;
"4" = 0;
"5" = 0;
"6" = 0;
"7" = 0;
"8" = 0;
"9" = 0;
};
};
width = 277;
},
{
background = {
shapes = (
{
closed = 1;
nodes = (
(120,593,o),
(109,112,o),
(109,-124,cs),
(109,-150,o),
(129,-163,o),
(150,-163,cs),
(170,-163,o),
(190,-150,o),
(190,-124,cs),
(190,112,o),
(201,593,o),
(222,828,cs),
(223,855,o),
(203,868,o),
(182,868,cs),
(162,868,o),
(142,855,o),
(141,828,cs)
);
}
);
};
layerId = m003;
shapes = (
{
closed = 1;
nodes = (
(75,96,o),
(74,-30,o),
(74,-114,cs),
(74,-150,o),
(102,-173,o),
(150,-173,cs),
(190,-173,o),
(230,-150,o),
(230,-114,cs),
(230,-30,o),
(231,96,o),
(247,231,cs),
(253,278,o),
(213,291,o),
(172,291,cs),
(125,291,o),
(97,278,o),
(91,231,cs)
);
},
{
closed = 1;
nodes = (
(95,672,o),
(92,568,o),
(92,485,cs),
(92,448,o),
(122,425,o),
(173,425,cs),
(223,425,o),
(248,448,o),
(248,485,cs),
(248,568,o),
(251,672,o),
(260,815,cs),
(263,854,o),
(235,878,o),
(184,878,cs),
(134,878,o),
(107,854,o),
(104,815,cs)
);
}
);
userData = {
com.hugojourdan.ColorFlow = {
"0" = 0;
"1" = 0;
"10" = 0;
"11" = 0;
"2" = 0;
"3" = 0;
"4" = 0;
"5" = 0;
"6" = 0;
"7" = 0;
"8" = 0;
"9" = 0;
};
};
width = 327;
},
{
layerId = "5FC9277C-B92C-4C3C-88AB-70E16AEC7C11";
shapes = (
{
closed = 1;
nodes = (
(100,96,o),
(99,-30,o),
(99,-123,cs),
(99,-150,o),
(120,-164,o),
(144,-164,cs),
(166,-164,o),
(188,-150,o),
(188,-123,cs),
(188,-30,o),
(189,96,o),
(207,249,cs),
(211,278,o),
(189,291,o),
(166,291,cs),
(143,291,o),
(122,278,o),
(119,249,cs)
);
},
{
closed = 1;
nodes = (
(125,673,o),
(122,559,o),
(122,466,cs),
(122,439,o),
(143,425,o),
(167,425,cs),
(190,425,o),
(210,439,o),
(210,466,cs),
(210,559,o),
(213,673,o),
(223,827,cs),
(225,855,o),
(204,869,o),
(180,869,cs),
(157,869,o),
(137,855,o),
(135,827,cs)
);
}
);
userData = {
com.hugojourdan.ColorFlow = {
"0" = 0;
"1" = 0;
"10" = 0;
"11" = 0;
"2" = 0;
"3" = 0;
"4" = 0;
"5" = 0;
"6" = 0;
"7" = 0;
"8" = 0;
"9" = 0;
};
};
width = 318;
}
);
unicode = 166;
}
{
glyphname = copyright;
kernLeft = O;
kernRight = O;
layers = (
{
layerId = m01;
shapes = (
{
closed = 1;
nodes = (
(677,-14,o),
(844,165,o),
(844,389,cs),
(844,597,o),
(676,765,o),
(467,765,cs),
(257,765,o),
(87,587,o),
(87,366,cs),
(87,156,o),
(258,-14,o),
(471,-14,cs)
);
},
{
closed = 1;
nodes = (
(277,16,o),
(120,173,o),
(120,367,cs),
(120,570,o),
(277,735,o),
(470,735,cs),
(658,735,o),
(811,578,o),
(811,386,cs),
(811,181,o),
(658,16,o),
(471,16,cs)
);
},
{
closed = 1;
nodes = (
(534,209,o),
(580,236,o),
(596,255,cs),
(601,262,o),
(604,266,o),
(604,271,cs),
(604,278,o),
(597,284,o),
(590,284,cs),
(585,284,o),
(582,281,o),
(577,276,cs),
(553,248,o),
(513,239,o),
(477,239,cs),
(401,239,o),
(337,303,o),
(337,379,c),
(337,463,o),
(406,532,o),
(490,532,cs),
(499,532,o),
(510,530,o),
(521,527,cs),
(529,525,o),
(534,522,o),
(540,522,cs),
(549,522,o),
(553,532,o),
(553,539,cs),
(553,545,o),
(547,550,o),
(541,552,cs),
(522,560,o),
(505,562,o),
(487,562,cs),
(386,562,o),
(304,479,o),
(304,376,cs),
(304,284,o),
(384,209,o),
(482,209,cs)
);
}
);
userData = {
com.hugojourdan.ColorFlow = {
"0" = 0;
"1" = 0;
"10" = 0;
"11" = 0;
"2" = 0;
"3" = 0;
"4" = 0;
"5" = 0;
"6" = 0;
"7" = 0;
"8" = 0;
"9" = 0;
};
};
width = 922;
},
{
layerId = m003;
shapes = (
{
closed = 1;
nodes = (
(695,-24,o),
(874,179,o),
(874,389,cs),
(874,599,o),
(679,775,o),
(467,775,cs),
(232,775,o),
(57,574,o),
(57,366,cs),
(57,138,o),
(273,-24,o),
(471,-24,cs)
);
},
{
closed = 1;
nodes = (
(327,99,o),
(188,197,o),
(188,367,cs),
(188,527,o),
(305,652,o),
(470,652,cs),
(603,652,o),
(743,543,o),
(743,386,cs),
(743,217,o),
(626,99,o),
(471,99,cs)
);
},
{
closed = 1;
nodes = (
(515,186,o),
(560,202,o),
(593,225,cs),
(624,246,o),
(645,271,o),
(645,295,cs),
(645,329,o),
(620,355,o),
(591,355,cs),
(580,355,o),
(570,347,o),
(560,339,cs),
(542,325,o),
(520,304,o),
(477,304,cs),
(429,304,o),
(395,336,o),
(395,376,cs),
(395,424,o),
(437,461,o),
(490,461,cs),
(501,461,o),
(512,458,o),
(521,455,cs),
(526,453,o),
(536,451,o),
(541,451,cs),
(571,451,o),
(591,481,o),
(591,511,cs),
(591,533,o),
(580,556,o),
(552,566,cs),
(524,576,o),
(505,579,o),
(487,579,cs),
(378,579,o),
(274,480,o),
(274,373,cs),
(274,274,o),
(354,186,o),
(472,186,cs)
);
}
);
userData = {
com.hugojourdan.ColorFlow = {
"0" = 0;
"1" = 0;
"10" = 0;
"11" = 0;
"2" = 0;
"3" = 0;
"4" = 0;
"5" = 0;
"6" = 0;
"7" = 0;
"8" = 0;
"9" = 0;
};
};
width = 922;
},
{
layerId = "5FC9277C-B92C-4C3C-88AB-70E16AEC7C11";
shapes = (
{
closed = 1;
nodes = (
(685,-15,o),
(856,184,o),
(856,389,cs),
(856,595,o),
(670,766,o),
(467,766,cs),
(242,766,o),
(75,570,o),
(75,366,cs),
(75,143,o),
(282,-15,o),
(471,-15,cs)
);
},
{
closed = 1;
nodes = (
(314,68,o),
(161,190,o),
(161,367,cs),
(161,532,o),
(289,684,o),
(470,684,cs),
(617,684,o),
(770,557,o),
(770,386,cs),
(770,222,o),
(641,68,o),
(471,68,cs)
);
},
{
closed = 1;
nodes = (
(532,207,o),
(582,225,o),
(616,264,cs),
(626,274,o),
(631,285,o),
(631,296,cs),
(631,321,o),
(614,338,o),
(591,338,cs),
(581,338,o),
(570,334,o),
(563,324,cs),
(542,301,o),
(509,289,o),
(477,289,cs),
(418,289,o),
(377,329,o),
(377,379,cs),
(377,437,o),
(427,482,o),
(490,482,cs),
(501,482,o),
(512,479,o),
(521,476,cs),
(526,474,o),
(531,473,o),
(536,473,cs),
(558,473,o),
(573,495,o),
(573,511,cs),
(573,529,o),
(565,545,o),
(544,553,cs),
(524,561,o),
(505,564,o),
(487,564,cs),
(387,564,o),
(292,474,o),
(292,376,cs),
(292,287,o),
(373,207,o),
(481,207,cs)
);
}
);
userData = {
com.hugojourdan.ColorFlow = {
"0" = 0;
"1" = 0;
"10" = 0;
"11" = 0;
"2" = 0;
"3" = 0;
"4" = 0;
"5" = 0;
"6" = 0;
"7" = 0;
"8" = 0;
"9" = 0;
};
};
width = 922;
}
);
unicode = 169;
}
{
glyphname = ordfeminine;
kernLeft = ordinal;
kernRight = superior;
layers = (
{
anchors = (
{
name = bottom;
pos = (268,474);
},
{
name = ogonek;
pos = (445,481);
},
{
name = top;
pos = (281,865);
}
);
layerId = m01;
shapes = (
{
closed = 1;
nodes = (
(78,538,o),
(128,469,o),
(223,469,cs),
(282,469,o),
(330,513,o),
(355,575,c),
(360,517,o),
(381,462,o),
(425,462,cs),
(458,462,o),
(483,491,o),
(495,520,cs),
(498,528,o),
(499,537,o),
(489,541,cs),
(480,544,o),
(477,540,o),
(471,529,cs),
(455,498,o),
(443,491,o),
(427,491,cs),
(406,491,o),
(383,530,o),
(381,615,cs),
(380,637,o),
(386,698,o),
(390,720,cs),
(396,766,o),
(403,824,o),
(409,857,cs),
(411,873,o),
(402,877,o),
(396,877,cs),
(392,877,o),
(383,874,o),
(378,851,c),
(342,875,o),
(301,880,o),
(279,880,cs),
(166,880,o),
(78,764,o),
(78,643,cs)
);
},
{
closed = 1;
nodes = (
(111,734,o),
(179,850,o),
(274,850,cs),
(298,850,o),
(337,845,o),
(370,818,c),
(365,762,o),
(351,648,o),
(334,596,cs),
(319,551,o),
(284,499,o),
(223,499,cs),
(159,499,o),
(111,551,o),
(111,644,cs)
);
}
);
userData = {
com.hugojourdan.ColorFlow = {
"0" = 0;
"1" = 0;
"10" = 0;
"11" = 0;
"2" = 0;
"3" = 0;
"4" = 0;
"5" = 0;
"6" = 0;
"7" = 0;
"8" = 0;
"9" = 0;
};
};
width = 505;
},
{
anchors = (
{
name = bottom;
pos = (257,471);
},
{
name = ogonek;
pos = (446,478);
},
{
name = top;
pos = (275,862);
}
);
layerId = m003;
shapes = (
{
closed = 1;
nodes = (
(38,542,o),
(100,460,o),
(203,460,cs),
(258,460,o),
(306,490,o),
(331,530,c),
(341,487,o),
(378,456,o),
(422,456,cs),
(466,456,o),
(523,491,o),
(532,520,cs),
(542,553,o),
(518,580,o),
(497,580,cs),
(484,580,o),
(480,576,o),
(468,569,cs),
(462,565,o),
(458,561,o),
(451,561,cs),
(428,561,o),
(431,605,o),
(434,628,cs),
(436,650,o),
(441,691,o),
(445,714,cs),
(451,760,o),
(464,813,o),
(464,840,cs),
(465,869,o),
(428,891,o),
(386,891,cs),
(350,891,o),
(341,872,o),
(336,850,c),
(313,873,o),
(286,889,o),
(243,889,cs),
(112,889,o),
(38,771,o),
(38,646,cs)
);
},
{
closed = 1;
nodes = (
(177,727,o),
(210,785,o),
(263,785,cs),
(286,785,o),
(303,777,o),
(315,767,c),
(312,719,o),
(305,670,o),
(290,622,cs),
(280,592,o),
(257,571,o),
(228,571,cs),
(191,571,o),
(177,607,o),
(177,648,cs)
);
}
);
userData = {
com.hugojourdan.ColorFlow = {
"0" = 0;
"1" = 0;
"10" = 0;
"11" = 0;
"2" = 0;
"3" = 0;
"4" = 0;
"5" = 0;
"6" = 0;
"7" = 0;
"8" = 0;
"9" = 0;
};
};
width = 528;
},
{
anchors = (
{
name = bottom;
pos = (291,47);
},
{
name = ogonek;
pos = (529,57);
},
{
name = top;
pos = (309,569);
}
);
layerId = "5FC9277C-B92C-4C3C-88AB-70E16AEC7C11";
shapes = (
{
closed = 1;
nodes = (
(61,543,o),
(120,468,o),
(218,468,cs),
(268,468,o),
(312,499,o),
(342,544,c),
(350,496,o),
(383,462,o),
(432,462,cs),
(488,462,o),
(523,505,o),
(524,533,cs),
(525,558,o),
(508,575,o),
(488,575,cs),
(477,575,o),
(467,571,o),
(462,560,cs),
(454,543,o),
(446,536,o),
(435,536,cs),
(413,536,o),
(406,588,o),
(406,617,cs),
(406,639,o),
(414,693,o),
(418,715,cs),
(424,760,o),
(432,809,o),
(433,840,cs),
(434,864,o),
(416,877,o),
(391,877,cs),
(369,877,o),
(360,867,o),
(355,840,c),
(326,869,o),
(286,877,o),
(256,877,cs),
(144,877,o),
(61,764,o),
(61,645,cs)
);
},
{
closed = 1;
nodes = (
(141,733,o),
(187,804,o),
(259,804,cs),
(282,804,o),
(320,793,o),
(345,773,c),
(341,721,o),
(332,664,o),
(313,614,cs),
(294,570,o),
(262,542,o),
(221,542,cs),
(167,542,o),
(141,582,o),
(141,647,cs)
);
}
);
userData = {
com.hugojourdan.ColorFlow = {
"0" = 0;
"1" = 0;
"10" = 0;
"11" = 0;
"2" = 0;
"3" = 0;
"4" = 0;
"5" = 0;
"6" = 0;
"7" = 0;
"8" = 0;
"9" = 0;
};
};
width = 528;
}
);
unicode = 170;
}
{
glyphname = guillemetleft;
kernLeft = guillemetleft;
kernRight = guillemetleft;
layers = (
{
background = {
shapes = (
{
closed = 1;
nodes = (
(484,14,o),
(491,16,o),
(498,19,c),
(510,27,o),
(519,41,o),
(519,55,cs),
(519,61,o),
(517,68,o),
(513,74,cs),
(464,147,o),
(408,216,o),
(348,280,c),
(413,357,o),
(492,430,o),
(535,518,c),
(536,541,o),
(515,558,o),
(494,558,cs),
(484,558,o),
(474,554,o),
(466,546,c),
(389,441,o),
(332,383,o),
(297,346,cs),
(270,317,o),
(256,300,o),
(256,282,cs),
(256,267,o),
(265,252,o),
(285,229,cs),
(307,202,o),
(404,88,o),
(426,55,cs),
(440,33,o),
(456,14,o),
(478,14,cs)
);
},
{
closed = 1;
nodes = (
(56,295,o),
(62,288,o),
(71,275,cs),
(106,225,o),
(163,154,o),
(217,81,cs),
(225,69,o),
(239,61,o),
(253,61,cs),
(260,61,o),
(267,63,o),
(273,67,cs),
(285,74,o),
(293,88,o),
(293,102,cs),
(293,109,o),
(291,116,o),
(287,122,cs),
(238,188,o),
(183,252,o),
(135,318,c),
(182,372,o),
(238,423,o),
(286,477,cs),
(293,485,o),
(298,496,o),
(298,507,cs),
(298,517,o),
(294,526,o),
(286,534,cs),
(278,541,o),
(267,546,o),
(256,546,cs),
(246,546,o),
(236,543,o),
(229,534,cs),
(205,503,o),
(124,422,o),
(78,362,cs),
(63,342,o),
(56,329,o),
(56,313,cs)
);
}
);
};
layerId = m01;
shapes = (
{
closed = 1;
nodes = (
(495,27,o),
(504,35,o),
(504,43,cs),
(504,46,o),
(503,51,o),
(500,55,cs),
(437,133,o),
(368,226,o),
(314,293,c),
(387,374,o),
(465,452,o),
(514,527,cs),
(516,530,o),
(517,533,o),
(517,536,cs),
(517,543,o),
(509,548,o),
(502,548,cs),
(498,548,o),
(495,546,o),
(492,542,cs),
(414,437,o),
(355,379,o),
(316,337,cs),
(289,308,o),
(281,300,o),
(281,292,cs),
(281,284,o),
(286,276,o),
(305,254,cs),
(327,227,o),
(430,99,o),
(475,35,cs),
(478,30,o),
(482,27,o),
(487,27,cs)
);
},
{
closed = 1;
nodes = (
(269,72,o),
(278,80,o),
(278,88,cs),
(278,92,o),
(276,95,o),
(274,98,cs),
(222,169,o),
(158,247,o),
(107,319,c),
(157,380,o),
(226,449,o),
(277,507,cs),
(281,511,o),
(282,515,o),
(282,519,cs),
(282,527,o),
(274,534,o),
(267,534,cs),
(263,534,o),
(260,532,o),
(257,528,cs),
(232,496,o),
(142,406,o),
(97,351,cs),
(81,331,o),
(74,326,o),
(74,318,cs),
(74,311,o),
(79,306,o),
(91,289,cs),
(125,239,o),
(193,158,o),
(249,81,cs),
(253,75,o),
(257,72,o),
(261,72,cs)
);
}
);
userData = {
com.hugojourdan.ColorFlow = {
"0" = 0;
"1" = 0;
"10" = 0;
"11" = 0;
"2" = 0;
"3" = 0;
"4" = 0;
"5" = 0;
"6" = 0;
"7" = 0;
"8" = 0;
"9" = 0;
};
};
width = 611;
},
{
layerId = m003;
shapes = (
{
closed = 1;
nodes = (
(558,10,o),
(593,45,o),
(593,83,cs),
(593,96,o),
(584,111,o),
(574,123,cs),
(525,185,o),
(480,244,o),
(435,299,c),
(486,362,o),
(533,421,o),
(574,479,cs),
(583,492,o),
(588,502,o),
(588,512,cs),
(588,557,o),
(548,590,o),
(508,590,cs),
(493,590,o),
(475,579,o),
(465,566,cs),
(396,473,o),
(348,421,o),
(312,382,cs),
(282,350,o),
(264,329,o),
(264,302,cs),
(264,279,o),
(277,257,o),
(304,227,cs),
(326,201,o),
(412,95,o),
(432,66,cs),
(453,35,o),
(476,10,o),
(506,10,cs)
);
},
{
closed = 1;
nodes = (
(281,37,o),
(323,72,o),
(323,115,cs),
(323,127,o),
(315,139,o),
(307,151,cs),
(265,207,o),
(223,261,o),
(182,316,c),
(221,359,o),
(264,400,o),
(304,445,cs),
(316,459,o),
(324,469,o),
(324,487,cs),
(324,523,o),
(290,569,o),
(242,569,cs),
(223,569,o),
(210,560,o),
(196,542,cs),
(175,515,o),
(100,441,o),
(55,387,cs),
(34,360,o),
(20,341,o),
(20,320,cs),
(20,297,o),
(41,265,o),
(47,256,cs),
(80,208,o),
(133,140,o),
(183,72,cs),
(196,52,o),
(218,37,o),
(239,37,cs)
);
}
);
userData = {
com.hugojourdan.ColorFlow = {
"0" = 0;
"1" = 0;
"10" = 0;
"11" = 0;
"2" = 0;
"3" = 0;
"4" = 0;
"5" = 0;
"6" = 0;
"7" = 0;
"8" = 0;
"9" = 0;
};
};
width = 628;
},
{
layerId = "5FC9277C-B92C-4C3C-88AB-70E16AEC7C11";
shapes = (
{
closed = 1;
nodes = (
(501,23,o),
(519,45,o),
(519,67,cs),
(519,74,o),
(517,81,o),
(512,88,cs),
(455,160,o),
(400,229,o),
(350,292,c),
(413,367,o),
(476,438,o),
(521,505,cs),
(527,515,o),
(531,523,o),
(531,531,cs),
(531,555,o),
(507,570,o),
(488,570,cs),
(478,570,o),
(467,566,o),
(459,557,c),
(383,453,o),
(327,396,o),
(291,359,cs),
(264,329,o),
(250,312,o),
(250,293,cs),
(250,277,o),
(259,262,o),
(280,238,cs),
(302,211,o),
(398,98,o),
(420,65,cs),
(434,42,o),
(451,23,o),
(474,23,cs)
);
},
{
closed = 1;
nodes = (
(267,59,o),
(288,80,o),
(288,103,cs),
(288,111,o),
(285,118,o),
(281,125,cs),
(233,190,o),
(181,253,o),
(134,318,c),
(180,371,o),
(233,421,o),
(280,474,cs),
(287,482,o),
(293,493,o),
(293,505,cs),
(293,528,o),
(273,547,o),
(247,547,cs),
(236,547,o),
(225,543,o),
(218,533,cs),
(194,502,o),
(114,424,o),
(68,368,cs),
(51,347,o),
(39,332,o),
(39,316,cs),
(39,297,o),
(52,286,o),
(61,273,cs),
(95,223,o),
(152,153,o),
(206,80,cs),
(214,67,o),
(229,59,o),
(244,59,cs)
);
}
);
userData = {
com.hugojourdan.ColorFlow = {
"0" = 0;
"1" = 0;
"10" = 0;
"11" = 0;
"2" = 0;
"3" = 0;
"4" = 0;
"5" = 0;
"6" = 0;
"7" = 0;
"8" = 0;
"9" = 0;
};
};
width = 596;
}
);
metricLeft = "=guilsinglleft";
metricRight = "=guilsinglleft";
unicode = 171;
}
{
glyphname = logicalnot;
kernLeft = hyphen;
kernRight = logicalnot;
layers = (
{
layerId = m01;
shapes = (
{
closed = 1;
nodes = (
(526,254,o),
(536,350,o),
(536,380,cs),
(536,388,o),
(532,392,o),
(521,392,cs),
(496,393,o),
(222,393,o),
(136,389,cs),
(124,389,o),
(119,385,o),
(119,375,cs),
(119,368,o),
(124,362,o),
(136,362,cs),
(216,365,o),
(413,367,o),
(506,366,c),
(506,323,o),
(497,238,o),
(505,175,cs),
(506,163,o),
(511,158,o),
(519,158,cs),
(526,158,o),
(534,162,o),
(533,175,cs)
);
}
);
userData = {
com.hugojourdan.ColorFlow = {
"0" = 0;
"1" = 0;
"10" = 0;
"11" = 0;
"2" = 0;
"3" = 0;
"4" = 0;
"5" = 0;
"6" = 0;
"7" = 0;
"8" = 0;
"9" = 0;
};
};
width = 650;
},
{
layerId = m003;
shapes = (
{
closed = 1;
nodes = (
(577,247,o),
(587,356,o),
(587,390,cs),
(587,432,o),
(566,452,o),
(522,452,cs),
(494,453,o),
(213,453,o),
(125,449,cs),
(85,447,o),
(66,423,o),
(66,373,cs),
(66,323,o),
(85,300,o),
(125,302,cs),
(191,305,o),
(354,308,o),
(430,307,c),
(431,277,o),
(423,209,o),
(428,178,cs),
(434,138,o),
(457,115,o),
(505,115,cs),
(559,115,o),
(585,141,o),
(582,183,cs)
);
}
);
userData = {
com.hugojourdan.ColorFlow = {
"0" = 0;
"1" = 0;
"10" = 0;
"11" = 0;
"2" = 0;
"3" = 0;
"4" = 0;
"5" = 0;
"6" = 0;
"7" = 0;
"8" = 0;
"9" = 0;
};
};
width = 650;
},
{
layerId = "5FC9277C-B92C-4C3C-88AB-70E16AEC7C11";
shapes = (
{
closed = 1;
nodes = (
(551,252,o),
(561,349,o),
(561,381,cs),
(561,403,o),
(547,421,o),
(519,421,cs),
(492,422,o),
(218,422,o),
(131,418,cs),
(104,416,o),
(90,396,o),
(90,373,cs),
(90,350,o),
(104,332,o),
(131,334,cs),
(205,337,o),
(386,340,o),
(471,339,c),
(472,300,o),
(462,228,o),
(468,189,cs),
(472,161,o),
(490,147,o),
(513,147,cs),
(537,147,o),
(558,162,o),
(556,189,cs)
);
}
);
userData = {
com.hugojourdan.ColorFlow = {
"0" = 0;
"1" = 0;
"10" = 0;
"11" = 0;
"2" = 0;
"3" = 0;
"4" = 0;
"5" = 0;
"6" = 0;
"7" = 0;
"8" = 0;
"9" = 0;
};
};
width = 650;
}
);
unicode = 172;
}
{
glyphname = degree;
kernLeft = superior;
kernRight = superior;
layers = (
{
anchors = (
{
name = top;
pos = (253,670);
}
);
background = {
shapes = (
{
closed = 1;
nodes = (
(153,778,o),
(77,690,o),
(77,609,cs),
(77,515,o),
(140,440,o),
(226,440,cs),
(330,440,o),
(407,514,o),
(407,606,cs),
(407,691,o),
(334,778,o),
(248,778,cs)
);
},
{
closed = 1;
nodes = (
(319,748,o),
(374,682,o),
(374,606,cs),
(374,521,o),
(315,470,o),
(234,470,cs),
(157,470,o),
(110,525,o),
(110,609,cs),
(110,683,o),
(161,748,o),
(246,748,cs)
);
}
);
};
layerId = m01;
shapes = (
{
closed = 1;
nodes = (
(153,778,o),
(79,705,o),
(79,609,cs),
(79,513,o),
(144,440,o),
(226,440,cs),
(327,440,o),
(405,512,o),
(405,606,cs),
(405,704,o),
(336,778,o),
(248,778,cs)
);
},
{
closed = 1;
nodes = (
(317,748,o),
(373,686,o),
(373,606,cs),
(373,529,o),
(312,470,o),
(234,470,cs),
(166,470,o),
(111,530,o),
(111,609,cs),
(111,688,o),
(171,748,o),
(246,748,cs)
);
}
);
userData = {
com.hugojourdan.ColorFlow = {
"0" = 0;
"1" = 0;
"10" = 0;
"11" = 0;
"2" = 0;
"3" = 0;
"4" = 0;
"5" = 0;
"6" = 0;
"7" = 0;
"8" = 0;
"9" = 0;
};
};
width = 460;
},
{
anchors = (
{
name = top;
pos = (238,670);
}
);
layerId = m003;
shapes = (
{
closed = 1;
nodes = (
(111,798,o),
(22,719,o),
(22,609,cs),
(22,499,o),
(101,420,o),
(211,420,cs),
(339,420,o),
(432,498,o),
(432,606,cs),
(432,717,o),
(348,798,o),
(233,798,cs)
);
},
{
closed = 1;
nodes = (
(269,676,o),
(294,648,o),
(294,606,cs),
(294,567,o),
(265,542,o),
(221,542,cs),
(184,542,o),
(160,569,o),
(160,609,cs),
(160,649,o),
(188,676,o),
(231,676,cs)
);
}
);
userData = {
com.hugojourdan.ColorFlow = {
"0" = 0;
"1" = 0;
"10" = 0;
"11" = 0;
"2" = 0;
"3" = 0;
"4" = 0;
"5" = 0;
"6" = 0;
"7" = 0;
"8" = 0;
"9" = 0;
};
};
width = 430;
},
{
anchors = (
{
name = top;
pos = (247,670);
}
);
layerId = "5FC9277C-B92C-4C3C-88AB-70E16AEC7C11";
shapes = (
{
closed = 1;
nodes = (
(139,780,o),
(58,693,o),
(58,609,cs),
(58,513,o),
(126,438,o),
(220,438,cs),
(332,438,o),
(414,512,o),
(414,606,cs),
(414,694,o),
(335,780,o),
(242,780,cs)
);
},
{
closed = 1;
nodes = (
(294,708,o),
(335,661,o),
(335,606,cs),
(335,546,o),
(290,511,o),
(228,511,cs),
(172,511,o),
(138,549,o),
(138,609,cs),
(138,662,o),
(176,708,o),
(240,708,cs)
);
}
);
userData = {
com.hugojourdan.ColorFlow = {
"0" = 0;
"1" = 0;
"10" = 0;
"11" = 0;
"2" = 0;
"3" = 0;
"4" = 0;
"5" = 0;
"6" = 0;
"7" = 0;
"8" = 0;
"9" = 0;
};
};
width = 448;
}
);
unicode = 176;
}
{
glyphname = twosuperior;
kernLeft = superior;
kernRight = superior;
layers = (
{
background = {
shapes = (
{
closed = 1;
nodes = (
(72,749,o),
(86,736,o),
(108,736,cs),
(129,736,o),
(140,742,o),
(142,757,cs),
(154,815,o),
(197,840,o),
(259,840,cs),
(329,840,o),
(375,801,o),
(375,737,cs),
(375,640,o),
(234,525,o),
(94,447,cs),
(84,441,o),
(76,430,o),
(76,410,cs),
(76,396,o),
(89,385,o),
(105,385,cs),
(144,385,o),
(199,400,o),
(262,400,cs),
(306,400,o),
(394,396,o),
(431,389,cs),
(447,386,o),
(474,384,o),
(474,421,cs),
(474,450,o),
(452,459,o),
(434,462,cs),
(378,472,o),
(309,471,o),
(226,462,c),
(352,544,o),
(448,638,o),
(448,745,cs),
(448,846,o),
(364,908,o),
(257,908,cs),
(163,908,o),
(72,845,o),
(72,766,cs)
);
}
);
};
layerId = m01;
shapes = (
{
closed = 1;
nodes = (
(77,755,o),
(82,750,o),
(92,750,cs),
(102,750,o),
(108,755,o),
(109,762,cs),
(119,835,o),
(175,878,o),
(244,878,cs),
(339,878,o),
(387,827,o),
(387,735,cs),
(387,628,o),
(246,502,o),
(103,414,cs),
(93,408,o),
(91,404,o),
(91,398,cs),
(91,392,o),
(95,385,o),
(106,385,cs),
(135,385,o),
(168,400,o),
(262,400,cs),
(309,400,o),
(384,398,o),
(431,389,cs),
(441,387,o),
(446,394,o),
(446,406,cs),
(446,415,o),
(442,418,o),
(435,420,cs),
(377,431,o),
(249,437,o),
(174,425,c),
(317,537,o),
(419,634,o),
(419,739,cs),
(419,838,o),
(350,908,o),
(242,908,cs),
(168,908,o),
(84,845,o),
(78,764,cs)
);
}
);
userData = {
com.hugojourdan.ColorFlow = {
"0" = 0;
"1" = 0;
"10" = 0;
"11" = 0;
"2" = 0;
"3" = 0;
"4" = 0;
"5" = 0;
"6" = 0;
"7" = 0;
"8" = 0;
"9" = 0;
};
};
width = 521;
},
{
layerId = m003;
shapes = (
{
closed = 1;
nodes = (
(42,717,o),
(60,700,o),
(108,700,cs),
(151,700,o),
(165,715,o),
(172,737,cs),
(186,780,o),
(209,800,o),
(249,800,cs),
(299,800,o),
(325,775,o),
(325,737,cs),
(325,665,o),
(204,575,o),
(106,520,cs),
(57,493,o),
(38,468,o),
(38,430,cs),
(38,397,o),
(57,385,o),
(84,385,cs),
(123,385,o),
(179,400,o),
(242,400,cs),
(286,400,o),
(405,396,o),
(442,389,cs),
(480,382,o),
(503,400,o),
(503,453,cs),
(503,497,o),
(489,513,o),
(454,519,cs),
(416,526,o),
(370,528,o),
(320,525,c),
(403,591,o),
(465,664,o),
(465,745,cs),
(465,846,o),
(394,908,o),
(249,908,cs),
(141,908,o),
(42,835,o),
(42,746,cs)
);
}
);
userData = {
com.hugojourdan.ColorFlow = {
"0" = 0;
"1" = 0;
"10" = 0;
"11" = 0;
"2" = 0;
"3" = 0;
"4" = 0;
"5" = 0;
"6" = 0;
"7" = 0;
"8" = 0;
"9" = 0;
};
};
width = 537;
},
{
layerId = "5FC9277C-B92C-4C3C-88AB-70E16AEC7C11";
shapes = (
{
closed = 1;
nodes = (
(48,746,o),
(63,732,o),
(87,732,cs),
(111,732,o),
(122,739,o),
(124,755,cs),
(137,812,o),
(178,836,o),
(237,836,cs),
(305,836,o),
(349,798,o),
(349,737,cs),
(349,643,o),
(210,530,o),
(75,454,cs),
(61,446,o),
(52,434,o),
(52,412,cs),
(52,396,o),
(65,385,o),
(82,385,cs),
(121,385,o),
(176,400,o),
(239,400,cs),
(283,400,o),
(374,396,o),
(411,389,cs),
(430,386,o),
(456,386,o),
(456,424,cs),
(456,455,o),
(435,464,o),
(415,468,cs),
(361,477,o),
(294,477,o),
(215,468,c),
(336,549,o),
(429,641,o),
(429,745,cs),
(429,846,o),
(346,908,o),
(236,908,cs),
(140,908,o),
(48,844,o),
(48,764,cs)
);
}
);
userData = {
com.hugojourdan.ColorFlow = {
"0" = 0;
"1" = 0;
"10" = 0;
"11" = 0;
"2" = 0;
"3" = 0;
"4" = 0;
"5" = 0;
"6" = 0;
"7" = 0;
"8" = 0;
"9" = 0;
};
};
width = 516.3;
}
);
unicode = 178;
}
{
glyphname = micro;
kernRight = u;
layers = (
{
layerId = m01;
shapes = (
{
closed = 1;
nodes = (
(119,-264,o),
(123,-259,o),
(124,-244,cs),
(126,-198,o),
(125,-145,o),
(123,-75,cs),
(122,-30,o),
(119,24,o),
(120,81,c),
(135,31,o),
(171,-10,o),
(227,-10,cs),
(324,-10,o),
(392,113,o),
(443,229,c),
(444,154,o),
(450,93,o),
(469,10,cs),
(472,-5,o),
(477,-10,o),
(487,-10,cs),
(504,-10,o),
(503,0,o),
(499,16,cs),
(483,84,o),
(470,165,o),
(470,247,cs),
(470,269,o),
(470,293,o),
(472,315,c),
(484,370,o),
(505,493,o),
(505,530,cs),
(505,544,o),
(502,554,o),
(489,554,cs),
(478,554,o),
(471,546,o),
(467,527,cs),
(454,470,o),
(446,374,o),
(442,299,c),
(401,179,o),
(321,19,o),
(229,19,cs),
(169,19,o),
(132,88,o),
(132,205,cs),
(132,260,o),
(148,380,o),
(179,517,cs),
(183,535,o),
(171,538,o),
(164,538,cs),
(156,538,o),
(151,531,o),
(149,523,cs),
(119,403,o),
(103,304,o),
(100,232,cs),
(93,155,o),
(89,36,o),
(93,-55,cs),
(95,-109,o),
(93,-151,o),
(93,-244,cs),
(93,-256,o),
(95,-264,o),
(108,-264,cs)
);
}
);
userData = {
com.hugojourdan.ColorFlow = {
"0" = 0;
"1" = 0;
"10" = 0;
"11" = 0;
"2" = 0;
"3" = 0;
"4" = 0;
"5" = 0;
"6" = 0;
"7" = 0;
"8" = 0;
"9" = 0;
};
};
width = 596;
},
{
layerId = m003;
shapes = (
{
closed = 1;
nodes = (
(176,-264,o),
(221,-250,o),
(220,-205,cs),
(219,-170,o),
(214,-130,o),
(208,-89,cs),
(203,-58,o),
(198,-27,o),
(195,4,c),
(212,-10,o),
(234,-16,o),
(257,-16,cs),
(314,-16,o),
(373,36,o),
(397,112,c),
(401,84,o),
(406,59,o),
(411,38,cs),
(422,-9,o),
(457,-20,o),
(501,-20,cs),
(547,-20,o),
(599,8,o),
(586,69,cs),
(580,96,o),
(563,166,o),
(563,252,cs),
(563,271,o),
(564,311,o),
(567,330,c),
(581,385,o),
(590,430,o),
(590,465,cs),
(590,522,o),
(555,564,o),
(506,564,cs),
(455,564,o),
(417,547,o),
(408,507,cs),
(401,476,o),
(392,393,o),
(394,324,c),
(370,250,o),
(315,147,o),
(270,147,cs),
(242,147,o),
(240,195,o),
(240,225,cs),
(240,280,o),
(256,380,o),
(273,453,cs),
(289,524,o),
(242,548,o),
(183,548,cs),
(140,548,o),
(111,536,o),
(95,472,cs),
(79,409,o),
(69,321,o),
(61,233,cs),
(52,122,o),
(52,10,o),
(52,-55,cs),
(52,-109,o),
(56,-142,o),
(55,-196,cs),
(54,-239,o),
(89,-264,o),
(138,-264,cs)
);
}
);
userData = {
com.hugojourdan.ColorFlow = {
"0" = 0;
"1" = 0;
"10" = 0;
"11" = 0;
"2" = 0;
"3" = 0;
"4" = 0;
"5" = 0;
"6" = 0;
"7" = 0;
"8" = 0;
"9" = 0;
};
};
width = 645;
},
{
layerId = "5FC9277C-B92C-4C3C-88AB-70E16AEC7C11";
shapes = (
{
closed = 1;
nodes = (
(139,-267,o),
(158,-253,o),
(161,-226,cs),
(164,-199,o),
(156,-148,o),
(154,-78,cs),
(153,-43,o),
(151,-9,o),
(149,26,c),
(169,3,o),
(194,-11,o),
(226,-11,cs),
(306,-11,o),
(370,79,o),
(414,161,c),
(418,111,o),
(426,69,o),
(437,21,cs),
(443,-2,o),
(461,-11,o),
(480,-11,cs),
(507,-11,o),
(533,12,o),
(524,51,cs),
(516,88,o),
(499,180,o),
(499,270,cs),
(499,298,o),
(500,329,o),
(503,357,c),
(517,401,o),
(529,446,o),
(529,483,cs),
(529,519,o),
(512,555,o),
(482,555,cs),
(459,555,o),
(442,543,o),
(437,523,cs),
(426,477,o),
(418,398,o),
(415,333,c),
(380,225,o),
(300,75,o),
(228,75,cs),
(184,75,o),
(167,140,o),
(167,207,cs),
(167,262,o),
(183,380,o),
(208,485,cs),
(215,518,o),
(195,539,o),
(164,539,cs),
(145,539,o),
(127,529,o),
(120,505,cs),
(94,399,o),
(80,300,o),
(76,228,cs),
(71,150,o),
(65,32,o),
(70,-58,cs),
(72,-112,o),
(73,-154,o),
(70,-226,cs),
(68,-251,o),
(88,-267,o),
(114,-267,cs)
);
}
);
userData = {
com.hugojourdan.ColorFlow = {
"0" = 0;
"1" = 0;
"10" = 0;
"11" = 0;
"2" = 0;
"3" = 0;
"4" = 0;
"5" = 0;
"6" = 0;
"7" = 0;
"8" = 0;
"9" = 0;
};
};
width = 600;
}
);
metricRight = "=u";
unicode = 181;
}
